<svg width="872" height="581" viewBox="0 0 872 581" fill="none" xmlns="http://www.w3.org/2000/svg">
<path fill-rule="evenodd" clip-rule="evenodd" d="M869.522 501.6L860.294 510.57L861.131 511.43L871.861 501L861.131 490.57L860.294 491.43L869.522 500.4L10.4004 500.4L10.4004 511H11.6004L11.6004 501.6L310.4 501.6V511H311.6V501.6L610.4 501.6V511H611.6V501.6H869.522Z" fill="#191B1D"/>
<path fill-rule="evenodd" clip-rule="evenodd" d="M10.9996 0.13916L21.4298 10.8698L20.5693 11.7062L11.5996 2.4781V501H10.3996V2.4781L1.42982 11.7062L0.569336 10.8698L10.9996 0.13916Z" fill="#191B1D"/>
<path d="M17.66 551.22C19.34 551.22 20.72 550.7 21.66 549.88C22.6 549.08 23.12 547.94 23.12 546.66C23.12 545.2 22.68 544.2 21.8 543.54C20.92 542.9 19.62 542.54 17.88 542.32C16.78 542.16 16.12 541.96 15.74 541.66C15.34 541.4 15.22 541 15.22 540.5C15.22 539.54 15.92 538.88 17.36 538.88C18.74 538.88 19.56 539.5 19.74 540.78H22.72C22.46 537.92 20.58 536.5 17.36 536.5C15.78 536.5 14.48 536.96 13.58 537.7C12.68 538.48 12.16 539.54 12.16 540.76C12.16 542.14 12.52 543.12 13.38 543.78C14.2 544.48 15.48 544.86 17.32 545.1C18.36 545.26 19.04 545.46 19.46 545.72C19.86 546.02 20.02 546.4 20.02 546.96C20.02 548.08 19.1 548.86 17.66 548.86C16.6 548.86 15.94 548.58 15.52 548.16C15.1 547.76 14.94 547.16 14.86 546.52H11.76C11.84 547.96 12.34 549.12 13.3 549.94C14.26 550.76 15.68 551.22 17.66 551.22ZM26.5469 539.12C27.4869 539.12 28.2069 538.44 28.2069 537.54C28.2069 536.64 27.4869 535.96 26.5469 535.96C25.6069 535.96 24.9069 536.64 24.9069 537.54C24.9069 538.44 25.6069 539.12 26.5469 539.12ZM25.1269 540.54V551H28.0069V540.54H25.1269ZM30.5063 540.54V551H33.4063V544.96C33.4063 543.42 34.3263 542.66 35.5863 542.66C36.8663 542.66 37.4263 543.32 37.4263 544.76V551H40.3263V544.34C40.3263 542.96 39.9663 541.92 39.3463 541.26C38.7063 540.62 37.8463 540.3 36.8063 540.3C35.0463 540.3 33.9463 541.16 33.4063 542.2V540.54H30.5063ZM47.2853 554.86C50.7453 554.86 52.7853 553.3 52.8053 550.18V540.54H49.9253V542.1C49.3053 541.04 48.3053 540.3 46.6053 540.3C45.3053 540.3 44.1453 540.84 43.3253 541.72C42.5053 542.62 42.0053 543.9 42.0053 545.4V545.54C42.0053 547.08 42.5253 548.34 43.3453 549.2C44.1453 550.06 45.2853 550.54 46.5653 550.54C47.3453 550.54 48.0253 550.32 48.6053 549.94C49.1853 549.6 49.6253 549.1 49.9253 548.6V550.18C49.9253 551.84 49.0453 552.74 47.2853 552.74C45.7853 552.74 45.1453 552.16 44.9653 551.22H42.0853C42.2253 552.32 42.6653 553.22 43.5253 553.86C44.3453 554.5 45.6053 554.86 47.2853 554.86ZM47.4253 548.36C45.9853 548.36 44.9653 547.3 44.9653 545.54V545.38C44.9653 543.64 45.8653 542.5 47.4853 542.5C49.0853 542.5 50.0053 543.58 50.0053 545.36V545.5C50.0053 547.28 48.9453 548.36 47.4253 548.36ZM55.2941 535.8V551H58.1741V535.8H55.2941ZM65.4739 551.22C68.3539 551.22 70.1339 549.96 70.4739 547.7H67.7339C67.5539 548.58 66.9139 549.16 65.5539 549.16C63.9539 549.16 63.0339 548.18 62.9539 546.42H70.4939V545.62C70.4939 543.76 69.8939 542.42 68.9539 541.56C68.0139 540.7 66.7539 540.3 65.3939 540.3C63.8739 540.3 62.5339 540.84 61.5739 541.78C60.5939 542.74 60.0139 544.08 60.0139 545.74V545.9C60.0139 547.58 60.5939 548.9 61.5739 549.8C62.5339 550.74 63.8939 551.22 65.4739 551.22ZM67.6739 544.64H62.9939C63.2139 543.14 64.0939 542.3 65.3939 542.3C66.7739 542.3 67.5739 543.04 67.6739 544.64ZM76.2602 540.54V554.56H79.1602V549.4C79.7002 550.42 80.8802 551.22 82.5002 551.22C83.8002 551.22 84.9402 550.74 85.7602 549.8C86.5602 548.9 87.0602 547.56 87.0602 545.82V545.66C87.0602 543.92 86.5602 542.58 85.7402 541.68C84.9202 540.78 83.7802 540.3 82.5002 540.3C80.9602 540.3 79.7402 541.16 79.1602 542.18V540.54H76.2602ZM81.6402 548.96C80.0402 548.96 79.0602 547.94 79.0602 545.84V545.68C79.0602 543.58 80.1002 542.52 81.6202 542.52C83.0802 542.52 84.1202 543.54 84.1202 545.68V545.84C84.1202 547.9 83.2402 548.96 81.6402 548.96ZM93.6684 551.22C96.5484 551.22 98.3284 549.96 98.6684 547.7H95.9284C95.7484 548.58 95.1084 549.16 93.7484 549.16C92.1484 549.16 91.2284 548.18 91.1484 546.42H98.6884V545.62C98.6884 543.76 98.0884 542.42 97.1484 541.56C96.2084 540.7 94.9484 540.3 93.5884 540.3C92.0684 540.3 90.7284 540.84 89.7684 541.78C88.7884 542.74 88.2084 544.08 88.2084 545.74V545.9C88.2084 547.58 88.7884 548.9 89.7684 549.8C90.7284 550.74 92.0884 551.22 93.6684 551.22ZM95.8684 544.64H91.1884C91.4084 543.14 92.2884 542.3 93.5884 542.3C94.9684 542.3 95.7684 543.04 95.8684 544.64ZM105.301 549.02C103.641 549.02 102.741 547.82 102.741 545.82V545.66C102.741 543.66 103.701 542.5 105.301 542.5C106.921 542.5 107.861 543.7 107.861 545.7V545.84C107.861 547.84 106.921 549.02 105.301 549.02ZM105.281 551.22C106.861 551.22 108.241 550.7 109.221 549.76C110.201 548.82 110.801 547.48 110.801 545.82V545.66C110.801 544.04 110.201 542.7 109.241 541.76C108.261 540.82 106.881 540.3 105.301 540.3C103.721 540.3 102.341 540.84 101.361 541.78C100.381 542.72 99.7811 544.1 99.7811 545.72V545.88C99.7811 547.5 100.381 548.86 101.361 549.76C102.341 550.7 103.701 551.22 105.281 551.22ZM112.58 540.54V554.56H115.48V549.4C116.02 550.42 117.2 551.22 118.82 551.22C120.12 551.22 121.26 550.74 122.08 549.8C122.88 548.9 123.38 547.56 123.38 545.82V545.66C123.38 543.92 122.88 542.58 122.06 541.68C121.24 540.78 120.1 540.3 118.82 540.3C117.28 540.3 116.06 541.16 115.48 542.18V540.54H112.58ZM117.96 548.96C116.36 548.96 115.38 547.94 115.38 545.84V545.68C115.38 543.58 116.42 542.52 117.94 542.52C119.4 542.52 120.44 543.54 120.44 545.68V545.84C120.44 547.9 119.56 548.96 117.96 548.96ZM125.248 535.8V551H128.128V535.8H125.248ZM135.428 551.22C138.308 551.22 140.088 549.96 140.428 547.7H137.688C137.508 548.58 136.868 549.16 135.508 549.16C133.908 549.16 132.988 548.18 132.908 546.42H140.448V545.62C140.448 543.76 139.848 542.42 138.908 541.56C137.968 540.7 136.708 540.3 135.348 540.3C133.828 540.3 132.488 540.84 131.528 541.78C130.548 542.74 129.968 544.08 129.968 545.74V545.9C129.968 547.58 130.548 548.9 131.528 549.8C132.488 550.74 133.848 551.22 135.428 551.22ZM137.628 544.64H132.948C133.168 543.14 134.048 542.3 135.348 542.3C136.728 542.3 137.528 543.04 137.628 544.64ZM149.034 551.22C150.694 551.22 151.574 550.6 152.194 549.74V551H155.014V544.18C155.014 542.76 154.574 541.8 153.794 541.18C152.994 540.56 151.914 540.3 150.634 540.3C149.354 540.3 148.214 540.58 147.394 541.16C146.574 541.74 146.014 542.66 145.934 543.88H148.674C148.814 542.98 149.314 542.4 150.454 542.4C151.794 542.4 152.154 543.06 152.154 544.32V544.74H150.974C149.374 544.74 148.014 544.96 147.054 545.5C146.094 546.04 145.534 546.88 145.534 548.1C145.534 549.2 145.934 549.98 146.574 550.48C147.214 550.98 148.074 551.22 149.034 551.22ZM149.894 549.2C148.834 549.2 148.374 548.72 148.374 547.94C148.374 546.82 149.354 546.46 151.034 546.46H152.154V547.34C152.154 548.52 151.174 549.2 149.894 549.2ZM157.338 540.54V551H160.238V544.96C160.238 543.42 161.158 542.66 162.418 542.66C163.698 542.66 164.258 543.32 164.258 544.76V551H167.158V544.34C167.158 542.96 166.798 541.92 166.178 541.26C165.538 540.62 164.678 540.3 163.638 540.3C161.878 540.3 160.778 541.16 160.238 542.2V540.54H157.338ZM173.397 551.22C174.937 551.22 176.217 550.32 176.757 549.26V551H179.637V535.8H176.757V542.1C176.177 541.04 175.137 540.3 173.457 540.3C172.157 540.3 170.997 540.8 170.177 541.74C169.357 542.68 168.857 544.06 168.857 545.76V545.92C168.857 547.66 169.357 548.98 170.177 549.86C170.997 550.76 172.117 551.22 173.397 551.22ZM174.257 548.96C172.817 548.96 171.817 547.94 171.817 545.86V545.7C171.817 543.62 172.717 542.52 174.337 542.52C175.937 542.52 176.837 543.58 176.837 545.66V545.82C176.837 547.96 175.777 548.96 174.257 548.96ZM15.56 574.94L13.72 579.56H16.52L22.18 565.54H19.4L17.06 571.82L14.52 565.54H11.4L15.56 574.94ZM27.9542 574.02C26.2942 574.02 25.3942 572.82 25.3942 570.82V570.66C25.3942 568.66 26.3542 567.5 27.9542 567.5C29.5742 567.5 30.5142 568.7 30.5142 570.7V570.84C30.5142 572.84 29.5742 574.02 27.9542 574.02ZM27.9342 576.22C29.5142 576.22 30.8942 575.7 31.8742 574.76C32.8542 573.82 33.4542 572.48 33.4542 570.82V570.66C33.4542 569.04 32.8542 567.7 31.8942 566.76C30.9142 565.82 29.5342 565.3 27.9542 565.3C26.3742 565.3 24.9942 565.84 24.0142 566.78C23.0342 567.72 22.4342 569.1 22.4342 570.72V570.88C22.4342 572.5 23.0342 573.86 24.0142 574.76C24.9942 575.7 26.3542 576.22 27.9342 576.22ZM38.7128 576.22C40.4528 576.22 41.4928 575.42 42.0328 574.36V576H44.9128V565.54H42.0328V571.68C42.0328 573.22 41.0728 573.98 39.8528 573.98C38.6528 573.98 38.0328 573.26 38.0328 571.88V565.54H35.1528V572.28C35.1528 573.64 35.5328 574.64 36.1728 575.28C36.8128 575.92 37.6928 576.22 38.7128 576.22ZM47.3133 565.54V576H50.2133V569.96C50.2133 568.42 51.1333 567.66 52.3933 567.66C53.6733 567.66 54.2333 568.32 54.2333 569.76V576H57.1333V569.34C57.1333 567.96 56.7733 566.92 56.1533 566.26C55.5133 565.62 54.6533 565.3 53.6133 565.3C51.8533 565.3 50.7533 566.16 50.2133 567.2V565.54H47.3133ZM64.0923 579.86C67.5523 579.86 69.5923 578.3 69.6123 575.18V565.54H66.7323V567.1C66.1123 566.04 65.1123 565.3 63.4123 565.3C62.1123 565.3 60.9523 565.84 60.1323 566.72C59.3123 567.62 58.8123 568.9 58.8123 570.4V570.54C58.8123 572.08 59.3323 573.34 60.1523 574.2C60.9523 575.06 62.0923 575.54 63.3723 575.54C64.1523 575.54 64.8323 575.32 65.4123 574.94C65.9923 574.6 66.4323 574.1 66.7323 573.6V575.18C66.7323 576.84 65.8523 577.74 64.0923 577.74C62.5923 577.74 61.9523 577.16 61.7723 576.22H58.8923C59.0323 577.32 59.4723 578.22 60.3323 578.86C61.1523 579.5 62.4123 579.86 64.0923 579.86ZM64.2323 573.36C62.7923 573.36 61.7723 572.3 61.7723 570.54V570.38C61.7723 568.64 62.6723 567.5 64.2923 567.5C65.8923 567.5 66.8123 568.58 66.8123 570.36V570.5C66.8123 572.28 65.7523 573.36 64.2323 573.36ZM76.5347 567.6V576H79.4147V567.6H81.6947V565.54H79.4147V564.26C79.4147 563.46 79.7747 562.88 80.7147 562.88C81.1347 562.88 81.4747 562.96 81.7747 563.06V560.88C81.3147 560.74 80.8947 560.68 80.2747 560.68C77.9347 560.68 76.5347 561.88 76.5347 564.34V565.54H75.1547V567.6H76.5347ZM85.9356 576.22C87.5956 576.22 88.4756 575.6 89.0956 574.74V576H91.9156V569.18C91.9156 567.76 91.4756 566.8 90.6956 566.18C89.8956 565.56 88.8156 565.3 87.5356 565.3C86.2556 565.3 85.1156 565.58 84.2956 566.16C83.4756 566.74 82.9156 567.66 82.8356 568.88H85.5756C85.7156 567.98 86.2156 567.4 87.3556 567.4C88.6956 567.4 89.0556 568.06 89.0556 569.32V569.74H87.8756C86.2756 569.74 84.9156 569.96 83.9556 570.5C82.9956 571.04 82.4356 571.88 82.4356 573.1C82.4356 574.2 82.8356 574.98 83.4756 575.48C84.1156 575.98 84.9756 576.22 85.9356 576.22ZM86.7956 574.2C85.7356 574.2 85.2756 573.72 85.2756 572.94C85.2756 571.82 86.2556 571.46 87.9356 571.46H89.0556V572.34C89.0556 573.52 88.0756 574.2 86.7956 574.2ZM94.2391 565.54V576H97.1391V569.82C97.1391 568.38 98.0391 567.68 99.1591 567.68C100.179 567.68 100.799 568.26 100.799 569.62V576H103.679V569.82C103.679 568.38 104.579 567.68 105.699 567.68C106.739 567.68 107.339 568.26 107.339 569.62V576H110.219V569.3C110.219 567.92 109.859 566.9 109.239 566.24C108.599 565.6 107.739 565.3 106.779 565.3C105.439 565.3 104.119 565.84 103.259 567.12C102.759 565.86 101.719 565.3 100.339 565.3C98.7591 565.3 97.6791 566.16 97.1391 567.14V565.54H94.2391ZM114.03 564.12C114.97 564.12 115.69 563.44 115.69 562.54C115.69 561.64 114.97 560.96 114.03 560.96C113.09 560.96 112.39 561.64 112.39 562.54C112.39 563.44 113.09 564.12 114.03 564.12ZM112.61 565.54V576H115.49V565.54H112.61ZM118.07 560.8V576H120.95V560.8H118.07ZM124.93 564.12C125.87 564.12 126.59 563.44 126.59 562.54C126.59 561.64 125.87 560.96 124.93 560.96C123.99 560.96 123.29 561.64 123.29 562.54C123.29 563.44 123.99 564.12 124.93 564.12ZM123.51 565.54V576H126.39V565.54H123.51ZM133.709 576.22C136.589 576.22 138.369 574.96 138.709 572.7H135.969C135.789 573.58 135.149 574.16 133.789 574.16C132.189 574.16 131.269 573.18 131.189 571.42H138.729V570.62C138.729 568.76 138.129 567.42 137.189 566.56C136.249 565.7 134.989 565.3 133.629 565.3C132.109 565.3 130.769 565.84 129.809 566.78C128.829 567.74 128.249 569.08 128.249 570.74V570.9C128.249 572.58 128.829 573.9 129.809 574.8C130.769 575.74 132.129 576.22 133.709 576.22ZM135.909 569.64H131.229C131.449 568.14 132.329 567.3 133.629 567.3C135.009 567.3 135.809 568.04 135.909 569.64ZM144.359 576.22C147.139 576.22 148.759 575.04 148.759 572.78C148.759 571.66 148.379 570.94 147.719 570.44C147.019 569.96 145.999 569.68 144.699 569.5C143.179 569.28 142.679 569.02 142.679 568.36C142.679 567.72 143.219 567.28 144.159 567.28C145.179 567.28 145.639 567.68 145.799 568.54H148.459C148.319 567.34 147.819 566.52 147.079 566.02C146.299 565.52 145.279 565.3 144.139 565.3C143.079 565.3 142.019 565.56 141.279 566.1C140.499 566.66 139.999 567.46 139.999 568.56C139.999 569.58 140.259 570.3 140.899 570.8C141.519 571.3 142.479 571.6 143.859 571.82C145.379 572.04 145.979 572.34 145.979 573.06C145.979 573.78 145.459 574.2 144.339 574.2C143.059 574.2 142.639 573.66 142.499 572.72H139.799C139.899 574.98 141.539 576.22 144.359 576.22Z" fill="#191B1D"/>
<path d="M312.66 536.7V551H315.9V545.46H320.6V543.02H315.9V539.24H321.84V536.7H312.66ZM326.011 551.22C327.671 551.22 328.551 550.6 329.171 549.74V551H331.991V544.18C331.991 542.76 331.551 541.8 330.771 541.18C329.971 540.56 328.891 540.3 327.611 540.3C326.331 540.3 325.191 540.58 324.371 541.16C323.551 541.74 322.991 542.66 322.911 543.88H325.651C325.791 542.98 326.291 542.4 327.431 542.4C328.771 542.4 329.131 543.06 329.131 544.32V544.74H327.951C326.351 544.74 324.991 544.96 324.031 545.5C323.071 546.04 322.511 546.88 322.511 548.1C322.511 549.2 322.911 549.98 323.551 550.48C324.191 550.98 325.051 551.22 326.011 551.22ZM326.871 549.2C325.811 549.2 325.351 548.72 325.351 547.94C325.351 546.82 326.331 546.46 328.011 546.46H329.131V547.34C329.131 548.52 328.151 549.2 326.871 549.2ZM334.315 540.54V551H337.215V544.82C337.215 543.38 338.115 542.68 339.235 542.68C340.255 542.68 340.875 543.26 340.875 544.62V551H343.755V544.82C343.755 543.38 344.655 542.68 345.775 542.68C346.815 542.68 347.415 543.26 347.415 544.62V551H350.295V544.3C350.295 542.92 349.935 541.9 349.315 541.24C348.675 540.6 347.815 540.3 346.855 540.3C345.515 540.3 344.195 540.84 343.335 542.12C342.835 540.86 341.795 540.3 340.415 540.3C338.835 540.3 337.755 541.16 337.215 542.14V540.54H334.315ZM354.106 539.12C355.046 539.12 355.766 538.44 355.766 537.54C355.766 536.64 355.046 535.96 354.106 535.96C353.166 535.96 352.466 536.64 352.466 537.54C352.466 538.44 353.166 539.12 354.106 539.12ZM352.686 540.54V551H355.566V540.54H352.686ZM358.146 535.8V551H361.026V535.8H358.146ZM365.005 539.12C365.945 539.12 366.665 538.44 366.665 537.54C366.665 536.64 365.945 535.96 365.005 535.96C364.065 535.96 363.365 536.64 363.365 537.54C363.365 538.44 364.065 539.12 365.005 539.12ZM363.585 540.54V551H366.465V540.54H363.585ZM373.785 551.22C376.665 551.22 378.445 549.96 378.785 547.7H376.045C375.865 548.58 375.225 549.16 373.865 549.16C372.265 549.16 371.345 548.18 371.265 546.42H378.805V545.62C378.805 543.76 378.205 542.42 377.265 541.56C376.325 540.7 375.065 540.3 373.705 540.3C372.185 540.3 370.845 540.84 369.885 541.78C368.905 542.74 368.325 544.08 368.325 545.74V545.9C368.325 547.58 368.905 548.9 369.885 549.8C370.845 550.74 372.205 551.22 373.785 551.22ZM375.985 544.64H371.305C371.525 543.14 372.405 542.3 373.705 542.3C375.085 542.3 375.885 543.04 375.985 544.64ZM384.435 551.22C387.215 551.22 388.835 550.04 388.835 547.78C388.835 546.66 388.455 545.94 387.795 545.44C387.095 544.96 386.075 544.68 384.775 544.5C383.255 544.28 382.755 544.02 382.755 543.36C382.755 542.72 383.295 542.28 384.235 542.28C385.255 542.28 385.715 542.68 385.875 543.54H388.535C388.395 542.34 387.895 541.52 387.155 541.02C386.375 540.52 385.355 540.3 384.215 540.3C383.155 540.3 382.095 540.56 381.355 541.1C380.575 541.66 380.075 542.46 380.075 543.56C380.075 544.58 380.335 545.3 380.975 545.8C381.595 546.3 382.555 546.6 383.935 546.82C385.455 547.04 386.055 547.34 386.055 548.06C386.055 548.78 385.535 549.2 384.415 549.2C383.135 549.2 382.715 548.66 382.575 547.72H379.875C379.975 549.98 381.615 551.22 384.435 551.22ZM393.582 540.54L396.762 551H399.642L401.562 544.44L403.342 551H406.182L409.482 540.54H406.702L404.722 547.58L402.882 540.54H400.502L398.482 547.58L396.622 540.54H393.582ZM412.4 539.12C413.34 539.12 414.06 538.44 414.06 537.54C414.06 536.64 413.34 535.96 412.4 535.96C411.46 535.96 410.76 536.64 410.76 537.54C410.76 538.44 411.46 539.12 412.4 539.12ZM410.98 540.54V551H413.86V540.54H410.98ZM420.179 551.2C420.959 551.2 421.539 551.06 421.939 550.92V548.68C421.619 548.82 421.259 548.88 420.839 548.88C420.059 548.88 419.679 548.46 419.679 547.64V542.6H421.879V540.54H419.679V538.28H416.799V540.54H415.459V542.6H416.799V547.9C416.799 550.08 417.959 551.2 420.179 551.2ZM423.733 535.8V551H426.633V544.96C426.633 543.42 427.553 542.66 428.813 542.66C430.093 542.66 430.653 543.32 430.653 544.76V551H433.553V544.34C433.553 542.96 433.193 541.92 432.573 541.26C431.933 540.62 431.073 540.3 430.033 540.3C428.273 540.3 427.173 541.16 426.633 542.2V535.8H423.733ZM316.2 576.22C318.98 576.22 320.6 575.04 320.6 572.78C320.6 571.66 320.22 570.94 319.56 570.44C318.86 569.96 317.84 569.68 316.54 569.5C315.02 569.28 314.52 569.02 314.52 568.36C314.52 567.72 315.06 567.28 316 567.28C317.02 567.28 317.48 567.68 317.64 568.54H320.3C320.16 567.34 319.66 566.52 318.92 566.02C318.14 565.52 317.12 565.3 315.98 565.3C314.92 565.3 313.86 565.56 313.12 566.1C312.34 566.66 311.84 567.46 311.84 568.56C311.84 569.58 312.1 570.3 312.74 570.8C313.36 571.3 314.32 571.6 315.7 571.82C317.22 572.04 317.82 572.34 317.82 573.06C317.82 573.78 317.3 574.2 316.18 574.2C314.9 574.2 314.48 573.66 314.34 572.72H311.64C311.74 574.98 313.38 576.22 316.2 576.22ZM322.273 565.54V576H325.173V569.82C325.173 568.38 326.073 567.68 327.193 567.68C328.213 567.68 328.833 568.26 328.833 569.62V576H331.713V569.82C331.713 568.38 332.613 567.68 333.733 567.68C334.773 567.68 335.373 568.26 335.373 569.62V576H338.253V569.3C338.253 567.92 337.893 566.9 337.273 566.24C336.633 565.6 335.773 565.3 334.813 565.3C333.473 565.3 332.153 565.84 331.293 567.12C330.793 565.86 329.753 565.3 328.373 565.3C326.793 565.3 325.713 566.16 325.173 567.14V565.54H322.273ZM343.385 576.22C345.045 576.22 345.925 575.6 346.545 574.74V576H349.365V569.18C349.365 567.76 348.925 566.8 348.145 566.18C347.345 565.56 346.265 565.3 344.985 565.3C343.705 565.3 342.565 565.58 341.745 566.16C340.925 566.74 340.365 567.66 340.285 568.88H343.025C343.165 567.98 343.665 567.4 344.805 567.4C346.145 567.4 346.505 568.06 346.505 569.32V569.74H345.325C343.725 569.74 342.365 569.96 341.405 570.5C340.445 571.04 339.885 571.88 339.885 573.1C339.885 574.2 340.285 574.98 340.925 575.48C341.565 575.98 342.425 576.22 343.385 576.22ZM344.245 574.2C343.185 574.2 342.725 573.72 342.725 572.94C342.725 571.82 343.705 571.46 345.385 571.46H346.505V572.34C346.505 573.52 345.525 574.2 344.245 574.2ZM351.768 560.8V576H354.648V560.8H351.768ZM357.208 560.8V576H360.088V560.8H357.208ZM371.342 576.22C372.862 576.22 374.062 575.78 374.922 575.04C375.782 574.32 376.262 573.28 376.342 572.02H373.722C373.582 573.38 372.662 574.04 371.482 574.04C369.862 574.04 368.922 572.96 368.922 570.86V570.7C368.922 568.7 369.902 567.58 371.422 567.58C372.642 567.58 373.362 568.16 373.542 569.36H376.282C376.142 567.86 375.522 566.84 374.642 566.2C373.742 565.56 372.562 565.3 371.362 565.3C369.862 565.3 368.522 565.8 367.542 566.74C366.562 567.7 365.962 569.06 365.962 570.74V570.9C365.962 572.6 366.542 573.94 367.502 574.84C368.462 575.74 369.822 576.22 371.342 576.22ZM377.998 560.8V576H380.898V569.96C380.898 568.42 381.818 567.66 383.078 567.66C384.358 567.66 384.918 568.32 384.918 569.76V576H387.818V569.34C387.818 567.96 387.458 566.92 386.838 566.26C386.198 565.62 385.338 565.3 384.298 565.3C382.538 565.3 381.438 566.16 380.898 567.2V560.8H377.998ZM391.638 564.12C392.578 564.12 393.298 563.44 393.298 562.54C393.298 561.64 392.578 560.96 391.638 560.96C390.698 560.96 389.998 561.64 389.998 562.54C389.998 563.44 390.698 564.12 391.638 564.12ZM390.218 565.54V576H393.098V565.54H390.218ZM395.677 560.8V576H398.557V560.8H395.677ZM404.957 576.22C406.497 576.22 407.777 575.32 408.317 574.26V576H411.197V560.8H408.317V567.1C407.737 566.04 406.697 565.3 405.017 565.3C403.717 565.3 402.557 565.8 401.737 566.74C400.917 567.68 400.417 569.06 400.417 570.76V570.92C400.417 572.66 400.917 573.98 401.737 574.86C402.557 575.76 403.677 576.22 404.957 576.22ZM405.817 573.96C404.377 573.96 403.377 572.94 403.377 570.86V570.7C403.377 568.62 404.277 567.52 405.897 567.52C407.497 567.52 408.397 568.58 408.397 570.66V570.82C408.397 572.96 407.337 573.96 405.817 573.96ZM413.625 565.54V576H416.525V570.76C416.525 568.76 417.745 568.06 419.905 568.08V565.38C418.205 565.4 417.185 566.12 416.525 567.54V565.54H413.625ZM426.268 576.22C429.148 576.22 430.928 574.96 431.268 572.7H428.528C428.348 573.58 427.708 574.16 426.348 574.16C424.748 574.16 423.828 573.18 423.748 571.42H431.288V570.62C431.288 568.76 430.688 567.42 429.748 566.56C428.808 565.7 427.548 565.3 426.188 565.3C424.668 565.3 423.328 565.84 422.368 566.78C421.388 567.74 420.808 569.08 420.808 570.74V570.9C420.808 572.58 421.388 573.9 422.368 574.8C423.328 575.74 424.688 576.22 426.268 576.22ZM428.468 569.64H423.788C424.008 568.14 424.888 567.3 426.188 567.3C427.568 567.3 428.368 568.04 428.468 569.64ZM433.02 565.54V576H435.92V569.96C435.92 568.42 436.84 567.66 438.1 567.66C439.38 567.66 439.94 568.32 439.94 569.76V576H442.84V569.34C442.84 567.96 442.48 566.92 441.86 566.26C441.22 565.62 440.36 565.3 439.32 565.3C437.56 565.3 436.46 566.16 435.92 567.2V565.54H433.02Z" fill="#191B1D"/>
<path d="M612.66 536.7V551H615.56V540.96L619.54 551H620.6L624.56 540.96V551H627.78V536.7H623.58L620.28 545.6L616.94 536.7H612.66ZM633.179 551.22C634.839 551.22 635.719 550.6 636.339 549.74V551H639.159V544.18C639.159 542.76 638.719 541.8 637.939 541.18C637.139 540.56 636.059 540.3 634.779 540.3C633.499 540.3 632.359 540.58 631.539 541.16C630.719 541.74 630.159 542.66 630.079 543.88H632.819C632.959 542.98 633.459 542.4 634.599 542.4C635.939 542.4 636.299 543.06 636.299 544.32V544.74H635.119C633.519 544.74 632.159 544.96 631.199 545.5C630.239 546.04 629.679 546.88 629.679 548.1C629.679 549.2 630.079 549.98 630.719 550.48C631.359 550.98 632.219 551.22 633.179 551.22ZM634.039 549.2C632.979 549.2 632.519 548.72 632.519 547.94C632.519 546.82 633.499 546.46 635.179 546.46H636.299V547.34C636.299 548.52 635.319 549.2 634.039 549.2ZM645.303 551.2C646.083 551.2 646.663 551.06 647.063 550.92V548.68C646.743 548.82 646.383 548.88 645.963 548.88C645.183 548.88 644.803 548.46 644.803 547.64V542.6H647.003V540.54H644.803V538.28H641.923V540.54H640.583V542.6H641.923V547.9C641.923 550.08 643.083 551.2 645.303 551.2ZM652.336 551.22C654.076 551.22 655.116 550.42 655.656 549.36V551H658.536V540.54H655.656V546.68C655.656 548.22 654.696 548.98 653.476 548.98C652.276 548.98 651.656 548.26 651.656 546.88V540.54H648.776V547.28C648.776 548.64 649.156 549.64 649.796 550.28C650.436 550.92 651.316 551.22 652.336 551.22ZM660.937 540.54V551H663.837V545.76C663.837 543.76 665.057 543.06 667.217 543.08V540.38C665.517 540.4 664.497 541.12 663.837 542.54V540.54H660.937ZM673.579 551.22C676.459 551.22 678.239 549.96 678.579 547.7H675.839C675.659 548.58 675.019 549.16 673.659 549.16C672.059 549.16 671.139 548.18 671.059 546.42H678.599V545.62C678.599 543.76 677.999 542.42 677.059 541.56C676.119 540.7 674.859 540.3 673.499 540.3C671.979 540.3 670.639 540.84 669.679 541.78C668.699 542.74 668.119 544.08 668.119 545.74V545.9C668.119 547.58 668.699 548.9 669.679 549.8C670.639 550.74 671.999 551.22 673.579 551.22ZM675.779 544.64H671.099C671.319 543.14 672.199 542.3 673.499 542.3C674.879 542.3 675.679 543.04 675.779 544.64ZM684.846 542.6V551H687.726V542.6H690.006V540.54H687.726V539.26C687.726 538.46 688.086 537.88 689.026 537.88C689.446 537.88 689.786 537.96 690.086 538.06V535.88C689.626 535.74 689.206 535.68 688.586 535.68C686.246 535.68 684.846 536.88 684.846 539.34V540.54H683.466V542.6H684.846ZM694.247 551.22C695.907 551.22 696.787 550.6 697.407 549.74V551H700.227V544.18C700.227 542.76 699.787 541.8 699.007 541.18C698.207 540.56 697.127 540.3 695.847 540.3C694.567 540.3 693.427 540.58 692.607 541.16C691.787 541.74 691.227 542.66 691.147 543.88H693.887C694.027 542.98 694.527 542.4 695.667 542.4C697.007 542.4 697.367 543.06 697.367 544.32V544.74H696.187C694.587 544.74 693.227 544.96 692.267 545.5C691.307 546.04 690.747 546.88 690.747 548.1C690.747 549.2 691.147 549.98 691.787 550.48C692.427 550.98 693.287 551.22 694.247 551.22ZM695.107 549.2C694.047 549.2 693.587 548.72 693.587 547.94C693.587 546.82 694.567 546.46 696.247 546.46H697.367V547.34C697.367 548.52 696.387 549.2 695.107 549.2ZM702.55 540.54V551H705.45V544.82C705.45 543.38 706.35 542.68 707.47 542.68C708.49 542.68 709.11 543.26 709.11 544.62V551H711.99V544.82C711.99 543.38 712.89 542.68 714.01 542.68C715.05 542.68 715.65 543.26 715.65 544.62V551H718.53V544.3C718.53 542.92 718.17 541.9 717.55 541.24C716.91 540.6 716.05 540.3 715.09 540.3C713.75 540.3 712.43 540.84 711.57 542.12C711.07 540.86 710.03 540.3 708.65 540.3C707.07 540.3 705.99 541.16 705.45 542.14V540.54H702.55ZM722.341 539.12C723.281 539.12 724.001 538.44 724.001 537.54C724.001 536.64 723.281 535.96 722.341 535.96C721.401 535.96 720.701 536.64 720.701 537.54C720.701 538.44 721.401 539.12 722.341 539.12ZM720.921 540.54V551H723.801V540.54H720.921ZM726.381 535.8V551H729.261V535.8H726.381ZM733.241 539.12C734.181 539.12 734.901 538.44 734.901 537.54C734.901 536.64 734.181 535.96 733.241 535.96C732.301 535.96 731.601 536.64 731.601 537.54C731.601 538.44 732.301 539.12 733.241 539.12ZM731.821 540.54V551H734.701V540.54H731.821ZM742.02 551.22C744.9 551.22 746.68 549.96 747.02 547.7H744.28C744.1 548.58 743.46 549.16 742.1 549.16C740.5 549.16 739.58 548.18 739.5 546.42H747.04V545.62C747.04 543.76 746.44 542.42 745.5 541.56C744.56 540.7 743.3 540.3 741.94 540.3C740.42 540.3 739.08 540.84 738.12 541.78C737.14 542.74 736.56 544.08 736.56 545.74V545.9C736.56 547.58 737.14 548.9 738.12 549.8C739.08 550.74 740.44 551.22 742.02 551.22ZM744.22 544.64H739.54C739.76 543.14 740.64 542.3 741.94 542.3C743.32 542.3 744.12 543.04 744.22 544.64ZM752.67 551.22C755.45 551.22 757.07 550.04 757.07 547.78C757.07 546.66 756.69 545.94 756.03 545.44C755.33 544.96 754.31 544.68 753.01 544.5C751.49 544.28 750.99 544.02 750.99 543.36C750.99 542.72 751.53 542.28 752.47 542.28C753.49 542.28 753.95 542.68 754.11 543.54H756.77C756.63 542.34 756.13 541.52 755.39 541.02C754.61 540.52 753.59 540.3 752.45 540.3C751.39 540.3 750.33 540.56 749.59 541.1C748.81 541.66 748.31 542.46 748.31 543.56C748.31 544.58 748.57 545.3 749.21 545.8C749.83 546.3 750.79 546.6 752.17 546.82C753.69 547.04 754.29 547.34 754.29 548.06C754.29 548.78 753.77 549.2 752.65 549.2C751.37 549.2 750.95 548.66 750.81 547.72H748.11C748.21 549.98 749.85 551.22 752.67 551.22ZM615.22 576.22C616.88 576.22 617.76 575.6 618.38 574.74V576H621.2V569.18C621.2 567.76 620.76 566.8 619.98 566.18C619.18 565.56 618.1 565.3 616.82 565.3C615.54 565.3 614.4 565.58 613.58 566.16C612.76 566.74 612.2 567.66 612.12 568.88H614.86C615 567.98 615.5 567.4 616.64 567.4C617.98 567.4 618.34 568.06 618.34 569.32V569.74H617.16C615.56 569.74 614.2 569.96 613.24 570.5C612.28 571.04 611.72 571.88 611.72 573.1C611.72 574.2 612.12 574.98 612.76 575.48C613.4 575.98 614.26 576.22 615.22 576.22ZM616.08 574.2C615.02 574.2 614.56 573.72 614.56 572.94C614.56 571.82 615.54 571.46 617.22 571.46H618.34V572.34C618.34 573.52 617.36 574.2 616.08 574.2ZM623.523 565.54V576H626.423V569.96C626.423 568.42 627.343 567.66 628.603 567.66C629.883 567.66 630.443 568.32 630.443 569.76V576H633.343V569.34C633.343 567.96 632.983 566.92 632.363 566.26C631.723 565.62 630.863 565.3 629.823 565.3C628.063 565.3 626.963 566.16 626.423 567.2V565.54H623.523ZM639.583 576.22C641.123 576.22 642.403 575.32 642.943 574.26V576H645.823V560.8H642.943V567.1C642.363 566.04 641.323 565.3 639.643 565.3C638.343 565.3 637.183 565.8 636.363 566.74C635.543 567.68 635.043 569.06 635.043 570.76V570.92C635.043 572.66 635.543 573.98 636.363 574.86C637.183 575.76 638.303 576.22 639.583 576.22ZM640.443 573.96C639.003 573.96 638.003 572.94 638.003 570.86V570.7C638.003 568.62 638.903 567.52 640.523 567.52C642.123 567.52 643.023 568.58 643.023 570.66V570.82C643.023 572.96 641.963 573.96 640.443 573.96ZM657.164 574.02C655.504 574.02 654.604 572.82 654.604 570.82V570.66C654.604 568.66 655.564 567.5 657.164 567.5C658.784 567.5 659.724 568.7 659.724 570.7V570.84C659.724 572.84 658.784 574.02 657.164 574.02ZM657.144 576.22C658.724 576.22 660.104 575.7 661.084 574.76C662.064 573.82 662.664 572.48 662.664 570.82V570.66C662.664 569.04 662.064 567.7 661.104 566.76C660.124 565.82 658.744 565.3 657.164 565.3C655.584 565.3 654.204 565.84 653.224 566.78C652.244 567.72 651.644 569.1 651.644 570.72V570.88C651.644 572.5 652.244 573.86 653.224 574.76C654.204 575.7 655.564 576.22 657.144 576.22ZM664.523 560.8V576H667.403V560.8H664.523ZM673.803 576.22C675.343 576.22 676.623 575.32 677.163 574.26V576H680.043V560.8H677.163V567.1C676.583 566.04 675.543 565.3 673.863 565.3C672.563 565.3 671.403 565.8 670.583 566.74C669.763 567.68 669.263 569.06 669.263 570.76V570.92C669.263 572.66 669.763 573.98 670.583 574.86C671.403 575.76 672.523 576.22 673.803 576.22ZM674.663 573.96C673.223 573.96 672.223 572.94 672.223 570.86V570.7C672.223 568.62 673.123 567.52 674.743 567.52C676.343 567.52 677.243 568.58 677.243 570.66V570.82C677.243 572.96 676.183 573.96 674.663 573.96ZM687.291 576.22C690.171 576.22 691.951 574.96 692.291 572.7H689.551C689.371 573.58 688.731 574.16 687.371 574.16C685.771 574.16 684.851 573.18 684.771 571.42H692.311V570.62C692.311 568.76 691.711 567.42 690.771 566.56C689.831 565.7 688.571 565.3 687.211 565.3C685.691 565.3 684.351 565.84 683.391 566.78C682.411 567.74 681.831 569.08 681.831 570.74V570.9C681.831 572.58 682.411 573.9 683.391 574.8C684.351 575.74 685.711 576.22 687.291 576.22ZM689.491 569.64H684.811C685.031 568.14 685.911 567.3 687.211 567.3C688.591 567.3 689.391 568.04 689.491 569.64ZM694.044 565.54V576H696.944V570.76C696.944 568.76 698.164 568.06 700.324 568.08V565.38C698.624 565.4 697.604 566.12 696.944 567.54V565.54H694.044ZM706.095 565.54V579.56H708.995V574.4C709.535 575.42 710.715 576.22 712.335 576.22C713.635 576.22 714.775 575.74 715.595 574.8C716.395 573.9 716.895 572.56 716.895 570.82V570.66C716.895 568.92 716.395 567.58 715.575 566.68C714.755 565.78 713.615 565.3 712.335 565.3C710.795 565.3 709.575 566.16 708.995 567.18V565.54H706.095ZM711.475 573.96C709.875 573.96 708.895 572.94 708.895 570.84V570.68C708.895 568.58 709.935 567.52 711.455 567.52C712.915 567.52 713.955 568.54 713.955 570.68V570.84C713.955 572.9 713.075 573.96 711.475 573.96ZM723.504 576.22C726.384 576.22 728.164 574.96 728.504 572.7H725.764C725.584 573.58 724.944 574.16 723.584 574.16C721.984 574.16 721.064 573.18 720.984 571.42H728.524V570.62C728.524 568.76 727.924 567.42 726.984 566.56C726.044 565.7 724.784 565.3 723.424 565.3C721.904 565.3 720.564 565.84 719.604 566.78C718.624 567.74 718.044 569.08 718.044 570.74V570.9C718.044 572.58 718.624 573.9 719.604 574.8C720.564 575.74 721.924 576.22 723.504 576.22ZM725.704 569.64H721.024C721.244 568.14 722.124 567.3 723.424 567.3C724.804 567.3 725.604 568.04 725.704 569.64ZM735.136 574.02C733.476 574.02 732.576 572.82 732.576 570.82V570.66C732.576 568.66 733.536 567.5 735.136 567.5C736.756 567.5 737.696 568.7 737.696 570.7V570.84C737.696 572.84 736.756 574.02 735.136 574.02ZM735.116 576.22C736.696 576.22 738.076 575.7 739.056 574.76C740.036 573.82 740.636 572.48 740.636 570.82V570.66C740.636 569.04 740.036 567.7 739.076 566.76C738.096 565.82 736.716 565.3 735.136 565.3C733.556 565.3 732.176 565.84 731.196 566.78C730.216 567.72 729.616 569.1 729.616 570.72V570.88C729.616 572.5 730.216 573.86 731.196 574.76C732.176 575.7 733.536 576.22 735.116 576.22ZM742.415 565.54V579.56H745.315V574.4C745.855 575.42 747.035 576.22 748.655 576.22C749.955 576.22 751.095 575.74 751.915 574.8C752.715 573.9 753.215 572.56 753.215 570.82V570.66C753.215 568.92 752.715 567.58 751.895 566.68C751.075 565.78 749.935 565.3 748.655 565.3C747.115 565.3 745.895 566.16 745.315 567.18V565.54H742.415ZM747.795 573.96C746.195 573.96 745.215 572.94 745.215 570.84V570.68C745.215 568.58 746.255 567.52 747.775 567.52C749.235 567.52 750.275 568.54 750.275 570.68V570.84C750.275 572.9 749.395 573.96 747.795 573.96ZM755.083 560.8V576H757.963V560.8H755.083ZM765.263 576.22C768.143 576.22 769.923 574.96 770.263 572.7H767.523C767.343 573.58 766.703 574.16 765.343 574.16C763.743 574.16 762.823 573.18 762.743 571.42H770.283V570.62C770.283 568.76 769.683 567.42 768.743 566.56C767.803 565.7 766.543 565.3 765.183 565.3C763.663 565.3 762.323 565.84 761.363 566.78C760.383 567.74 759.803 569.08 759.803 570.74V570.9C759.803 572.58 760.383 573.9 761.363 574.8C762.323 575.74 763.683 576.22 765.263 576.22ZM767.463 569.64H762.783C763.003 568.14 763.883 567.3 765.183 567.3C766.563 567.3 767.363 568.04 767.463 569.64Z" fill="#191B1D"/>
<path d="M770.652 471.144C773.212 471.144 775.036 469.848 775.436 467.208H774.14C773.836 469.08 772.556 470.008 770.684 470.008C768.22 470.008 766.748 468.248 766.748 465.336V465.208C766.748 462.328 768.332 460.488 770.7 460.488C772.668 460.488 773.644 461.384 773.948 463.128H775.324C775.068 460.648 773.068 459.384 770.684 459.384C767.564 459.384 765.308 461.832 765.308 465.224V465.352C765.308 468.872 767.34 471.144 770.652 471.144ZM780.815 470.04C779.103 470.04 778.079 468.808 778.079 466.888V466.76C778.079 464.84 779.135 463.592 780.815 463.592C782.479 463.592 783.551 464.84 783.551 466.776V466.888C783.551 468.776 782.495 470.04 780.815 470.04ZM780.799 471.144C783.167 471.144 784.927 469.4 784.927 466.872V466.744C784.927 464.232 783.183 462.488 780.815 462.488C778.447 462.488 776.703 464.248 776.703 466.76V466.888C776.703 469.336 778.415 471.144 780.799 471.144ZM786.867 462.632V471H788.195V465.928C788.195 464.424 789.299 463.64 790.531 463.64C791.875 463.64 792.499 464.296 792.499 465.768V471H793.827V465.864C793.827 463.432 792.611 462.488 790.883 462.488C789.491 462.488 788.579 463.176 788.195 463.96V462.632H786.867ZM798.904 471.144C800.952 471.144 801.976 470.136 801.976 468.6C801.976 466.808 800.76 466.472 799.032 466.12C797.496 465.864 797.08 465.528 797.08 464.792C797.08 464.072 797.704 463.592 798.664 463.592C799.736 463.592 800.232 463.992 800.424 464.904H801.704C801.496 463.096 800.168 462.488 798.68 462.488C797.352 462.488 795.848 463.304 795.848 464.84C795.848 466.296 796.584 466.92 798.76 467.304C800.056 467.544 800.712 467.832 800.712 468.712C800.712 469.608 800.168 470.04 798.888 470.04C797.544 470.04 797.032 469.432 796.92 468.424H795.624C795.704 470.152 796.904 471.144 798.904 471.144ZM807.291 471.144C809.195 471.144 810.555 470.264 810.859 468.584H809.531C809.355 469.56 808.619 470.04 807.307 470.04C805.579 470.04 804.683 469 804.619 467.08H810.923V466.648C810.923 463.656 809.099 462.488 807.163 462.488C804.859 462.488 803.243 464.248 803.243 466.776V466.904C803.243 469.464 804.923 471.144 807.291 471.144ZM809.563 466.008H804.667C804.907 464.52 805.803 463.592 807.163 463.592C808.555 463.592 809.435 464.28 809.563 466.008ZM812.829 462.632V471H814.157V466.408C814.157 464.344 815.229 463.816 816.909 463.736V462.488C815.405 462.536 814.669 463.192 814.157 464.136V462.632H812.829ZM817.846 462.632L820.886 471H822.582L825.59 462.632H824.214L821.766 469.656L819.286 462.632H817.846ZM829.222 471.144C830.454 471.144 831.206 470.728 831.83 469.944V471H833.158V465.48C833.158 463.128 831.702 462.488 830.102 462.488C828.486 462.488 826.966 463.176 826.79 465.096H828.118C828.246 464.088 828.886 463.592 830.038 463.592C831.318 463.592 831.83 464.136 831.83 465.48V466.088H830.63C828.486 466.088 826.438 466.76 826.438 468.68C826.438 470.392 827.67 471.144 829.222 471.144ZM829.35 470.088C828.182 470.088 827.766 469.56 827.766 468.68C827.766 467.464 828.998 467.032 830.678 467.032H831.83V468.072C831.83 469.352 830.758 470.088 829.35 470.088ZM838.178 471.112C838.738 471.112 839.042 471.048 839.314 470.936V469.816C839.01 469.928 838.722 469.992 838.29 469.992C837.602 469.992 837.25 469.592 837.25 468.776V463.752H839.202V462.632H837.25V460.728H835.922V462.632H834.722V463.752H835.922V468.904C835.922 470.232 836.642 471.112 838.178 471.112ZM841.221 462.632V471H842.549V462.632H841.221ZM841.861 460.888C842.357 460.888 842.741 460.504 842.741 460.008C842.741 459.512 842.357 459.128 841.861 459.128C841.365 459.128 840.981 459.512 840.981 460.008C840.981 460.504 841.365 460.888 841.861 460.888ZM847.727 471.144C849.775 471.144 850.799 470.136 850.799 468.6C850.799 466.808 849.583 466.472 847.855 466.12C846.319 465.864 845.903 465.528 845.903 464.792C845.903 464.072 846.527 463.592 847.487 463.592C848.559 463.592 849.055 463.992 849.247 464.904H850.527C850.319 463.096 848.991 462.488 847.503 462.488C846.175 462.488 844.671 463.304 844.671 464.84C844.671 466.296 845.407 466.92 847.583 467.304C848.879 467.544 849.535 467.832 849.535 468.712C849.535 469.608 848.991 470.04 847.711 470.04C846.367 470.04 845.855 469.432 845.743 468.424H844.447C844.527 470.152 845.727 471.144 847.727 471.144ZM852.69 462.632V471H854.018V465.88C854.018 464.376 855.138 463.64 856.226 463.64C857.378 463.64 858.002 464.248 858.002 465.72V471H859.33V465.88C859.33 464.376 860.45 463.64 861.538 463.64C862.69 463.64 863.314 464.248 863.314 465.72V471H864.642V465.816C864.642 463.384 863.314 462.488 861.826 462.488C860.818 462.488 859.522 462.984 858.962 464.056C858.53 462.92 857.602 462.488 856.514 462.488C855.298 462.488 854.402 463.128 854.018 463.912V462.632H852.69Z" fill="#191B1D"/>
<path d="M45.608 4.56L41.672 16H42.984L44.088 12.704H48.808L49.928 16H51.304L47.432 4.56H45.608ZM44.472 11.6L46.456 5.712L48.44 11.6H44.472ZM56.2765 19.056C58.5965 19.056 60.2765 17.872 60.2765 15.44V7.632H58.9485V8.976C58.4525 8.16 57.6205 7.488 56.2125 7.488C53.9085 7.488 52.3085 9.376 52.3085 11.648V11.76C52.3085 14.064 53.9245 15.728 56.1165 15.728C57.3165 15.728 58.4845 14.96 58.9485 14.144V15.36C58.9485 17.152 57.9085 17.936 56.2605 17.936C54.8365 17.936 54.0365 17.456 53.8445 16.48H52.4845C52.6925 17.888 53.7965 19.056 56.2765 19.056ZM56.2605 14.624C54.8525 14.624 53.6845 13.536 53.6845 11.712V11.584C53.6845 9.84 54.6765 8.592 56.3405 8.592C57.9885 8.592 58.9965 9.68 58.9965 11.552V11.664C58.9965 13.536 57.8125 14.624 56.2605 14.624ZM66.2553 16.144C68.1593 16.144 69.5193 15.264 69.8233 13.584H68.4953C68.3193 14.56 67.5833 15.04 66.2713 15.04C64.5433 15.04 63.6473 14 63.5833 12.08H69.8873V11.648C69.8873 8.656 68.0633 7.488 66.1273 7.488C63.8233 7.488 62.2073 9.248 62.2073 11.776V11.904C62.2073 14.464 63.8873 16.144 66.2553 16.144ZM68.5273 11.008H63.6313C63.8713 9.52 64.7673 8.592 66.1273 8.592C67.5193 8.592 68.3993 9.28 68.5273 11.008Z" fill="#191B1D"/>
<path fill-rule="evenodd" clip-rule="evenodd" d="M409.8 322.2H52.2V459.8H409.8V322.2ZM51 321V461H411V321H51Z" fill="#191B1D"/>
<path d="M86.4573 370.7V385H89.3573V374.96L93.3373 385H94.3973L98.3573 374.96V385H101.577V370.7H97.3773L94.0773 379.6L90.7373 370.7H86.4573ZM109.037 383.02C107.377 383.02 106.477 381.82 106.477 379.82V379.66C106.477 377.66 107.437 376.5 109.037 376.5C110.657 376.5 111.597 377.7 111.597 379.7V379.84C111.597 381.84 110.657 383.02 109.037 383.02ZM109.017 385.22C110.597 385.22 111.977 384.7 112.957 383.76C113.937 382.82 114.537 381.48 114.537 379.82V379.66C114.537 378.04 113.937 376.7 112.977 375.76C111.997 374.82 110.617 374.3 109.037 374.3C107.457 374.3 106.077 374.84 105.097 375.78C104.117 376.72 103.517 378.1 103.517 379.72V379.88C103.517 381.5 104.117 382.86 105.097 383.76C106.077 384.7 107.437 385.22 109.017 385.22ZM122.555 385.22C123.855 385.22 124.995 384.74 125.815 383.8C126.615 382.9 127.115 381.56 127.115 379.82V379.66C127.115 377.92 126.615 376.58 125.795 375.68C124.975 374.78 123.835 374.3 122.555 374.3C121.015 374.3 119.795 375.16 119.215 376.18V369.8H116.315V385H119.215V383.34C119.755 384.44 120.935 385.22 122.555 385.22ZM121.695 382.96C120.095 382.96 119.115 381.94 119.115 379.84V379.68C119.115 377.58 120.155 376.52 121.675 376.52C123.135 376.52 124.175 377.54 124.175 379.68V379.84C124.175 381.9 123.295 382.96 121.695 382.96ZM130.404 373.12C131.344 373.12 132.064 372.44 132.064 371.54C132.064 370.64 131.344 369.96 130.404 369.96C129.464 369.96 128.764 370.64 128.764 371.54C128.764 372.44 129.464 373.12 130.404 373.12ZM128.984 374.54V385H131.864V374.54H128.984ZM134.443 369.8V385H137.323V369.8H134.443ZM141.303 373.12C142.243 373.12 142.963 372.44 142.963 371.54C142.963 370.64 142.243 369.96 141.303 369.96C140.363 369.96 139.663 370.64 139.663 371.54C139.663 372.44 140.363 373.12 141.303 373.12ZM139.883 374.54V385H142.763V374.54H139.883ZM149.082 385.2C149.862 385.2 150.442 385.06 150.842 384.92V382.68C150.522 382.82 150.162 382.88 149.742 382.88C148.962 382.88 148.582 382.46 148.582 381.64V376.6H150.782V374.54H148.582V372.28H145.702V374.54H144.362V376.6H145.702V381.9C145.702 384.08 146.862 385.2 149.082 385.2ZM155.796 383.94L153.956 388.56H156.756L162.416 374.54H159.636L157.296 380.82L154.756 374.54H151.636L155.796 383.94ZM161.494 386.72L163.254 387.46L165.974 382.8L163.254 381.78L161.494 386.72ZM172.619 376.6V385H175.499V376.6H177.779V374.54H175.499V373.26C175.499 372.46 175.859 371.88 176.799 371.88C177.219 371.88 177.559 371.96 177.859 372.06V369.88C177.399 369.74 176.979 369.68 176.359 369.68C174.019 369.68 172.619 370.88 172.619 373.34V374.54H171.239V376.6H172.619ZM182.875 385.22C184.615 385.22 185.655 384.42 186.195 383.36V385H189.075V374.54H186.195V380.68C186.195 382.22 185.235 382.98 184.015 382.98C182.815 382.98 182.195 382.26 182.195 380.88V374.54H179.315V381.28C179.315 382.64 179.695 383.64 180.335 384.28C180.975 384.92 181.855 385.22 182.875 385.22ZM191.475 374.54V385H194.375V378.96C194.375 377.42 195.295 376.66 196.555 376.66C197.835 376.66 198.395 377.32 198.395 378.76V385H201.295V378.34C201.295 376.96 200.935 375.92 200.315 375.26C199.675 374.62 198.815 374.3 197.775 374.3C196.015 374.3 194.915 375.16 194.375 376.2V374.54H191.475ZM202.794 386.72L204.554 387.46L207.274 382.8L204.554 381.78L202.794 386.72ZM218.259 385.22C221.139 385.22 222.919 383.96 223.259 381.7H220.519C220.339 382.58 219.699 383.16 218.339 383.16C216.739 383.16 215.819 382.18 215.739 380.42H223.279V379.62C223.279 377.76 222.679 376.42 221.739 375.56C220.799 374.7 219.539 374.3 218.179 374.3C216.659 374.3 215.319 374.84 214.359 375.78C213.379 376.74 212.799 378.08 212.799 379.74V379.9C212.799 381.58 213.379 382.9 214.359 383.8C215.319 384.74 216.679 385.22 218.259 385.22ZM220.459 378.64H215.779C215.999 377.14 216.879 376.3 218.179 376.3C219.559 376.3 220.359 377.04 220.459 378.64ZM225.012 374.54V385H227.912V378.96C227.912 377.42 228.832 376.66 230.092 376.66C231.372 376.66 231.932 377.32 231.932 378.76V385H234.832V378.34C234.832 376.96 234.472 375.92 233.852 375.26C233.212 374.62 232.352 374.3 231.312 374.3C229.552 374.3 228.452 375.16 227.912 376.2V374.54H225.012ZM241.971 385.22C244.851 385.22 246.631 383.96 246.971 381.7H244.231C244.051 382.58 243.411 383.16 242.051 383.16C240.451 383.16 239.531 382.18 239.451 380.42H246.991V379.62C246.991 377.76 246.391 376.42 245.451 375.56C244.511 374.7 243.251 374.3 241.891 374.3C240.371 374.3 239.031 374.84 238.071 375.78C237.091 376.74 236.511 378.08 236.511 379.74V379.9C236.511 381.58 237.091 382.9 238.071 383.8C239.031 384.74 240.391 385.22 241.971 385.22ZM244.171 378.64H239.491C239.711 377.14 240.591 376.3 241.891 376.3C243.271 376.3 244.071 377.04 244.171 378.64ZM248.724 374.54V385H251.624V379.76C251.624 377.76 252.844 377.06 255.004 377.08V374.38C253.304 374.4 252.284 375.12 251.624 376.54V374.54H248.724ZM261.186 388.86C264.646 388.86 266.686 387.3 266.706 384.18V374.54H263.826V376.1C263.206 375.04 262.206 374.3 260.506 374.3C259.206 374.3 258.046 374.84 257.226 375.72C256.406 376.62 255.906 377.9 255.906 379.4V379.54C255.906 381.08 256.426 382.34 257.246 383.2C258.046 384.06 259.186 384.54 260.466 384.54C261.246 384.54 261.926 384.32 262.506 383.94C263.086 383.6 263.526 383.1 263.826 382.6V384.18C263.826 385.84 262.946 386.74 261.186 386.74C259.686 386.74 259.046 386.16 258.866 385.22H255.986C256.126 386.32 256.566 387.22 257.426 387.86C258.246 388.5 259.506 388.86 261.186 388.86ZM261.326 382.36C259.886 382.36 258.866 381.3 258.866 379.54V379.38C258.866 377.64 259.766 376.5 261.386 376.5C262.986 376.5 263.906 377.58 263.906 379.36V379.5C263.906 381.28 262.846 382.36 261.326 382.36ZM272.275 383.94L270.435 388.56H273.235L278.895 374.54H276.115L273.775 380.82L271.235 374.54H268.115L272.275 383.94ZM277.973 386.72L279.733 387.46L282.453 382.8L279.733 381.78L277.973 386.72ZM288.618 374.54V385H291.518V379.76C291.518 377.76 292.738 377.06 294.898 377.08V374.38C293.198 374.4 292.178 375.12 291.518 376.54V374.54H288.618ZM301.261 385.22C304.141 385.22 305.921 383.96 306.261 381.7H303.521C303.341 382.58 302.701 383.16 301.341 383.16C299.741 383.16 298.821 382.18 298.741 380.42H306.281V379.62C306.281 377.76 305.681 376.42 304.741 375.56C303.801 374.7 302.541 374.3 301.181 374.3C299.661 374.3 298.321 374.84 297.361 375.78C296.381 376.74 295.801 378.08 295.801 379.74V379.9C295.801 381.58 296.381 382.9 297.361 383.8C298.321 384.74 299.681 385.22 301.261 385.22ZM303.461 378.64H298.781C299.001 377.14 299.881 376.3 301.181 376.3C302.561 376.3 303.361 377.04 303.461 378.64ZM314.254 385.22C315.554 385.22 316.694 384.74 317.514 383.8C318.314 382.9 318.814 381.56 318.814 379.82V379.66C318.814 377.92 318.314 376.58 317.494 375.68C316.674 374.78 315.534 374.3 314.254 374.3C312.714 374.3 311.494 375.16 310.914 376.18V369.8H308.014V385H310.914V383.34C311.454 384.44 312.634 385.22 314.254 385.22ZM313.394 382.96C311.794 382.96 310.814 381.94 310.814 379.84V379.68C310.814 377.58 311.854 376.52 313.374 376.52C314.834 376.52 315.874 377.54 315.874 379.68V379.84C315.874 381.9 314.994 382.96 313.394 382.96ZM325.422 385.22C328.302 385.22 330.082 383.96 330.422 381.7H327.682C327.502 382.58 326.862 383.16 325.502 383.16C323.902 383.16 322.982 382.18 322.902 380.42H330.442V379.62C330.442 377.76 329.842 376.42 328.902 375.56C327.962 374.7 326.702 374.3 325.342 374.3C323.822 374.3 322.482 374.84 321.522 375.78C320.542 376.74 319.962 378.08 319.962 379.74V379.9C319.962 381.58 320.542 382.9 321.522 383.8C322.482 384.74 323.842 385.22 325.422 385.22ZM327.622 378.64H322.942C323.162 377.14 324.042 376.3 325.342 376.3C326.722 376.3 327.522 377.04 327.622 378.64ZM332.255 369.8V385H335.135V369.8H332.255ZM337.694 369.8V385H340.574V369.8H337.694ZM344.554 373.12C345.494 373.12 346.214 372.44 346.214 371.54C346.214 370.64 345.494 369.96 344.554 369.96C343.614 369.96 342.914 370.64 342.914 371.54C342.914 372.44 343.614 373.12 344.554 373.12ZM343.134 374.54V385H346.014V374.54H343.134ZM353.394 383.02C351.734 383.02 350.834 381.82 350.834 379.82V379.66C350.834 377.66 351.794 376.5 353.394 376.5C355.014 376.5 355.954 377.7 355.954 379.7V379.84C355.954 381.84 355.014 383.02 353.394 383.02ZM353.374 385.22C354.954 385.22 356.334 384.7 357.314 383.76C358.294 382.82 358.894 381.48 358.894 379.82V379.66C358.894 378.04 358.294 376.7 357.334 375.76C356.354 374.82 354.974 374.3 353.394 374.3C351.814 374.3 350.434 374.84 349.454 375.78C348.474 376.72 347.874 378.1 347.874 379.72V379.88C347.874 381.5 348.474 382.86 349.454 383.76C350.434 384.7 351.794 385.22 353.374 385.22ZM360.672 374.54V385H363.572V378.96C363.572 377.42 364.492 376.66 365.752 376.66C367.032 376.66 367.592 377.32 367.592 378.76V385H370.492V378.34C370.492 376.96 370.132 375.92 369.512 375.26C368.872 374.62 368.012 374.3 366.972 374.3C365.212 374.3 364.112 375.16 363.572 376.2V374.54H360.672ZM371.991 386.72L373.751 387.46L376.471 382.8L373.751 381.78L371.991 386.72ZM154.454 410.22C157.234 410.22 158.854 409.04 158.854 406.78C158.854 405.66 158.474 404.94 157.814 404.44C157.114 403.96 156.094 403.68 154.794 403.5C153.274 403.28 152.774 403.02 152.774 402.36C152.774 401.72 153.314 401.28 154.254 401.28C155.274 401.28 155.734 401.68 155.894 402.54H158.554C158.414 401.34 157.914 400.52 157.174 400.02C156.394 399.52 155.374 399.3 154.234 399.3C153.174 399.3 152.114 399.56 151.374 400.1C150.594 400.66 150.094 401.46 150.094 402.56C150.094 403.58 150.354 404.3 150.994 404.8C151.614 405.3 152.574 405.6 153.954 405.82C155.474 406.04 156.074 406.34 156.074 407.06C156.074 407.78 155.554 408.2 154.434 408.2C153.154 408.2 152.734 407.66 152.594 406.72H149.894C149.994 408.98 151.634 410.22 154.454 410.22ZM165.347 410.22C168.227 410.22 170.007 408.96 170.347 406.7H167.607C167.427 407.58 166.787 408.16 165.427 408.16C163.827 408.16 162.907 407.18 162.827 405.42H170.367V404.62C170.367 402.76 169.767 401.42 168.827 400.56C167.887 399.7 166.627 399.3 165.267 399.3C163.747 399.3 162.407 399.84 161.447 400.78C160.467 401.74 159.887 403.08 159.887 404.74V404.9C159.887 406.58 160.467 407.9 161.447 408.8C162.407 409.74 163.767 410.22 165.347 410.22ZM167.547 403.64H162.867C163.087 402.14 163.967 401.3 165.267 401.3C166.647 401.3 167.447 402.04 167.547 403.64ZM172.18 394.8V410H175.06V394.8H172.18ZM178.019 401.6V410H180.899V401.6H183.179V399.54H180.899V398.26C180.899 397.46 181.259 396.88 182.199 396.88C182.619 396.88 182.959 396.96 183.259 397.06V394.88C182.799 394.74 182.379 394.68 181.759 394.68C179.419 394.68 178.019 395.88 178.019 398.34V399.54H176.639V401.6H178.019ZM184.303 403.22V405.52H189.423V403.22H184.303ZM194.442 410.22C196.102 410.22 196.982 409.6 197.602 408.74V410H200.422V403.18C200.422 401.76 199.982 400.8 199.202 400.18C198.402 399.56 197.322 399.3 196.042 399.3C194.762 399.3 193.622 399.58 192.802 400.16C191.982 400.74 191.422 401.66 191.342 402.88H194.082C194.222 401.98 194.722 401.4 195.862 401.4C197.202 401.4 197.562 402.06 197.562 403.32V403.74H196.382C194.782 403.74 193.422 403.96 192.462 404.5C191.502 405.04 190.942 405.88 190.942 407.1C190.942 408.2 191.342 408.98 191.982 409.48C192.622 409.98 193.482 410.22 194.442 410.22ZM195.302 408.2C194.242 408.2 193.782 407.72 193.782 406.94C193.782 405.82 194.762 405.46 196.442 405.46H197.562V406.34C197.562 407.52 196.582 408.2 195.302 408.2ZM207.486 410.22C209.006 410.22 210.206 409.78 211.066 409.04C211.926 408.32 212.406 407.28 212.486 406.02H209.866C209.726 407.38 208.806 408.04 207.626 408.04C206.006 408.04 205.066 406.96 205.066 404.86V404.7C205.066 402.7 206.046 401.58 207.566 401.58C208.786 401.58 209.506 402.16 209.686 403.36H212.426C212.286 401.86 211.666 400.84 210.786 400.2C209.886 399.56 208.706 399.3 207.506 399.3C206.006 399.3 204.666 399.8 203.686 400.74C202.706 401.7 202.106 403.06 202.106 404.74V404.9C202.106 406.6 202.686 407.94 203.646 408.84C204.606 409.74 205.966 410.22 207.486 410.22ZM217.963 410.2C218.743 410.2 219.323 410.06 219.723 409.92V407.68C219.403 407.82 219.043 407.88 218.623 407.88C217.843 407.88 217.463 407.46 217.463 406.64V401.6H219.663V399.54H217.463V397.28H214.583V399.54H213.243V401.6H214.583V406.9C214.583 409.08 215.743 410.2 217.963 410.2ZM224.996 410.22C226.736 410.22 227.776 409.42 228.316 408.36V410H231.196V399.54H228.316V405.68C228.316 407.22 227.356 407.98 226.136 407.98C224.936 407.98 224.316 407.26 224.316 405.88V399.54H221.436V406.28C221.436 407.64 221.816 408.64 222.456 409.28C223.096 409.92 223.976 410.22 224.996 410.22ZM236.416 410.22C238.076 410.22 238.956 409.6 239.576 408.74V410H242.396V403.18C242.396 401.76 241.956 400.8 241.176 400.18C240.376 399.56 239.296 399.3 238.016 399.3C236.736 399.3 235.596 399.58 234.776 400.16C233.956 400.74 233.396 401.66 233.316 402.88H236.056C236.196 401.98 236.696 401.4 237.836 401.4C239.176 401.4 239.536 402.06 239.536 403.32V403.74H238.356C236.756 403.74 235.396 403.96 234.436 404.5C233.476 405.04 232.916 405.88 232.916 407.1C232.916 408.2 233.316 408.98 233.956 409.48C234.596 409.98 235.456 410.22 236.416 410.22ZM237.276 408.2C236.216 408.2 235.756 407.72 235.756 406.94C235.756 405.82 236.736 405.46 238.416 405.46H239.536V406.34C239.536 407.52 238.556 408.2 237.276 408.2ZM244.8 394.8V410H247.68V394.8H244.8ZM251.66 398.12C252.6 398.12 253.32 397.44 253.32 396.54C253.32 395.64 252.6 394.96 251.66 394.96C250.72 394.96 250.02 395.64 250.02 396.54C250.02 397.44 250.72 398.12 251.66 398.12ZM250.24 399.54V410H253.12V399.54H250.24ZM259.419 410.22C262.199 410.22 263.819 409.04 263.819 406.78C263.819 405.66 263.439 404.94 262.779 404.44C262.079 403.96 261.059 403.68 259.759 403.5C258.239 403.28 257.739 403.02 257.739 402.36C257.739 401.72 258.279 401.28 259.219 401.28C260.239 401.28 260.699 401.68 260.859 402.54H263.519C263.379 401.34 262.879 400.52 262.139 400.02C261.359 399.52 260.339 399.3 259.199 399.3C258.139 399.3 257.079 399.56 256.339 400.1C255.559 400.66 255.059 401.46 255.059 402.56C255.059 403.58 255.319 404.3 255.959 404.8C256.579 405.3 257.539 405.6 258.919 405.82C260.439 406.04 261.039 406.34 261.039 407.06C261.039 407.78 260.519 408.2 259.399 408.2C258.119 408.2 257.699 407.66 257.559 406.72H254.859C254.959 408.98 256.599 410.22 259.419 410.22ZM268.313 410.22C269.973 410.22 270.853 409.6 271.473 408.74V410H274.293V403.18C274.293 401.76 273.853 400.8 273.073 400.18C272.273 399.56 271.193 399.3 269.913 399.3C268.633 399.3 267.493 399.58 266.673 400.16C265.853 400.74 265.293 401.66 265.213 402.88H267.953C268.093 401.98 268.593 401.4 269.733 401.4C271.073 401.4 271.433 402.06 271.433 403.32V403.74H270.253C268.653 403.74 267.293 403.96 266.333 404.5C265.373 405.04 264.813 405.88 264.813 407.1C264.813 408.2 265.213 408.98 265.853 409.48C266.493 409.98 267.353 410.22 268.313 410.22ZM269.173 408.2C268.113 408.2 267.653 407.72 267.653 406.94C267.653 405.82 268.633 405.46 270.313 405.46H271.433V406.34C271.433 407.52 270.453 408.2 269.173 408.2ZM280.436 410.2C281.216 410.2 281.796 410.06 282.196 409.92V407.68C281.876 407.82 281.516 407.88 281.096 407.88C280.316 407.88 279.936 407.46 279.936 406.64V401.6H282.136V399.54H279.936V397.28H277.056V399.54H275.716V401.6H277.056V406.9C277.056 409.08 278.216 410.2 280.436 410.2ZM285.489 398.12C286.429 398.12 287.149 397.44 287.149 396.54C287.149 395.64 286.429 394.96 285.489 394.96C284.549 394.96 283.849 395.64 283.849 396.54C283.849 397.44 284.549 398.12 285.489 398.12ZM284.069 399.54V410H286.949V399.54H284.069ZM294.329 408.02C292.669 408.02 291.769 406.82 291.769 404.82V404.66C291.769 402.66 292.729 401.5 294.329 401.5C295.949 401.5 296.889 402.7 296.889 404.7V404.84C296.889 406.84 295.949 408.02 294.329 408.02ZM294.309 410.22C295.889 410.22 297.269 409.7 298.249 408.76C299.229 407.82 299.829 406.48 299.829 404.82V404.66C299.829 403.04 299.229 401.7 298.269 400.76C297.289 399.82 295.909 399.3 294.329 399.3C292.749 399.3 291.369 399.84 290.389 400.78C289.409 401.72 288.809 403.1 288.809 404.72V404.88C288.809 406.5 289.409 407.86 290.389 408.76C291.369 409.7 292.729 410.22 294.309 410.22ZM301.607 399.54V410H304.507V403.96C304.507 402.42 305.427 401.66 306.687 401.66C307.967 401.66 308.527 402.32 308.527 403.76V410H311.427V403.34C311.427 401.96 311.067 400.92 310.447 400.26C309.807 399.62 308.947 399.3 307.907 399.3C306.147 399.3 305.047 400.16 304.507 401.2V399.54H301.607Z" fill="#191B1D"/>
<path fill-rule="evenodd" clip-rule="evenodd" d="M639.8 162.2H282.2V299.8H639.8V162.2ZM281 161V301H641V161H281Z" fill="#191B1D"/>
<path d="M361.093 212.22C362.853 212.22 364.373 211.76 365.493 210.86C366.613 209.98 367.333 208.62 367.513 206.86H364.333C364.073 208.7 362.833 209.6 361.053 209.6C358.673 209.6 357.333 207.9 357.333 204.92V204.76C357.333 201.78 358.773 200.04 361.033 200.04C362.853 200.04 363.793 200.94 364.033 202.68H367.353C367.193 200.92 366.453 199.62 365.353 198.76C364.233 197.9 362.713 197.48 361.013 197.48C358.993 197.48 357.213 198.22 355.953 199.5C354.673 200.78 353.913 202.62 353.913 204.78V204.94C353.913 207.16 354.533 208.96 355.753 210.22C356.953 211.5 358.753 212.22 361.093 212.22ZM374.068 210.02C372.408 210.02 371.508 208.82 371.508 206.82V206.66C371.508 204.66 372.468 203.5 374.068 203.5C375.688 203.5 376.628 204.7 376.628 206.7V206.84C376.628 208.84 375.688 210.02 374.068 210.02ZM374.048 212.22C375.628 212.22 377.008 211.7 377.988 210.76C378.968 209.82 379.568 208.48 379.568 206.82V206.66C379.568 205.04 378.968 203.7 378.008 202.76C377.028 201.82 375.648 201.3 374.068 201.3C372.488 201.3 371.108 201.84 370.128 202.78C369.148 203.72 368.548 205.1 368.548 206.72V206.88C368.548 208.5 369.148 209.86 370.128 210.76C371.108 211.7 372.468 212.22 374.048 212.22ZM381.347 201.54V212H384.247V205.96C384.247 204.42 385.167 203.66 386.427 203.66C387.707 203.66 388.267 204.32 388.267 205.76V212H391.167V205.34C391.167 203.96 390.807 202.92 390.187 202.26C389.547 201.62 388.687 201.3 387.647 201.3C385.887 201.3 384.787 202.16 384.247 203.2V201.54H381.347ZM392.291 201.54L396.111 212H399.371L403.171 201.54H400.371L397.891 209.02L395.391 201.54H392.291ZM408.882 212.22C411.762 212.22 413.542 210.96 413.882 208.7H411.142C410.962 209.58 410.322 210.16 408.962 210.16C407.362 210.16 406.442 209.18 406.362 207.42H413.902V206.62C413.902 204.76 413.302 203.42 412.362 202.56C411.422 201.7 410.162 201.3 408.802 201.3C407.282 201.3 405.942 201.84 404.982 202.78C404.002 203.74 403.422 205.08 403.422 206.74V206.9C403.422 208.58 404.002 209.9 404.982 210.8C405.942 211.74 407.302 212.22 408.882 212.22ZM411.082 205.64H406.402C406.622 204.14 407.502 203.3 408.802 203.3C410.182 203.3 410.982 204.04 411.082 205.64ZM415.635 201.54V212H418.535V205.96C418.535 204.42 419.455 203.66 420.715 203.66C421.995 203.66 422.555 204.32 422.555 205.76V212H425.455V205.34C425.455 203.96 425.095 202.92 424.475 202.26C423.835 201.62 422.975 201.3 421.935 201.3C420.175 201.3 419.075 202.16 418.535 203.2V201.54H415.635ZM429.274 200.12C430.214 200.12 430.934 199.44 430.934 198.54C430.934 197.64 430.214 196.96 429.274 196.96C428.334 196.96 427.634 197.64 427.634 198.54C427.634 199.44 428.334 200.12 429.274 200.12ZM427.854 201.54V212H430.734V201.54H427.854ZM438.054 212.22C440.934 212.22 442.714 210.96 443.054 208.7H440.314C440.134 209.58 439.494 210.16 438.134 210.16C436.534 210.16 435.614 209.18 435.534 207.42H443.074V206.62C443.074 204.76 442.474 203.42 441.534 202.56C440.594 201.7 439.334 201.3 437.974 201.3C436.454 201.3 435.114 201.84 434.154 202.78C433.174 203.74 432.594 205.08 432.594 206.74V206.9C432.594 208.58 433.174 209.9 434.154 210.8C435.114 211.74 436.474 212.22 438.054 212.22ZM440.254 205.64H435.574C435.794 204.14 436.674 203.3 437.974 203.3C439.354 203.3 440.154 204.04 440.254 205.64ZM444.806 201.54V212H447.706V205.96C447.706 204.42 448.626 203.66 449.886 203.66C451.166 203.66 451.726 204.32 451.726 205.76V212H454.626V205.34C454.626 203.96 454.266 202.92 453.646 202.26C453.006 201.62 452.146 201.3 451.106 201.3C449.346 201.3 448.246 202.16 447.706 203.2V201.54H444.806ZM461.685 212.22C463.205 212.22 464.405 211.78 465.265 211.04C466.125 210.32 466.605 209.28 466.685 208.02H464.065C463.925 209.38 463.005 210.04 461.825 210.04C460.205 210.04 459.265 208.96 459.265 206.86V206.7C459.265 204.7 460.245 203.58 461.765 203.58C462.985 203.58 463.705 204.16 463.885 205.36H466.625C466.485 203.86 465.865 202.84 464.985 202.2C464.085 201.56 462.905 201.3 461.705 201.3C460.205 201.3 458.865 201.8 457.885 202.74C456.905 203.7 456.305 205.06 456.305 206.74V206.9C456.305 208.6 456.885 209.94 457.845 210.84C458.805 211.74 460.165 212.22 461.685 212.22ZM473.162 212.22C476.042 212.22 477.822 210.96 478.162 208.7H475.422C475.242 209.58 474.602 210.16 473.242 210.16C471.642 210.16 470.722 209.18 470.642 207.42H478.182V206.62C478.182 204.76 477.582 203.42 476.642 202.56C475.702 201.7 474.442 201.3 473.082 201.3C471.562 201.3 470.222 201.84 469.262 202.78C468.282 203.74 467.702 205.08 467.702 206.74V206.9C467.702 208.58 468.282 209.9 469.262 210.8C470.222 211.74 471.582 212.22 473.162 212.22ZM475.362 205.64H470.682C470.902 204.14 471.782 203.3 473.082 203.3C474.462 203.3 475.262 204.04 475.362 205.64ZM478.997 213.72L480.757 214.46L483.477 209.8L480.757 208.78L478.997 213.72ZM494.462 212.22C497.342 212.22 499.122 210.96 499.462 208.7H496.722C496.542 209.58 495.902 210.16 494.542 210.16C492.942 210.16 492.022 209.18 491.942 207.42H499.482V206.62C499.482 204.76 498.882 203.42 497.942 202.56C497.002 201.7 495.742 201.3 494.382 201.3C492.862 201.3 491.522 201.84 490.562 202.78C489.582 203.74 489.002 205.08 489.002 206.74V206.9C489.002 208.58 489.582 209.9 490.562 210.8C491.522 211.74 492.882 212.22 494.462 212.22ZM496.662 205.64H491.982C492.202 204.14 493.082 203.3 494.382 203.3C495.762 203.3 496.562 204.04 496.662 205.64ZM505.955 212.22C507.475 212.22 508.675 211.78 509.535 211.04C510.395 210.32 510.875 209.28 510.955 208.02H508.335C508.195 209.38 507.275 210.04 506.095 210.04C504.475 210.04 503.535 208.96 503.535 206.86V206.7C503.535 204.7 504.515 203.58 506.035 203.58C507.255 203.58 507.975 204.16 508.155 205.36H510.895C510.755 203.86 510.135 202.84 509.255 202.2C508.355 201.56 507.175 201.3 505.975 201.3C504.475 201.3 503.135 201.8 502.155 202.74C501.175 203.7 500.575 205.06 500.575 206.74V206.9C500.575 208.6 501.155 209.94 502.115 210.84C503.075 211.74 504.435 212.22 505.955 212.22ZM517.492 210.02C515.832 210.02 514.932 208.82 514.932 206.82V206.66C514.932 204.66 515.892 203.5 517.492 203.5C519.112 203.5 520.052 204.7 520.052 206.7V206.84C520.052 208.84 519.112 210.02 517.492 210.02ZM517.472 212.22C519.052 212.22 520.432 211.7 521.412 210.76C522.392 209.82 522.992 208.48 522.992 206.82V206.66C522.992 205.04 522.392 203.7 521.432 202.76C520.452 201.82 519.072 201.3 517.492 201.3C515.912 201.3 514.532 201.84 513.552 202.78C512.572 203.72 511.972 205.1 511.972 206.72V206.88C511.972 208.5 512.572 209.86 513.552 210.76C514.532 211.7 515.892 212.22 517.472 212.22ZM524.85 196.8V212H527.73V196.8H524.85ZM535.09 210.02C533.43 210.02 532.53 208.82 532.53 206.82V206.66C532.53 204.66 533.49 203.5 535.09 203.5C536.71 203.5 537.65 204.7 537.65 206.7V206.84C537.65 208.84 536.71 210.02 535.09 210.02ZM535.07 212.22C536.65 212.22 538.03 211.7 539.01 210.76C539.99 209.82 540.59 208.48 540.59 206.82V206.66C540.59 205.04 539.99 203.7 539.03 202.76C538.05 201.82 536.67 201.3 535.09 201.3C533.51 201.3 532.13 201.84 531.15 202.78C530.17 203.72 529.57 205.1 529.57 206.72V206.88C529.57 208.5 530.17 209.86 531.15 210.76C532.13 211.7 533.49 212.22 535.07 212.22ZM547.009 215.86C550.469 215.86 552.509 214.3 552.529 211.18V201.54H549.649V203.1C549.029 202.04 548.029 201.3 546.329 201.3C545.029 201.3 543.869 201.84 543.049 202.72C542.229 203.62 541.729 204.9 541.729 206.4V206.54C541.729 208.08 542.249 209.34 543.069 210.2C543.869 211.06 545.009 211.54 546.289 211.54C547.069 211.54 547.749 211.32 548.329 210.94C548.909 210.6 549.349 210.1 549.649 209.6V211.18C549.649 212.84 548.769 213.74 547.009 213.74C545.509 213.74 544.869 213.16 544.689 212.22H541.809C541.949 213.32 542.389 214.22 543.249 214.86C544.069 215.5 545.329 215.86 547.009 215.86ZM547.149 209.36C545.709 209.36 544.689 208.3 544.689 206.54V206.38C544.689 204.64 545.589 203.5 547.209 203.5C548.809 203.5 549.729 204.58 549.729 206.36V206.5C549.729 208.28 548.669 209.36 547.149 209.36ZM558.097 210.94L556.257 215.56H559.057L564.717 201.54H561.937L559.597 207.82L557.057 201.54H553.937L558.097 210.94ZM563.796 213.72L565.556 214.46L568.276 209.8L565.556 208.78L563.796 213.72ZM372.72 237.22C375.5 237.22 377.12 236.04 377.12 233.78C377.12 232.66 376.74 231.94 376.08 231.44C375.38 230.96 374.36 230.68 373.06 230.5C371.54 230.28 371.04 230.02 371.04 229.36C371.04 228.72 371.58 228.28 372.52 228.28C373.54 228.28 374 228.68 374.16 229.54H376.82C376.68 228.34 376.18 227.52 375.44 227.02C374.66 226.52 373.64 226.3 372.5 226.3C371.44 226.3 370.38 226.56 369.64 227.1C368.86 227.66 368.36 228.46 368.36 229.56C368.36 230.58 368.62 231.3 369.26 231.8C369.88 232.3 370.84 232.6 372.22 232.82C373.74 233.04 374.34 233.34 374.34 234.06C374.34 234.78 373.82 235.2 372.7 235.2C371.42 235.2 371 234.66 370.86 233.72H368.16C368.26 235.98 369.9 237.22 372.72 237.22ZM383.613 237.22C386.493 237.22 388.273 235.96 388.613 233.7H385.873C385.693 234.58 385.053 235.16 383.693 235.16C382.093 235.16 381.173 234.18 381.093 232.42H388.633V231.62C388.633 229.76 388.033 228.42 387.093 227.56C386.153 226.7 384.893 226.3 383.533 226.3C382.013 226.3 380.673 226.84 379.713 227.78C378.733 228.74 378.153 230.08 378.153 231.74V231.9C378.153 233.58 378.733 234.9 379.713 235.8C380.673 236.74 382.033 237.22 383.613 237.22ZM385.813 230.64H381.133C381.353 229.14 382.233 228.3 383.533 228.3C384.913 228.3 385.713 229.04 385.813 230.64ZM395.106 237.22C396.626 237.22 397.826 236.78 398.686 236.04C399.546 235.32 400.026 234.28 400.106 233.02H397.486C397.346 234.38 396.426 235.04 395.246 235.04C393.626 235.04 392.686 233.96 392.686 231.86V231.7C392.686 229.7 393.666 228.58 395.186 228.58C396.406 228.58 397.126 229.16 397.306 230.36H400.046C399.906 228.86 399.286 227.84 398.406 227.2C397.506 226.56 396.326 226.3 395.126 226.3C393.626 226.3 392.286 226.8 391.306 227.74C390.326 228.7 389.726 230.06 389.726 231.74V231.9C389.726 233.6 390.306 234.94 391.266 235.84C392.226 236.74 393.586 237.22 395.106 237.22ZM405.243 237.22C406.983 237.22 408.023 236.42 408.563 235.36V237H411.443V226.54H408.563V232.68C408.563 234.22 407.603 234.98 406.383 234.98C405.183 234.98 404.563 234.26 404.563 232.88V226.54H401.683V233.28C401.683 234.64 402.063 235.64 402.703 236.28C403.343 236.92 404.223 237.22 405.243 237.22ZM413.843 226.54V237H416.743V231.76C416.743 229.76 417.963 229.06 420.123 229.08V226.38C418.423 226.4 417.403 227.12 416.743 228.54V226.54H413.843ZM423.361 225.12C424.301 225.12 425.021 224.44 425.021 223.54C425.021 222.64 424.301 221.96 423.361 221.96C422.421 221.96 421.721 222.64 421.721 223.54C421.721 224.44 422.421 225.12 423.361 225.12ZM421.941 226.54V237H424.821V226.54H421.941ZM431.14 237.2C431.92 237.2 432.5 237.06 432.9 236.92V234.68C432.58 234.82 432.22 234.88 431.8 234.88C431.02 234.88 430.64 234.46 430.64 233.64V228.6H432.84V226.54H430.64V224.28H427.76V226.54H426.42V228.6H427.76V233.9C427.76 236.08 428.92 237.2 431.14 237.2ZM437.854 235.94L436.014 240.56H438.814L444.474 226.54H441.694L439.354 232.82L436.814 226.54H433.694L437.854 235.94ZM443.552 238.72L445.312 239.46L448.032 234.8L445.312 233.78L443.552 238.72ZM459.017 237.22C461.897 237.22 463.677 235.96 464.017 233.7H461.277C461.097 234.58 460.457 235.16 459.097 235.16C457.497 235.16 456.577 234.18 456.497 232.42H464.037V231.62C464.037 229.76 463.437 228.42 462.497 227.56C461.557 226.7 460.297 226.3 458.937 226.3C457.417 226.3 456.077 226.84 455.117 227.78C454.137 228.74 453.557 230.08 453.557 231.74V231.9C453.557 233.58 454.137 234.9 455.117 235.8C456.077 236.74 457.437 237.22 459.017 237.22ZM461.217 230.64H456.537C456.757 229.14 457.637 228.3 458.937 228.3C460.317 228.3 461.117 229.04 461.217 230.64ZM469.69 237.22C471.23 237.22 472.51 236.32 473.05 235.26V237H475.93V221.8H473.05V228.1C472.47 227.04 471.43 226.3 469.75 226.3C468.45 226.3 467.29 226.8 466.47 227.74C465.65 228.68 465.15 230.06 465.15 231.76V231.92C465.15 233.66 465.65 234.98 466.47 235.86C467.29 236.76 468.41 237.22 469.69 237.22ZM470.55 234.96C469.11 234.96 468.11 233.94 468.11 231.86V231.7C468.11 229.62 469.01 228.52 470.63 228.52C472.23 228.52 473.13 229.58 473.13 231.66V231.82C473.13 233.96 472.07 234.96 470.55 234.96ZM481.838 237.22C483.578 237.22 484.618 236.42 485.158 235.36V237H488.038V226.54H485.158V232.68C485.158 234.22 484.198 234.98 482.978 234.98C481.778 234.98 481.158 234.26 481.158 232.88V226.54H478.278V233.28C478.278 234.64 478.658 235.64 479.298 236.28C479.938 236.92 480.818 237.22 481.838 237.22ZM495.178 237.22C496.698 237.22 497.898 236.78 498.758 236.04C499.618 235.32 500.098 234.28 500.178 233.02H497.558C497.418 234.38 496.498 235.04 495.318 235.04C493.698 235.04 492.758 233.96 492.758 231.86V231.7C492.758 229.7 493.738 228.58 495.258 228.58C496.478 228.58 497.198 229.16 497.378 230.36H500.118C499.978 228.86 499.358 227.84 498.478 227.2C497.578 226.56 496.398 226.3 495.198 226.3C493.698 226.3 492.358 226.8 491.378 227.74C490.398 228.7 489.798 230.06 489.798 231.74V231.9C489.798 233.6 490.378 234.94 491.338 235.84C492.298 236.74 493.658 237.22 495.178 237.22ZM504.655 237.22C506.315 237.22 507.195 236.6 507.815 235.74V237H510.635V230.18C510.635 228.76 510.195 227.8 509.415 227.18C508.615 226.56 507.535 226.3 506.255 226.3C504.975 226.3 503.835 226.58 503.015 227.16C502.195 227.74 501.635 228.66 501.555 229.88H504.295C504.435 228.98 504.935 228.4 506.075 228.4C507.415 228.4 507.775 229.06 507.775 230.32V230.74H506.595C504.995 230.74 503.635 230.96 502.675 231.5C501.715 232.04 501.155 232.88 501.155 234.1C501.155 235.2 501.555 235.98 502.195 236.48C502.835 236.98 503.695 237.22 504.655 237.22ZM505.515 235.2C504.455 235.2 503.995 234.72 503.995 233.94C503.995 232.82 504.975 232.46 506.655 232.46H507.775V233.34C507.775 234.52 506.795 235.2 505.515 235.2ZM516.779 237.2C517.559 237.2 518.139 237.06 518.539 236.92V234.68C518.219 234.82 517.859 234.88 517.439 234.88C516.659 234.88 516.279 234.46 516.279 233.64V228.6H518.479V226.54H516.279V224.28H513.399V226.54H512.059V228.6H513.399V233.9C513.399 236.08 514.559 237.2 516.779 237.2ZM521.832 225.12C522.772 225.12 523.492 224.44 523.492 223.54C523.492 222.64 522.772 221.96 521.832 221.96C520.892 221.96 520.192 222.64 520.192 223.54C520.192 224.44 520.892 225.12 521.832 225.12ZM520.412 226.54V237H523.292V226.54H520.412ZM530.671 235.02C529.011 235.02 528.111 233.82 528.111 231.82V231.66C528.111 229.66 529.071 228.5 530.671 228.5C532.291 228.5 533.231 229.7 533.231 231.7V231.84C533.231 233.84 532.291 235.02 530.671 235.02ZM530.651 237.22C532.231 237.22 533.611 236.7 534.591 235.76C535.571 234.82 536.171 233.48 536.171 231.82V231.66C536.171 230.04 535.571 228.7 534.611 227.76C533.631 226.82 532.251 226.3 530.671 226.3C529.091 226.3 527.711 226.84 526.731 227.78C525.751 228.72 525.151 230.1 525.151 231.72V231.88C525.151 233.5 525.751 234.86 526.731 235.76C527.711 236.7 529.071 237.22 530.651 237.22ZM537.95 226.54V237H540.85V230.96C540.85 229.42 541.77 228.66 543.03 228.66C544.31 228.66 544.87 229.32 544.87 230.76V237H547.77V230.34C547.77 228.96 547.41 227.92 546.79 227.26C546.15 226.62 545.29 226.3 544.25 226.3C542.49 226.3 541.39 227.16 540.85 228.2V226.54H537.95ZM549.269 238.72L551.029 239.46L553.749 234.8L551.029 233.78L549.269 238.72ZM314.857 253.6V262H317.737V253.6H320.017V251.54H317.737V250.26C317.737 249.46 318.097 248.88 319.037 248.88C319.457 248.88 319.797 248.96 320.097 249.06V246.88C319.637 246.74 319.217 246.68 318.597 246.68C316.257 246.68 314.857 247.88 314.857 250.34V251.54H313.477V253.6H314.857ZM325.113 262.22C326.853 262.22 327.893 261.42 328.433 260.36V262H331.313V251.54H328.433V257.68C328.433 259.22 327.473 259.98 326.253 259.98C325.053 259.98 324.433 259.26 324.433 257.88V251.54H321.553V258.28C321.553 259.64 321.933 260.64 322.573 261.28C323.213 261.92 324.093 262.22 325.113 262.22ZM333.713 251.54V262H336.613V255.96C336.613 254.42 337.533 253.66 338.793 253.66C340.073 253.66 340.633 254.32 340.633 255.76V262H343.533V255.34C343.533 253.96 343.173 252.92 342.553 252.26C341.913 251.62 341.053 251.3 340.013 251.3C338.253 251.3 337.153 252.16 336.613 253.2V251.54H333.713ZM350.592 262.22C352.112 262.22 353.312 261.78 354.172 261.04C355.032 260.32 355.512 259.28 355.592 258.02H352.972C352.832 259.38 351.912 260.04 350.732 260.04C349.112 260.04 348.172 258.96 348.172 256.86V256.7C348.172 254.7 349.152 253.58 350.672 253.58C351.892 253.58 352.612 254.16 352.792 255.36H355.532C355.392 253.86 354.772 252.84 353.892 252.2C352.992 251.56 351.812 251.3 350.612 251.3C349.112 251.3 347.772 251.8 346.792 252.74C345.812 253.7 345.212 255.06 345.212 256.74V256.9C345.212 258.6 345.792 259.94 346.752 260.84C347.712 261.74 349.072 262.22 350.592 262.22ZM361.069 262.2C361.849 262.2 362.429 262.06 362.829 261.92V259.68C362.509 259.82 362.149 259.88 361.729 259.88C360.949 259.88 360.569 259.46 360.569 258.64V253.6H362.769V251.54H360.569V249.28H357.689V251.54H356.349V253.6H357.689V258.9C357.689 261.08 358.849 262.2 361.069 262.2ZM366.123 250.12C367.063 250.12 367.783 249.44 367.783 248.54C367.783 247.64 367.063 246.96 366.123 246.96C365.183 246.96 364.483 247.64 364.483 248.54C364.483 249.44 365.183 250.12 366.123 250.12ZM364.703 251.54V262H367.583V251.54H364.703ZM374.962 260.02C373.302 260.02 372.402 258.82 372.402 256.82V256.66C372.402 254.66 373.362 253.5 374.962 253.5C376.582 253.5 377.522 254.7 377.522 256.7V256.84C377.522 258.84 376.582 260.02 374.962 260.02ZM374.942 262.22C376.522 262.22 377.902 261.7 378.882 260.76C379.862 259.82 380.462 258.48 380.462 256.82V256.66C380.462 255.04 379.862 253.7 378.902 252.76C377.922 251.82 376.542 251.3 374.962 251.3C373.382 251.3 372.002 251.84 371.022 252.78C370.042 253.72 369.442 255.1 369.442 256.72V256.88C369.442 258.5 370.042 259.86 371.022 260.76C372.002 261.7 373.362 262.22 374.942 262.22ZM382.241 251.54V262H385.141V255.96C385.141 254.42 386.061 253.66 387.321 253.66C388.601 253.66 389.161 254.32 389.161 255.76V262H392.061V255.34C392.061 253.96 391.701 252.92 391.081 252.26C390.441 251.62 389.581 251.3 388.541 251.3C386.781 251.3 385.681 252.16 385.141 253.2V251.54H382.241ZM397.2 262.22C398.86 262.22 399.74 261.6 400.36 260.74V262H403.18V255.18C403.18 253.76 402.74 252.8 401.96 252.18C401.16 251.56 400.08 251.3 398.8 251.3C397.52 251.3 396.38 251.58 395.56 252.16C394.74 252.74 394.18 253.66 394.1 254.88H396.84C396.98 253.98 397.48 253.4 398.62 253.4C399.96 253.4 400.32 254.06 400.32 255.32V255.74H399.14C397.54 255.74 396.18 255.96 395.22 256.5C394.26 257.04 393.7 257.88 393.7 259.1C393.7 260.2 394.1 260.98 394.74 261.48C395.38 261.98 396.24 262.22 397.2 262.22ZM398.06 260.2C397 260.2 396.54 259.72 396.54 258.94C396.54 257.82 397.52 257.46 399.2 257.46H400.32V258.34C400.32 259.52 399.34 260.2 398.06 260.2ZM405.583 246.8V262H408.463V246.8H405.583ZM412.443 250.12C413.383 250.12 414.103 249.44 414.103 248.54C414.103 247.64 413.383 246.96 412.443 246.96C411.503 246.96 410.803 247.64 410.803 248.54C410.803 249.44 411.503 250.12 412.443 250.12ZM411.023 251.54V262H413.903V251.54H411.023ZM420.222 262.2C421.002 262.2 421.582 262.06 421.982 261.92V259.68C421.662 259.82 421.302 259.88 420.882 259.88C420.102 259.88 419.722 259.46 419.722 258.64V253.6H421.922V251.54H419.722V249.28H416.842V251.54H415.502V253.6H416.842V258.9C416.842 261.08 418.002 262.2 420.222 262.2ZM426.936 260.94L425.096 265.56H427.896L433.556 251.54H430.776L428.436 257.82L425.896 251.54H422.776L426.936 260.94ZM432.634 263.72L434.394 264.46L437.114 259.8L434.394 258.78L432.634 263.72ZM447.079 262.22C449.859 262.22 451.479 261.04 451.479 258.78C451.479 257.66 451.099 256.94 450.439 256.44C449.739 255.96 448.719 255.68 447.419 255.5C445.899 255.28 445.399 255.02 445.399 254.36C445.399 253.72 445.939 253.28 446.879 253.28C447.899 253.28 448.359 253.68 448.519 254.54H451.179C451.039 253.34 450.539 252.52 449.799 252.02C449.019 251.52 447.999 251.3 446.859 251.3C445.799 251.3 444.739 251.56 443.999 252.1C443.219 252.66 442.719 253.46 442.719 254.56C442.719 255.58 442.979 256.3 443.619 256.8C444.239 257.3 445.199 257.6 446.579 257.82C448.099 258.04 448.699 258.34 448.699 259.06C448.699 259.78 448.179 260.2 447.059 260.2C445.779 260.2 445.359 259.66 445.219 258.72H442.519C442.619 260.98 444.259 262.22 447.079 262.22ZM457.972 262.22C460.852 262.22 462.632 260.96 462.972 258.7H460.232C460.052 259.58 459.412 260.16 458.052 260.16C456.452 260.16 455.532 259.18 455.452 257.42H462.992V256.62C462.992 254.76 462.392 253.42 461.452 252.56C460.512 251.7 459.252 251.3 457.892 251.3C456.372 251.3 455.032 251.84 454.072 252.78C453.092 253.74 452.512 255.08 452.512 256.74V256.9C452.512 258.58 453.092 259.9 454.072 260.8C455.032 261.74 456.392 262.22 457.972 262.22ZM460.172 255.64H455.492C455.712 254.14 456.592 253.3 457.892 253.3C459.272 253.3 460.072 254.04 460.172 255.64ZM464.805 246.8V262H467.685V246.8H464.805ZM470.645 253.6V262H473.525V253.6H475.805V251.54H473.525V250.26C473.525 249.46 473.885 248.88 474.825 248.88C475.245 248.88 475.585 248.96 475.885 249.06V246.88C475.425 246.74 475.005 246.68 474.385 246.68C472.045 246.68 470.645 247.88 470.645 250.34V251.54H469.265V253.6H470.645ZM476.928 255.22V257.52H482.048V255.22H476.928ZM488.168 262.22C489.708 262.22 490.988 261.32 491.528 260.26V262H494.408V246.8H491.528V253.1C490.948 252.04 489.908 251.3 488.228 251.3C486.928 251.3 485.768 251.8 484.948 252.74C484.128 253.68 483.628 255.06 483.628 256.76V256.92C483.628 258.66 484.128 259.98 484.948 260.86C485.768 261.76 486.888 262.22 488.168 262.22ZM489.028 259.96C487.588 259.96 486.588 258.94 486.588 256.86V256.7C486.588 254.62 487.488 253.52 489.108 253.52C490.708 253.52 491.608 254.58 491.608 256.66V256.82C491.608 258.96 490.548 259.96 489.028 259.96ZM501.656 262.22C504.536 262.22 506.316 260.96 506.656 258.7H503.916C503.736 259.58 503.096 260.16 501.736 260.16C500.136 260.16 499.216 259.18 499.136 257.42H506.676V256.62C506.676 254.76 506.076 253.42 505.136 252.56C504.196 251.7 502.936 251.3 501.576 251.3C500.056 251.3 498.716 251.84 497.756 252.78C496.776 253.74 496.196 255.08 496.196 256.74V256.9C496.196 258.58 496.776 259.9 497.756 260.8C498.716 261.74 500.076 262.22 501.656 262.22ZM503.856 255.64H499.176C499.396 254.14 500.276 253.3 501.576 253.3C502.956 253.3 503.756 254.04 503.856 255.64ZM507.116 251.54L510.936 262H514.196L517.996 251.54H515.196L512.716 259.02L510.216 251.54H507.116ZM523.708 262.22C526.588 262.22 528.368 260.96 528.708 258.7H525.968C525.788 259.58 525.148 260.16 523.788 260.16C522.188 260.16 521.268 259.18 521.188 257.42H528.728V256.62C528.728 254.76 528.128 253.42 527.188 252.56C526.248 251.7 524.988 251.3 523.628 251.3C522.108 251.3 520.768 251.84 519.808 252.78C518.828 253.74 518.248 255.08 518.248 256.74V256.9C518.248 258.58 518.828 259.9 519.808 260.8C520.768 261.74 522.128 262.22 523.708 262.22ZM525.908 255.64H521.228C521.448 254.14 522.328 253.3 523.628 253.3C525.008 253.3 525.808 254.04 525.908 255.64ZM530.54 246.8V262H533.42V246.8H530.54ZM540.78 260.02C539.12 260.02 538.22 258.82 538.22 256.82V256.66C538.22 254.66 539.18 253.5 540.78 253.5C542.4 253.5 543.34 254.7 543.34 256.7V256.84C543.34 258.84 542.4 260.02 540.78 260.02ZM540.76 262.22C542.34 262.22 543.72 261.7 544.7 260.76C545.68 259.82 546.28 258.48 546.28 256.82V256.66C546.28 255.04 545.68 253.7 544.72 252.76C543.74 251.82 542.36 251.3 540.78 251.3C539.2 251.3 537.82 251.84 536.84 252.78C535.86 253.72 535.26 255.1 535.26 256.72V256.88C535.26 258.5 535.86 259.86 536.84 260.76C537.82 261.7 539.18 262.22 540.76 262.22ZM548.059 251.54V265.56H550.959V260.4C551.499 261.42 552.679 262.22 554.299 262.22C555.599 262.22 556.739 261.74 557.559 260.8C558.359 259.9 558.859 258.56 558.859 256.82V256.66C558.859 254.92 558.359 253.58 557.539 252.68C556.719 251.78 555.579 251.3 554.299 251.3C552.759 251.3 551.539 252.16 550.959 253.18V251.54H548.059ZM553.439 259.96C551.839 259.96 550.859 258.94 550.859 256.84V256.68C550.859 254.58 551.899 253.52 553.419 253.52C554.879 253.52 555.919 254.54 555.919 256.68V256.84C555.919 258.9 555.039 259.96 553.439 259.96ZM560.647 251.54V262H563.547V255.82C563.547 254.38 564.447 253.68 565.567 253.68C566.587 253.68 567.207 254.26 567.207 255.62V262H570.087V255.82C570.087 254.38 570.987 253.68 572.107 253.68C573.147 253.68 573.747 254.26 573.747 255.62V262H576.627V255.3C576.627 253.92 576.267 252.9 575.647 252.24C575.007 251.6 574.147 251.3 573.187 251.3C571.847 251.3 570.527 251.84 569.667 253.12C569.167 251.86 568.127 251.3 566.747 251.3C565.167 251.3 564.087 252.16 563.547 253.14V251.54H560.647ZM583.758 262.22C586.638 262.22 588.418 260.96 588.758 258.7H586.018C585.838 259.58 585.198 260.16 583.838 260.16C582.238 260.16 581.318 259.18 581.238 257.42H588.778V256.62C588.778 254.76 588.178 253.42 587.238 252.56C586.298 251.7 585.038 251.3 583.678 251.3C582.158 251.3 580.818 251.84 579.858 252.78C578.878 253.74 578.298 255.08 578.298 256.74V256.9C578.298 258.58 578.878 259.9 579.858 260.8C580.818 261.74 582.178 262.22 583.758 262.22ZM585.958 255.64H581.278C581.498 254.14 582.378 253.3 583.678 253.3C585.058 253.3 585.858 254.04 585.958 255.64ZM590.511 251.54V262H593.411V255.96C593.411 254.42 594.331 253.66 595.591 253.66C596.871 253.66 597.431 254.32 597.431 255.76V262H600.331V255.34C600.331 253.96 599.971 252.92 599.351 252.26C598.711 251.62 597.851 251.3 596.811 251.3C595.051 251.3 593.951 252.16 593.411 253.2V251.54H590.511ZM606.47 262.2C607.25 262.2 607.83 262.06 608.23 261.92V259.68C607.91 259.82 607.55 259.88 607.13 259.88C606.35 259.88 605.97 259.46 605.97 258.64V253.6H608.17V251.54H605.97V249.28H603.09V251.54H601.75V253.6H603.09V258.9C603.09 261.08 604.25 262.2 606.47 262.2Z" fill="#191B1D"/>
<path fill-rule="evenodd" clip-rule="evenodd" d="M869.8 2.2H512.2V139.8H869.8V2.2ZM511 1V141H871V1H511Z" fill="#191B1D"/>
<path d="M580.282 65.22C581.962 65.22 583.342 64.7 584.282 63.88C585.222 63.08 585.742 61.94 585.742 60.66C585.742 59.2 585.302 58.2 584.422 57.54C583.542 56.9 582.242 56.54 580.502 56.32C579.402 56.16 578.742 55.96 578.362 55.66C577.962 55.4 577.842 55 577.842 54.5C577.842 53.54 578.542 52.88 579.982 52.88C581.362 52.88 582.182 53.5 582.362 54.78H585.342C585.082 51.92 583.202 50.5 579.982 50.5C578.402 50.5 577.102 50.96 576.202 51.7C575.302 52.48 574.782 53.54 574.782 54.76C574.782 56.14 575.142 57.12 576.002 57.78C576.822 58.48 578.102 58.86 579.942 59.1C580.982 59.26 581.662 59.46 582.082 59.72C582.482 60.02 582.642 60.4 582.642 60.96C582.642 62.08 581.722 62.86 580.282 62.86C579.222 62.86 578.562 62.58 578.142 62.16C577.722 61.76 577.562 61.16 577.482 60.52H574.382C574.462 61.96 574.962 63.12 575.922 63.94C576.882 64.76 578.302 65.22 580.282 65.22ZM592.489 65.22C595.369 65.22 597.149 63.96 597.489 61.7H594.749C594.569 62.58 593.929 63.16 592.569 63.16C590.969 63.16 590.049 62.18 589.969 60.42H597.509V59.62C597.509 57.76 596.909 56.42 595.969 55.56C595.029 54.7 593.769 54.3 592.409 54.3C590.889 54.3 589.549 54.84 588.589 55.78C587.609 56.74 587.029 58.08 587.029 59.74V59.9C587.029 61.58 587.609 62.9 588.589 63.8C589.549 64.74 590.909 65.22 592.489 65.22ZM594.689 58.64H590.009C590.229 57.14 591.109 56.3 592.409 56.3C593.789 56.3 594.589 57.04 594.689 58.64ZM599.241 54.54V65H602.141V59.76C602.141 57.76 603.361 57.06 605.521 57.08V54.38C603.821 54.4 602.801 55.12 602.141 56.54V54.54H599.241ZM611.884 65.22C614.764 65.22 616.544 63.96 616.884 61.7H614.144C613.964 62.58 613.324 63.16 611.964 63.16C610.364 63.16 609.444 62.18 609.364 60.42H616.904V59.62C616.904 57.76 616.304 56.42 615.364 55.56C614.424 54.7 613.164 54.3 611.804 54.3C610.284 54.3 608.944 54.84 607.984 55.78C607.004 56.74 606.424 58.08 606.424 59.74V59.9C606.424 61.58 607.004 62.9 607.984 63.8C608.944 64.74 610.304 65.22 611.884 65.22ZM614.084 58.64H609.404C609.624 57.14 610.504 56.3 611.804 56.3C613.184 56.3 613.984 57.04 614.084 58.64ZM618.637 54.54V65H621.537V58.96C621.537 57.42 622.457 56.66 623.717 56.66C624.997 56.66 625.557 57.32 625.557 58.76V65H628.457V58.34C628.457 56.96 628.097 55.92 627.477 55.26C626.837 54.62 625.977 54.3 624.937 54.3C623.177 54.3 622.077 55.16 621.537 56.2V54.54H618.637ZM632.276 53.12C633.216 53.12 633.936 52.44 633.936 51.54C633.936 50.64 633.216 49.96 632.276 49.96C631.336 49.96 630.636 50.64 630.636 51.54C630.636 52.44 631.336 53.12 632.276 53.12ZM630.856 54.54V65H633.736V54.54H630.856ZM640.055 65.2C640.835 65.2 641.415 65.06 641.815 64.92V62.68C641.495 62.82 641.135 62.88 640.715 62.88C639.935 62.88 639.555 62.46 639.555 61.64V56.6H641.755V54.54H639.555V52.28H636.675V54.54H635.335V56.6H636.675V61.9C636.675 64.08 637.835 65.2 640.055 65.2ZM646.769 63.94L644.929 68.56H647.729L653.389 54.54H650.609L648.269 60.82L645.729 54.54H642.609L646.769 63.94ZM662.624 65.22C665.404 65.22 667.024 64.04 667.024 61.78C667.024 60.66 666.644 59.94 665.984 59.44C665.284 58.96 664.264 58.68 662.964 58.5C661.444 58.28 660.944 58.02 660.944 57.36C660.944 56.72 661.484 56.28 662.424 56.28C663.444 56.28 663.904 56.68 664.064 57.54H666.724C666.584 56.34 666.084 55.52 665.344 55.02C664.564 54.52 663.544 54.3 662.404 54.3C661.344 54.3 660.284 54.56 659.544 55.1C658.764 55.66 658.264 56.46 658.264 57.56C658.264 58.58 658.524 59.3 659.164 59.8C659.784 60.3 660.744 60.6 662.124 60.82C663.644 61.04 664.244 61.34 664.244 62.06C664.244 62.78 663.724 63.2 662.604 63.2C661.324 63.2 660.904 62.66 660.764 61.72H658.064C658.164 63.98 659.804 65.22 662.624 65.22ZM673.518 65.22C676.398 65.22 678.178 63.96 678.518 61.7H675.778C675.598 62.58 674.958 63.16 673.598 63.16C671.998 63.16 671.078 62.18 670.998 60.42H678.538V59.62C678.538 57.76 677.938 56.42 676.998 55.56C676.058 54.7 674.798 54.3 673.438 54.3C671.918 54.3 670.578 54.84 669.618 55.78C668.638 56.74 668.058 58.08 668.058 59.74V59.9C668.058 61.58 668.638 62.9 669.618 63.8C670.578 64.74 671.938 65.22 673.518 65.22ZM675.718 58.64H671.038C671.258 57.14 672.138 56.3 673.438 56.3C674.818 56.3 675.618 57.04 675.718 58.64ZM685.01 65.22C686.53 65.22 687.73 64.78 688.59 64.04C689.45 63.32 689.93 62.28 690.01 61.02H687.39C687.25 62.38 686.33 63.04 685.15 63.04C683.53 63.04 682.59 61.96 682.59 59.86V59.7C682.59 57.7 683.57 56.58 685.09 56.58C686.31 56.58 687.03 57.16 687.21 58.36H689.95C689.81 56.86 689.19 55.84 688.31 55.2C687.41 54.56 686.23 54.3 685.03 54.3C683.53 54.3 682.19 54.8 681.21 55.74C680.23 56.7 679.63 58.06 679.63 59.74V59.9C679.63 61.6 680.21 62.94 681.17 63.84C682.13 64.74 683.49 65.22 685.01 65.22ZM695.147 65.22C696.887 65.22 697.927 64.42 698.467 63.36V65H701.347V54.54H698.467V60.68C698.467 62.22 697.507 62.98 696.287 62.98C695.087 62.98 694.467 62.26 694.467 60.88V54.54H691.587V61.28C691.587 62.64 691.967 63.64 692.607 64.28C693.247 64.92 694.127 65.22 695.147 65.22ZM703.748 54.54V65H706.648V59.76C706.648 57.76 707.868 57.06 710.028 57.08V54.38C708.328 54.4 707.308 55.12 706.648 56.54V54.54H703.748ZM713.266 53.12C714.206 53.12 714.926 52.44 714.926 51.54C714.926 50.64 714.206 49.96 713.266 49.96C712.326 49.96 711.626 50.64 711.626 51.54C711.626 52.44 712.326 53.12 713.266 53.12ZM711.846 54.54V65H714.726V54.54H711.846ZM721.045 65.2C721.825 65.2 722.405 65.06 722.805 64.92V62.68C722.485 62.82 722.125 62.88 721.705 62.88C720.925 62.88 720.545 62.46 720.545 61.64V56.6H722.745V54.54H720.545V52.28H717.665V54.54H716.325V56.6H717.665V61.9C717.665 64.08 718.825 65.2 721.045 65.2ZM727.758 63.94L725.918 68.56H728.718L734.378 54.54H731.598L729.258 60.82L726.718 54.54H723.598L727.758 63.94ZM733.457 66.72L735.217 67.46L737.937 62.8L735.217 61.78L733.457 66.72ZM744.102 49.8V65H747.002V58.96C747.002 57.42 747.922 56.66 749.182 56.66C750.462 56.66 751.022 57.32 751.022 58.76V65H753.922V58.34C753.922 56.96 753.562 55.92 752.942 55.26C752.302 54.62 751.442 54.3 750.402 54.3C748.642 54.3 747.542 55.16 747.002 56.2V49.8H744.102ZM761.061 65.22C763.941 65.22 765.721 63.96 766.061 61.7H763.321C763.141 62.58 762.501 63.16 761.141 63.16C759.541 63.16 758.621 62.18 758.541 60.42H766.081V59.62C766.081 57.76 765.481 56.42 764.541 55.56C763.601 54.7 762.341 54.3 760.981 54.3C759.461 54.3 758.121 54.84 757.161 55.78C756.181 56.74 755.601 58.08 755.601 59.74V59.9C755.601 61.58 756.181 62.9 757.161 63.8C758.121 64.74 759.481 65.22 761.061 65.22ZM763.261 58.64H758.581C758.801 57.14 759.681 56.3 760.981 56.3C762.361 56.3 763.161 57.04 763.261 58.64ZM770.731 65.22C772.391 65.22 773.271 64.6 773.891 63.74V65H776.711V58.18C776.711 56.76 776.271 55.8 775.491 55.18C774.691 54.56 773.611 54.3 772.331 54.3C771.051 54.3 769.911 54.58 769.091 55.16C768.271 55.74 767.711 56.66 767.631 57.88H770.371C770.511 56.98 771.011 56.4 772.151 56.4C773.491 56.4 773.851 57.06 773.851 58.32V58.74H772.671C771.071 58.74 769.711 58.96 768.751 59.5C767.791 60.04 767.231 60.88 767.231 62.1C767.231 63.2 767.631 63.98 768.271 64.48C768.911 64.98 769.771 65.22 770.731 65.22ZM771.591 63.2C770.531 63.2 770.071 62.72 770.071 61.94C770.071 60.82 771.051 60.46 772.731 60.46H773.851V61.34C773.851 62.52 772.871 63.2 771.591 63.2ZM779.114 49.8V65H781.994V49.8H779.114ZM788.294 65.2C789.074 65.2 789.654 65.06 790.054 64.92V62.68C789.734 62.82 789.374 62.88 788.954 62.88C788.174 62.88 787.794 62.46 787.794 61.64V56.6H789.994V54.54H787.794V52.28H784.914V54.54H783.574V56.6H784.914V61.9C784.914 64.08 786.074 65.2 788.294 65.2ZM791.848 49.8V65H794.748V58.96C794.748 57.42 795.668 56.66 796.928 56.66C798.208 56.66 798.768 57.32 798.768 58.76V65H801.668V58.34C801.668 56.96 801.308 55.92 800.688 55.26C800.048 54.62 799.188 54.3 798.148 54.3C796.388 54.3 795.288 55.16 794.748 56.2V49.8H791.848ZM803.167 66.72L804.927 67.46L807.647 62.8L804.927 61.78L803.167 66.72ZM616.662 74.8V90H619.542V74.8H616.662ZM626.841 90.22C629.721 90.22 631.501 88.96 631.841 86.7H629.101C628.921 87.58 628.281 88.16 626.921 88.16C625.321 88.16 624.401 87.18 624.321 85.42H631.861V84.62C631.861 82.76 631.261 81.42 630.321 80.56C629.381 79.7 628.121 79.3 626.761 79.3C625.241 79.3 623.901 79.84 622.941 80.78C621.961 81.74 621.381 83.08 621.381 84.74V84.9C621.381 86.58 621.961 87.9 622.941 88.8C623.901 89.74 625.261 90.22 626.841 90.22ZM629.041 83.64H624.361C624.581 82.14 625.461 81.3 626.761 81.3C628.141 81.3 628.941 82.04 629.041 83.64ZM638.234 93.86C641.694 93.86 643.734 92.3 643.754 89.18V79.54H640.874V81.1C640.254 80.04 639.254 79.3 637.554 79.3C636.254 79.3 635.094 79.84 634.274 80.72C633.454 81.62 632.954 82.9 632.954 84.4V84.54C632.954 86.08 633.474 87.34 634.294 88.2C635.094 89.06 636.234 89.54 637.514 89.54C638.294 89.54 638.974 89.32 639.554 88.94C640.134 88.6 640.574 88.1 640.874 87.6V89.18C640.874 90.84 639.994 91.74 638.234 91.74C636.734 91.74 636.094 91.16 635.914 90.22H633.034C633.174 91.32 633.614 92.22 634.474 92.86C635.294 93.5 636.554 93.86 638.234 93.86ZM638.374 87.36C636.934 87.36 635.914 86.3 635.914 84.54V84.38C635.914 82.64 636.814 81.5 638.434 81.5C640.034 81.5 640.954 82.58 640.954 84.36V84.5C640.954 86.28 639.894 87.36 638.374 87.36ZM648.983 90.22C650.643 90.22 651.523 89.6 652.143 88.74V90H654.963V83.18C654.963 81.76 654.523 80.8 653.743 80.18C652.943 79.56 651.863 79.3 650.583 79.3C649.303 79.3 648.163 79.58 647.343 80.16C646.523 80.74 645.963 81.66 645.883 82.88H648.623C648.763 81.98 649.263 81.4 650.403 81.4C651.743 81.4 652.103 82.06 652.103 83.32V83.74H650.923C649.323 83.74 647.963 83.96 647.003 84.5C646.043 85.04 645.483 85.88 645.483 87.1C645.483 88.2 645.883 88.98 646.523 89.48C647.163 89.98 648.023 90.22 648.983 90.22ZM649.843 88.2C648.783 88.2 648.323 87.72 648.323 86.94C648.323 85.82 649.303 85.46 650.983 85.46H652.103V86.34C652.103 87.52 651.123 88.2 649.843 88.2ZM662.026 90.22C663.546 90.22 664.746 89.78 665.606 89.04C666.466 88.32 666.946 87.28 667.026 86.02H664.406C664.266 87.38 663.346 88.04 662.166 88.04C660.546 88.04 659.606 86.96 659.606 84.86V84.7C659.606 82.7 660.586 81.58 662.106 81.58C663.326 81.58 664.046 82.16 664.226 83.36H666.966C666.826 81.86 666.206 80.84 665.326 80.2C664.426 79.56 663.246 79.3 662.046 79.3C660.546 79.3 659.206 79.8 658.226 80.74C657.246 81.7 656.646 83.06 656.646 84.74V84.9C656.646 86.6 657.226 87.94 658.186 88.84C659.146 89.74 660.506 90.22 662.026 90.22ZM671.55 88.94L669.71 93.56H672.51L678.17 79.54H675.39L673.05 85.82L670.51 79.54H667.39L671.55 88.94ZM677.248 91.72L679.008 92.46L681.728 87.8L679.008 86.78L677.248 91.72ZM687.893 74.8V90H690.793V83.96C690.793 82.42 691.713 81.66 692.973 81.66C694.253 81.66 694.813 82.32 694.813 83.76V90H697.713V83.34C697.713 81.96 697.353 80.92 696.733 80.26C696.093 79.62 695.233 79.3 694.193 79.3C692.433 79.3 691.333 80.16 690.793 81.2V74.8H687.893ZM704.852 90.22C707.732 90.22 709.512 88.96 709.852 86.7H707.112C706.932 87.58 706.292 88.16 704.932 88.16C703.332 88.16 702.412 87.18 702.332 85.42H709.872V84.62C709.872 82.76 709.272 81.42 708.332 80.56C707.392 79.7 706.132 79.3 704.772 79.3C703.252 79.3 701.912 79.84 700.952 80.78C699.972 81.74 699.392 83.08 699.392 84.74V84.9C699.392 86.58 699.972 87.9 700.952 88.8C701.912 89.74 703.272 90.22 704.852 90.22ZM707.052 83.64H702.372C702.592 82.14 703.472 81.3 704.772 81.3C706.152 81.3 706.952 82.04 707.052 83.64ZM711.605 79.54V90H714.505V84.76C714.505 82.76 715.725 82.06 717.885 82.08V79.38C716.185 79.4 715.165 80.12 714.505 81.54V79.54H711.605ZM721.123 78.12C722.063 78.12 722.783 77.44 722.783 76.54C722.783 75.64 722.063 74.96 721.123 74.96C720.183 74.96 719.483 75.64 719.483 76.54C719.483 77.44 720.183 78.12 721.123 78.12ZM719.703 79.54V90H722.583V79.54H719.703ZM728.902 90.2C729.682 90.2 730.262 90.06 730.662 89.92V87.68C730.342 87.82 729.982 87.88 729.562 87.88C728.782 87.88 728.402 87.46 728.402 86.64V81.6H730.602V79.54H728.402V77.28H725.522V79.54H724.182V81.6H725.522V86.9C725.522 89.08 726.682 90.2 728.902 90.2ZM735.374 90.22C737.034 90.22 737.914 89.6 738.534 88.74V90H741.354V83.18C741.354 81.76 740.914 80.8 740.134 80.18C739.334 79.56 738.254 79.3 736.974 79.3C735.694 79.3 734.554 79.58 733.734 80.16C732.914 80.74 732.354 81.66 732.274 82.88H735.014C735.154 81.98 735.654 81.4 736.794 81.4C738.134 81.4 738.494 82.06 738.494 83.32V83.74H737.314C735.714 83.74 734.354 83.96 733.394 84.5C732.434 85.04 731.874 85.88 731.874 87.1C731.874 88.2 732.274 88.98 732.914 89.48C733.554 89.98 734.414 90.22 735.374 90.22ZM736.234 88.2C735.174 88.2 734.714 87.72 734.714 86.94C734.714 85.82 735.694 85.46 737.374 85.46H738.494V86.34C738.494 87.52 737.514 88.2 736.234 88.2ZM748.317 93.86C751.777 93.86 753.817 92.3 753.837 89.18V79.54H750.957V81.1C750.337 80.04 749.337 79.3 747.637 79.3C746.337 79.3 745.177 79.84 744.357 80.72C743.537 81.62 743.037 82.9 743.037 84.4V84.54C743.037 86.08 743.557 87.34 744.377 88.2C745.177 89.06 746.317 89.54 747.597 89.54C748.377 89.54 749.057 89.32 749.637 88.94C750.217 88.6 750.657 88.1 750.957 87.6V89.18C750.957 90.84 750.077 91.74 748.317 91.74C746.817 91.74 746.177 91.16 745.997 90.22H743.117C743.257 91.32 743.697 92.22 744.557 92.86C745.377 93.5 746.637 93.86 748.317 93.86ZM748.457 87.36C747.017 87.36 745.997 86.3 745.997 84.54V84.38C745.997 82.64 746.897 81.5 748.517 81.5C750.117 81.5 751.037 82.58 751.037 84.36V84.5C751.037 86.28 749.977 87.36 748.457 87.36ZM761.066 90.22C763.946 90.22 765.726 88.96 766.066 86.7H763.326C763.146 87.58 762.506 88.16 761.146 88.16C759.546 88.16 758.626 87.18 758.546 85.42H766.086V84.62C766.086 82.76 765.486 81.42 764.546 80.56C763.606 79.7 762.346 79.3 760.986 79.3C759.466 79.3 758.126 79.84 757.166 80.78C756.186 81.74 755.606 83.08 755.606 84.74V84.9C755.606 86.58 756.186 87.9 757.166 88.8C758.126 89.74 759.486 90.22 761.066 90.22ZM763.266 83.64H758.586C758.806 82.14 759.686 81.3 760.986 81.3C762.366 81.3 763.166 82.04 763.266 83.64Z" fill="#191B1D"/>
</svg>
