<svg width="862" height="661" viewBox="0 0 862 661" fill="none" xmlns="http://www.w3.org/2000/svg">
<circle cx="681" cy="330" r="180" stroke="#191B1D" stroke-width="1.2"/>
<circle cx="181" cy="330" r="180" stroke="#191B1D" stroke-width="1.2"/>
<circle cx="431" cy="480" r="180" stroke="#191B1D" stroke-width="1.2"/>
<circle cx="431" cy="180" r="180" fill="#191B1D"/>
<path d="M369.076 150.55V172H373.906V164.2H376.636C379.066 164.2 381.076 163.66 382.486 162.55C383.896 161.44 384.676 159.79 384.676 157.51V157.39C384.676 152.83 381.736 150.55 376.486 150.55H369.076ZM376.366 160.81H373.906V154.24H376.366C378.676 154.24 379.996 155.14 379.996 157.42V157.54C379.996 159.7 378.796 160.81 376.366 160.81ZM386.616 156.31V172H390.966V164.14C390.966 161.14 392.796 160.09 396.036 160.12V156.07C393.486 156.1 391.956 157.18 390.966 159.31V156.31H386.616ZM405.07 169.03C402.58 169.03 401.23 167.23 401.23 164.23V163.99C401.23 160.99 402.67 159.25 405.07 159.25C407.5 159.25 408.91 161.05 408.91 164.05V164.26C408.91 167.26 407.5 169.03 405.07 169.03ZM405.04 172.33C407.41 172.33 409.48 171.55 410.95 170.14C412.42 168.73 413.32 166.72 413.32 164.23V163.99C413.32 161.56 412.42 159.55 410.98 158.14C409.51 156.73 407.44 155.95 405.07 155.95C402.7 155.95 400.63 156.76 399.16 158.17C397.69 159.58 396.79 161.65 396.79 164.08V164.32C396.79 166.75 397.69 168.79 399.16 170.14C400.63 171.55 402.67 172.33 405.04 172.33ZM421.268 172.33C423.578 172.33 425.498 170.98 426.308 169.39V172H430.628V149.2H426.308V158.65C425.438 157.06 423.878 155.95 421.358 155.95C419.408 155.95 417.668 156.7 416.438 158.11C415.208 159.52 414.458 161.59 414.458 164.14V164.38C414.458 166.99 415.208 168.97 416.438 170.29C417.668 171.64 419.348 172.33 421.268 172.33ZM422.558 168.94C420.398 168.94 418.898 167.41 418.898 164.29V164.05C418.898 160.93 420.248 159.28 422.678 159.28C425.078 159.28 426.428 160.87 426.428 163.99V164.23C426.428 167.44 424.838 168.94 422.558 168.94ZM438.891 172.33C441.501 172.33 443.061 171.13 443.871 169.54V172H448.191V156.31H443.871V165.52C443.871 167.83 442.431 168.97 440.601 168.97C438.801 168.97 437.871 167.89 437.871 165.82V156.31H433.551V166.42C433.551 168.46 434.121 169.96 435.081 170.92C436.041 171.88 437.361 172.33 438.891 172.33ZM458.301 172.33C460.581 172.33 462.381 171.67 463.671 170.56C464.961 169.48 465.681 167.92 465.801 166.03H461.871C461.661 168.07 460.281 169.06 458.511 169.06C456.081 169.06 454.671 167.44 454.671 164.29V164.05C454.671 161.05 456.141 159.37 458.421 159.37C460.251 159.37 461.331 160.24 461.601 162.04H465.711C465.501 159.79 464.571 158.26 463.251 157.3C461.901 156.34 460.131 155.95 458.331 155.95C456.081 155.95 454.071 156.7 452.601 158.11C451.131 159.55 450.231 161.59 450.231 164.11V164.35C450.231 166.9 451.101 168.91 452.541 170.26C453.981 171.61 456.021 172.33 458.301 172.33ZM473.417 172.3C474.587 172.3 475.457 172.09 476.057 171.88V168.52C475.577 168.73 475.037 168.82 474.407 168.82C473.237 168.82 472.667 168.19 472.667 166.96V159.4H475.967V156.31H472.667V152.92H468.347V156.31H466.337V159.4H468.347V167.35C468.347 170.62 470.087 172.3 473.417 172.3ZM477.547 157.48L480.007 158.5L483.907 151.57L480.037 150.16L477.547 157.48ZM489.004 172.33C493.174 172.33 495.604 170.56 495.604 167.17C495.604 165.49 495.034 164.41 494.044 163.66C492.994 162.94 491.464 162.52 489.514 162.25C487.234 161.92 486.484 161.53 486.484 160.54C486.484 159.58 487.294 158.92 488.704 158.92C490.234 158.92 490.924 159.52 491.164 160.81H495.154C494.944 159.01 494.194 157.78 493.084 157.03C491.914 156.28 490.384 155.95 488.674 155.95C487.084 155.95 485.494 156.34 484.384 157.15C483.214 157.99 482.464 159.19 482.464 160.84C482.464 162.37 482.854 163.45 483.814 164.2C484.744 164.95 486.184 165.4 488.254 165.73C490.534 166.06 491.434 166.51 491.434 167.59C491.434 168.67 490.654 169.3 488.974 169.3C487.054 169.3 486.424 168.49 486.214 167.08H482.164C482.314 170.47 484.774 172.33 489.004 172.33ZM371.016 207.33C375.186 207.33 377.616 205.56 377.616 202.17C377.616 200.49 377.046 199.41 376.056 198.66C375.006 197.94 373.476 197.52 371.526 197.25C369.246 196.92 368.496 196.53 368.496 195.54C368.496 194.58 369.306 193.92 370.716 193.92C372.246 193.92 372.936 194.52 373.176 195.81H377.166C376.956 194.01 376.206 192.78 375.096 192.03C373.926 191.28 372.396 190.95 370.686 190.95C369.096 190.95 367.506 191.34 366.396 192.15C365.226 192.99 364.476 194.19 364.476 195.84C364.476 197.37 364.866 198.45 365.826 199.2C366.756 199.95 368.196 200.4 370.266 200.73C372.546 201.06 373.446 201.51 373.446 202.59C373.446 203.67 372.666 204.3 370.986 204.3C369.066 204.3 368.436 203.49 368.226 202.08H364.176C364.326 205.47 366.786 207.33 371.016 207.33ZM385.257 207.3C386.427 207.3 387.297 207.09 387.897 206.88V203.52C387.417 203.73 386.877 203.82 386.247 203.82C385.077 203.82 384.507 203.19 384.507 201.96V194.4H387.807V191.31H384.507V187.92H380.187V191.31H378.177V194.4H380.187V202.35C380.187 205.62 381.927 207.3 385.257 207.3ZM397.307 204.03C394.817 204.03 393.467 202.23 393.467 199.23V198.99C393.467 195.99 394.907 194.25 397.307 194.25C399.737 194.25 401.147 196.05 401.147 199.05V199.26C401.147 202.26 399.737 204.03 397.307 204.03ZM397.277 207.33C399.647 207.33 401.717 206.55 403.187 205.14C404.657 203.73 405.557 201.72 405.557 199.23V198.99C405.557 196.56 404.657 194.55 403.217 193.14C401.747 191.73 399.677 190.95 397.307 190.95C394.937 190.95 392.867 191.76 391.397 193.17C389.927 194.58 389.027 196.65 389.027 199.08V199.32C389.027 201.75 389.927 203.79 391.397 205.14C392.867 206.55 394.907 207.33 397.277 207.33ZM407.625 191.31V207H411.975V199.14C411.975 196.14 413.805 195.09 417.045 195.12V191.07C414.495 191.1 412.965 192.18 411.975 194.31V191.31H407.625ZM423.938 205.41L421.178 212.34H425.378L433.868 191.31H429.698L426.188 200.73L422.378 191.31H417.698L423.938 205.41ZM443.071 189.18C444.481 189.18 445.561 188.16 445.561 186.81C445.561 185.46 444.481 184.44 443.071 184.44C441.661 184.44 440.611 185.46 440.611 186.81C440.611 188.16 441.661 189.18 443.071 189.18ZM440.941 191.31V207H445.261V191.31H440.941ZM454.291 207.33C456.601 207.33 458.521 205.98 459.331 204.39V207H463.651V184.2H459.331V193.65C458.461 192.06 456.901 190.95 454.381 190.95C452.431 190.95 450.691 191.7 449.461 193.11C448.231 194.52 447.481 196.59 447.481 199.14V199.38C447.481 201.99 448.231 203.97 449.461 205.29C450.691 206.64 452.371 207.33 454.291 207.33ZM455.581 203.94C453.421 203.94 451.921 202.41 451.921 199.29V199.05C451.921 195.93 453.271 194.28 455.701 194.28C458.101 194.28 459.451 195.87 459.451 198.99V199.23C459.451 202.44 457.861 203.94 455.581 203.94ZM473.923 207.33C478.243 207.33 480.913 205.44 481.423 202.05H477.313C477.043 203.37 476.083 204.24 474.043 204.24C471.643 204.24 470.263 202.77 470.143 200.13H481.453V198.93C481.453 196.14 480.553 194.13 479.143 192.84C477.733 191.55 475.843 190.95 473.803 190.95C471.523 190.95 469.513 191.76 468.073 193.17C466.603 194.61 465.733 196.62 465.733 199.11V199.35C465.733 201.87 466.603 203.85 468.073 205.2C469.513 206.61 471.553 207.33 473.923 207.33ZM477.223 197.46H470.203C470.533 195.21 471.853 193.95 473.803 193.95C475.873 193.95 477.073 195.06 477.223 197.46ZM487.828 207.33C490.318 207.33 491.638 206.4 492.568 205.11V207H496.798V196.77C496.798 194.64 496.138 193.2 494.968 192.27C493.768 191.34 492.148 190.95 490.228 190.95C488.308 190.95 486.598 191.37 485.368 192.24C484.138 193.11 483.298 194.49 483.178 196.32H487.288C487.498 194.97 488.248 194.1 489.958 194.1C491.968 194.1 492.508 195.09 492.508 196.98V197.61H490.738C488.338 197.61 486.298 197.94 484.858 198.75C483.418 199.56 482.578 200.82 482.578 202.65C482.578 204.3 483.178 205.47 484.138 206.22C485.098 206.97 486.388 207.33 487.828 207.33ZM489.118 204.3C487.528 204.3 486.838 203.58 486.838 202.41C486.838 200.73 488.308 200.19 490.828 200.19H492.508V201.51C492.508 203.28 491.038 204.3 489.118 204.3Z" fill="white"/>
<path d="M365.44 474.22C367.2 474.22 368.72 473.76 369.84 472.86C370.96 471.98 371.68 470.62 371.86 468.86H368.68C368.42 470.7 367.18 471.6 365.4 471.6C363.02 471.6 361.68 469.9 361.68 466.92V466.76C361.68 463.78 363.12 462.04 365.38 462.04C367.2 462.04 368.14 462.94 368.38 464.68H371.7C371.54 462.92 370.8 461.62 369.7 460.76C368.58 459.9 367.06 459.48 365.36 459.48C363.34 459.48 361.56 460.22 360.3 461.5C359.02 462.78 358.26 464.62 358.26 466.78V466.94C358.26 469.16 358.88 470.96 360.1 472.22C361.3 473.5 363.1 474.22 365.44 474.22ZM378.416 472.02C376.756 472.02 375.856 470.82 375.856 468.82V468.66C375.856 466.66 376.816 465.5 378.416 465.5C380.036 465.5 380.976 466.7 380.976 468.7V468.84C380.976 470.84 380.036 472.02 378.416 472.02ZM378.396 474.22C379.976 474.22 381.356 473.7 382.336 472.76C383.316 471.82 383.916 470.48 383.916 468.82V468.66C383.916 467.04 383.316 465.7 382.356 464.76C381.376 463.82 379.996 463.3 378.416 463.3C376.836 463.3 375.456 463.84 374.476 464.78C373.496 465.72 372.896 467.1 372.896 468.72V468.88C372.896 470.5 373.496 471.86 374.476 472.76C375.456 473.7 376.816 474.22 378.396 474.22ZM385.694 463.54V474H388.594V467.82C388.594 466.38 389.494 465.68 390.614 465.68C391.634 465.68 392.254 466.26 392.254 467.62V474H395.134V467.82C395.134 466.38 396.034 465.68 397.154 465.68C398.194 465.68 398.794 466.26 398.794 467.62V474H401.674V467.3C401.674 465.92 401.314 464.9 400.694 464.24C400.054 463.6 399.194 463.3 398.234 463.3C396.894 463.3 395.574 463.84 394.714 465.12C394.214 463.86 393.174 463.3 391.794 463.3C390.214 463.3 389.134 464.16 388.594 465.14V463.54H385.694ZM403.986 463.54V474H406.886V467.82C406.886 466.38 407.786 465.68 408.906 465.68C409.926 465.68 410.546 466.26 410.546 467.62V474H413.426V467.82C413.426 466.38 414.326 465.68 415.446 465.68C416.486 465.68 417.086 466.26 417.086 467.62V474H419.966V467.3C419.966 465.92 419.606 464.9 418.986 464.24C418.346 463.6 417.486 463.3 416.526 463.3C415.186 463.3 413.866 463.84 413.006 465.12C412.506 463.86 411.466 463.3 410.086 463.3C408.506 463.3 407.426 464.16 406.886 465.14V463.54H403.986ZM427.157 472.02C425.497 472.02 424.597 470.82 424.597 468.82V468.66C424.597 466.66 425.557 465.5 427.157 465.5C428.777 465.5 429.717 466.7 429.717 468.7V468.84C429.717 470.84 428.777 472.02 427.157 472.02ZM427.137 474.22C428.717 474.22 430.097 473.7 431.077 472.76C432.057 471.82 432.657 470.48 432.657 468.82V468.66C432.657 467.04 432.057 465.7 431.097 464.76C430.117 463.82 428.737 463.3 427.157 463.3C425.577 463.3 424.197 463.84 423.217 464.78C422.237 465.72 421.637 467.1 421.637 468.72V468.88C421.637 470.5 422.237 471.86 423.217 472.76C424.197 473.7 425.557 474.22 427.137 474.22ZM434.436 463.54V474H437.336V467.96C437.336 466.42 438.256 465.66 439.516 465.66C440.796 465.66 441.356 466.32 441.356 467.76V474H444.256V467.34C444.256 465.96 443.896 464.92 443.276 464.26C442.636 463.62 441.776 463.3 440.736 463.3C438.976 463.3 437.876 464.16 437.336 465.2V463.54H434.436ZM454.408 474.22C457.188 474.22 458.808 473.04 458.808 470.78C458.808 469.66 458.428 468.94 457.768 468.44C457.068 467.96 456.048 467.68 454.748 467.5C453.228 467.28 452.728 467.02 452.728 466.36C452.728 465.72 453.268 465.28 454.208 465.28C455.228 465.28 455.688 465.68 455.848 466.54H458.508C458.368 465.34 457.868 464.52 457.128 464.02C456.348 463.52 455.328 463.3 454.188 463.3C453.128 463.3 452.068 463.56 451.328 464.1C450.548 464.66 450.048 465.46 450.048 466.56C450.048 467.58 450.308 468.3 450.948 468.8C451.568 469.3 452.528 469.6 453.908 469.82C455.428 470.04 456.028 470.34 456.028 471.06C456.028 471.78 455.508 472.2 454.388 472.2C453.108 472.2 452.688 471.66 452.548 470.72H449.848C449.948 472.98 451.588 474.22 454.408 474.22ZM465.362 472.02C463.702 472.02 462.802 470.82 462.802 468.82V468.66C462.802 466.66 463.762 465.5 465.362 465.5C466.982 465.5 467.922 466.7 467.922 468.7V468.84C467.922 470.84 466.982 472.02 465.362 472.02ZM465.342 474.22C466.922 474.22 468.302 473.7 469.282 472.76C470.262 471.82 470.862 470.48 470.862 468.82V468.66C470.862 467.04 470.262 465.7 469.302 464.76C468.322 463.82 466.942 463.3 465.362 463.3C463.782 463.3 462.402 463.84 461.422 464.78C460.442 465.72 459.842 467.1 459.842 468.72V468.88C459.842 470.5 460.442 471.86 461.422 472.76C462.402 473.7 463.762 474.22 465.342 474.22ZM477.38 474.22C478.9 474.22 480.1 473.78 480.96 473.04C481.82 472.32 482.3 471.28 482.38 470.02H479.76C479.62 471.38 478.7 472.04 477.52 472.04C475.9 472.04 474.96 470.96 474.96 468.86V468.7C474.96 466.7 475.94 465.58 477.46 465.58C478.68 465.58 479.4 466.16 479.58 467.36H482.32C482.18 465.86 481.56 464.84 480.68 464.2C479.78 463.56 478.6 463.3 477.4 463.3C475.9 463.3 474.56 463.8 473.58 464.74C472.6 465.7 472 467.06 472 468.74V468.9C472 470.6 472.58 471.94 473.54 472.84C474.5 473.74 475.86 474.22 477.38 474.22ZM485.537 462.12C486.477 462.12 487.197 461.44 487.197 460.54C487.197 459.64 486.477 458.96 485.537 458.96C484.597 458.96 483.897 459.64 483.897 460.54C483.897 461.44 484.597 462.12 485.537 462.12ZM484.117 463.54V474H486.997V463.54H484.117ZM492.316 474.22C493.976 474.22 494.856 473.6 495.476 472.74V474H498.296V467.18C498.296 465.76 497.856 464.8 497.076 464.18C496.276 463.56 495.196 463.3 493.916 463.3C492.636 463.3 491.496 463.58 490.676 464.16C489.856 464.74 489.296 465.66 489.216 466.88H491.956C492.096 465.98 492.596 465.4 493.736 465.4C495.076 465.4 495.436 466.06 495.436 467.32V467.74H494.256C492.656 467.74 491.296 467.96 490.336 468.5C489.376 469.04 488.816 469.88 488.816 471.1C488.816 472.2 489.216 472.98 489.856 473.48C490.496 473.98 491.356 474.22 492.316 474.22ZM493.176 472.2C492.116 472.2 491.656 471.72 491.656 470.94C491.656 469.82 492.636 469.46 494.316 469.46H495.436V470.34C495.436 471.52 494.456 472.2 493.176 472.2ZM500.7 458.8V474H503.58V458.8H500.7ZM355.796 487.12C356.736 487.12 357.456 486.44 357.456 485.54C357.456 484.64 356.736 483.96 355.796 483.96C354.856 483.96 354.156 484.64 354.156 485.54C354.156 486.44 354.856 487.12 355.796 487.12ZM354.376 488.54V499H357.256V488.54H354.376ZM363.676 499.22C365.216 499.22 366.496 498.32 367.036 497.26V499H369.916V483.8H367.036V490.1C366.456 489.04 365.416 488.3 363.736 488.3C362.436 488.3 361.276 488.8 360.456 489.74C359.636 490.68 359.136 492.06 359.136 493.76V493.92C359.136 495.66 359.636 496.98 360.456 497.86C361.276 498.76 362.396 499.22 363.676 499.22ZM364.536 496.96C363.096 496.96 362.096 495.94 362.096 493.86V493.7C362.096 491.62 362.996 490.52 364.616 490.52C366.216 490.52 367.116 491.58 367.116 493.66V493.82C367.116 495.96 366.056 496.96 364.536 496.96ZM377.164 499.22C380.044 499.22 381.824 497.96 382.164 495.7H379.424C379.244 496.58 378.604 497.16 377.244 497.16C375.644 497.16 374.724 496.18 374.644 494.42H382.184V493.62C382.184 491.76 381.584 490.42 380.644 489.56C379.704 488.7 378.444 488.3 377.084 488.3C375.564 488.3 374.224 488.84 373.264 489.78C372.284 490.74 371.704 492.08 371.704 493.74V493.9C371.704 495.58 372.284 496.9 373.264 497.8C374.224 498.74 375.584 499.22 377.164 499.22ZM379.364 492.64H374.684C374.904 491.14 375.784 490.3 377.084 490.3C378.464 490.3 379.264 491.04 379.364 492.64ZM386.834 499.22C388.494 499.22 389.374 498.6 389.994 497.74V499H392.814V492.18C392.814 490.76 392.374 489.8 391.594 489.18C390.794 488.56 389.714 488.3 388.434 488.3C387.154 488.3 386.014 488.58 385.194 489.16C384.374 489.74 383.814 490.66 383.734 491.88H386.474C386.614 490.98 387.114 490.4 388.254 490.4C389.594 490.4 389.954 491.06 389.954 492.32V492.74H388.774C387.174 492.74 385.814 492.96 384.854 493.5C383.894 494.04 383.334 494.88 383.334 496.1C383.334 497.2 383.734 497.98 384.374 498.48C385.014 498.98 385.874 499.22 386.834 499.22ZM387.694 497.2C386.634 497.2 386.174 496.72 386.174 495.94C386.174 494.82 387.154 494.46 388.834 494.46H389.954V495.34C389.954 496.52 388.974 497.2 387.694 497.2ZM398.938 499.22C401.718 499.22 403.338 498.04 403.338 495.78C403.338 494.66 402.958 493.94 402.298 493.44C401.598 492.96 400.578 492.68 399.278 492.5C397.758 492.28 397.258 492.02 397.258 491.36C397.258 490.72 397.798 490.28 398.738 490.28C399.758 490.28 400.218 490.68 400.378 491.54H403.038C402.898 490.34 402.398 489.52 401.658 489.02C400.878 488.52 399.858 488.3 398.718 488.3C397.658 488.3 396.598 488.56 395.858 489.1C395.078 489.66 394.578 490.46 394.578 491.56C394.578 492.58 394.838 493.3 395.478 493.8C396.098 494.3 397.058 494.6 398.438 494.82C399.958 495.04 400.558 495.34 400.558 496.06C400.558 496.78 400.038 497.2 398.918 497.2C397.638 497.2 397.218 496.66 397.078 495.72H394.378C394.478 497.98 396.118 499.22 398.938 499.22ZM411.865 499.22C413.525 499.22 414.405 498.6 415.025 497.74V499H417.845V492.18C417.845 490.76 417.405 489.8 416.625 489.18C415.825 488.56 414.745 488.3 413.465 488.3C412.185 488.3 411.045 488.58 410.225 489.16C409.405 489.74 408.845 490.66 408.765 491.88H411.505C411.645 490.98 412.145 490.4 413.285 490.4C414.625 490.4 414.985 491.06 414.985 492.32V492.74H413.805C412.205 492.74 410.845 492.96 409.885 493.5C408.925 494.04 408.365 494.88 408.365 496.1C408.365 497.2 408.765 497.98 409.405 498.48C410.045 498.98 410.905 499.22 411.865 499.22ZM412.725 497.2C411.665 497.2 411.205 496.72 411.205 495.94C411.205 494.82 412.185 494.46 413.865 494.46H414.985V495.34C414.985 496.52 414.005 497.2 412.725 497.2ZM420.168 488.54V499H423.068V492.96C423.068 491.42 423.988 490.66 425.248 490.66C426.528 490.66 427.088 491.32 427.088 492.76V499H429.988V492.34C429.988 490.96 429.628 489.92 429.008 489.26C428.368 488.62 427.508 488.3 426.468 488.3C424.708 488.3 423.608 489.16 423.068 490.2V488.54H420.168ZM436.227 499.22C437.767 499.22 439.047 498.32 439.587 497.26V499H442.467V483.8H439.587V490.1C439.007 489.04 437.967 488.3 436.287 488.3C434.987 488.3 433.827 488.8 433.007 489.74C432.187 490.68 431.687 492.06 431.687 493.76V493.92C431.687 495.66 432.187 496.98 433.007 497.86C433.827 498.76 434.947 499.22 436.227 499.22ZM437.087 496.96C435.647 496.96 434.647 495.94 434.647 493.86V493.7C434.647 491.62 435.547 490.52 437.167 490.52C438.767 490.52 439.667 491.58 439.667 493.66V493.82C439.667 495.96 438.607 496.96 437.087 496.96ZM447.929 488.54L451.749 499H455.009L458.809 488.54H456.009L453.529 496.02L451.029 488.54H447.929ZM462.736 499.22C464.396 499.22 465.276 498.6 465.896 497.74V499H468.716V492.18C468.716 490.76 468.276 489.8 467.496 489.18C466.696 488.56 465.616 488.3 464.336 488.3C463.056 488.3 461.916 488.58 461.096 489.16C460.276 489.74 459.716 490.66 459.636 491.88H462.376C462.516 490.98 463.016 490.4 464.156 490.4C465.496 490.4 465.856 491.06 465.856 492.32V492.74H464.676C463.076 492.74 461.716 492.96 460.756 493.5C459.796 494.04 459.236 494.88 459.236 496.1C459.236 497.2 459.636 497.98 460.276 498.48C460.916 498.98 461.776 499.22 462.736 499.22ZM463.596 497.2C462.536 497.2 462.076 496.72 462.076 495.94C462.076 494.82 463.056 494.46 464.736 494.46H465.856V495.34C465.856 496.52 464.876 497.2 463.596 497.2ZM471.119 483.8V499H473.999V483.8H471.119ZM479.959 499.22C481.699 499.22 482.739 498.42 483.279 497.36V499H486.159V488.54H483.279V494.68C483.279 496.22 482.319 496.98 481.099 496.98C479.899 496.98 479.279 496.26 479.279 494.88V488.54H476.399V495.28C476.399 496.64 476.779 497.64 477.419 498.28C478.059 498.92 478.939 499.22 479.959 499.22ZM493.38 499.22C496.26 499.22 498.04 497.96 498.38 495.7H495.64C495.46 496.58 494.82 497.16 493.46 497.16C491.86 497.16 490.94 496.18 490.86 494.42H498.4V493.62C498.4 491.76 497.8 490.42 496.86 489.56C495.92 488.7 494.66 488.3 493.3 488.3C491.78 488.3 490.44 488.84 489.48 489.78C488.5 490.74 487.92 492.08 487.92 493.74V493.9C487.92 495.58 488.5 496.9 489.48 497.8C490.44 498.74 491.8 499.22 493.38 499.22ZM495.58 492.64H490.9C491.12 491.14 492 490.3 493.3 490.3C494.68 490.3 495.48 491.04 495.58 492.64ZM504.03 499.22C506.81 499.22 508.43 498.04 508.43 495.78C508.43 494.66 508.05 493.94 507.39 493.44C506.69 492.96 505.67 492.68 504.37 492.5C502.85 492.28 502.35 492.02 502.35 491.36C502.35 490.72 502.89 490.28 503.83 490.28C504.85 490.28 505.31 490.68 505.47 491.54H508.13C507.99 490.34 507.49 489.52 506.75 489.02C505.97 488.52 504.95 488.3 503.81 488.3C502.75 488.3 501.69 488.56 500.95 489.1C500.17 489.66 499.67 490.46 499.67 491.56C499.67 492.58 499.93 493.3 500.57 493.8C501.19 494.3 502.15 494.6 503.53 494.82C505.05 495.04 505.65 495.34 505.65 496.06C505.65 496.78 505.13 497.2 504.01 497.2C502.73 497.2 502.31 496.66 502.17 495.72H499.47C499.57 497.98 501.21 499.22 504.03 499.22Z" fill="#191B1D"/>
<path d="M104.175 324.22C105.935 324.22 107.455 323.76 108.575 322.86C109.695 321.98 110.415 320.62 110.595 318.86H107.415C107.155 320.7 105.915 321.6 104.135 321.6C101.755 321.6 100.415 319.9 100.415 316.92V316.76C100.415 313.78 101.855 312.04 104.115 312.04C105.935 312.04 106.875 312.94 107.115 314.68H110.435C110.275 312.92 109.535 311.62 108.435 310.76C107.315 309.9 105.795 309.48 104.095 309.48C102.075 309.48 100.295 310.22 99.035 311.5C97.755 312.78 96.995 314.62 96.995 316.78V316.94C96.995 319.16 97.615 320.96 98.835 322.22C100.035 323.5 101.835 324.22 104.175 324.22ZM115.75 324.22C117.49 324.22 118.53 323.42 119.07 322.36V324H121.95V313.54H119.07V319.68C119.07 321.22 118.11 321.98 116.89 321.98C115.69 321.98 115.07 321.26 115.07 319.88V313.54H112.19V320.28C112.19 321.64 112.57 322.64 113.21 323.28C113.85 323.92 114.73 324.22 115.75 324.22ZM128.151 324.22C130.931 324.22 132.551 323.04 132.551 320.78C132.551 319.66 132.171 318.94 131.511 318.44C130.811 317.96 129.791 317.68 128.491 317.5C126.971 317.28 126.471 317.02 126.471 316.36C126.471 315.72 127.011 315.28 127.951 315.28C128.971 315.28 129.431 315.68 129.591 316.54H132.251C132.111 315.34 131.611 314.52 130.871 314.02C130.091 313.52 129.071 313.3 127.931 313.3C126.871 313.3 125.811 313.56 125.071 314.1C124.291 314.66 123.791 315.46 123.791 316.56C123.791 317.58 124.051 318.3 124.691 318.8C125.311 319.3 126.271 319.6 127.651 319.82C129.171 320.04 129.771 320.34 129.771 321.06C129.771 321.78 129.251 322.2 128.131 322.2C126.851 322.2 126.431 321.66 126.291 320.72H123.591C123.691 322.98 125.331 324.22 128.151 324.22ZM138.044 324.2C138.824 324.2 139.404 324.06 139.804 323.92V321.68C139.484 321.82 139.124 321.88 138.704 321.88C137.924 321.88 137.544 321.46 137.544 320.64V315.6H139.744V313.54H137.544V311.28H134.664V313.54H133.324V315.6H134.664V320.9C134.664 323.08 135.824 324.2 138.044 324.2ZM146.478 322.02C144.818 322.02 143.918 320.82 143.918 318.82V318.66C143.918 316.66 144.878 315.5 146.478 315.5C148.098 315.5 149.038 316.7 149.038 318.7V318.84C149.038 320.84 148.098 322.02 146.478 322.02ZM146.458 324.22C148.038 324.22 149.418 323.7 150.398 322.76C151.378 321.82 151.978 320.48 151.978 318.82V318.66C151.978 317.04 151.378 315.7 150.418 314.76C149.438 313.82 148.058 313.3 146.478 313.3C144.898 313.3 143.518 313.84 142.538 314.78C141.558 315.72 140.958 317.1 140.958 318.72V318.88C140.958 320.5 141.558 321.86 142.538 322.76C143.518 323.7 144.878 324.22 146.458 324.22ZM153.756 313.54V324H156.656V317.82C156.656 316.38 157.556 315.68 158.676 315.68C159.696 315.68 160.316 316.26 160.316 317.62V324H163.196V317.82C163.196 316.38 164.096 315.68 165.216 315.68C166.256 315.68 166.856 316.26 166.856 317.62V324H169.736V317.3C169.736 315.92 169.376 314.9 168.756 314.24C168.116 313.6 167.256 313.3 166.296 313.3C164.956 313.3 163.636 313.84 162.776 315.12C162.276 313.86 161.236 313.3 159.856 313.3C158.276 313.3 157.196 314.16 156.656 315.14V313.54H153.756ZM176.868 324.22C179.748 324.22 181.528 322.96 181.868 320.7H179.128C178.948 321.58 178.308 322.16 176.948 322.16C175.348 322.16 174.428 321.18 174.348 319.42H181.888V318.62C181.888 316.76 181.288 315.42 180.348 314.56C179.408 313.7 178.148 313.3 176.788 313.3C175.268 313.3 173.928 313.84 172.968 314.78C171.988 315.74 171.408 317.08 171.408 318.74V318.9C171.408 320.58 171.988 321.9 172.968 322.8C173.928 323.74 175.288 324.22 176.868 324.22ZM179.068 317.64H174.388C174.608 316.14 175.488 315.3 176.788 315.3C178.168 315.3 178.968 316.04 179.068 317.64ZM183.62 313.54V324H186.52V318.76C186.52 316.76 187.74 316.06 189.9 316.08V313.38C188.2 313.4 187.18 314.12 186.52 315.54V313.54H183.62ZM191.434 314.32L193.074 315L195.674 310.38L193.094 309.44L191.434 314.32ZM199.472 324.22C202.252 324.22 203.872 323.04 203.872 320.78C203.872 319.66 203.492 318.94 202.832 318.44C202.132 317.96 201.112 317.68 199.812 317.5C198.292 317.28 197.792 317.02 197.792 316.36C197.792 315.72 198.332 315.28 199.272 315.28C200.292 315.28 200.752 315.68 200.912 316.54H203.572C203.432 315.34 202.932 314.52 202.192 314.02C201.412 313.52 200.392 313.3 199.252 313.3C198.192 313.3 197.132 313.56 196.392 314.1C195.612 314.66 195.112 315.46 195.112 316.56C195.112 317.58 195.372 318.3 196.012 318.8C196.632 319.3 197.592 319.6 198.972 319.82C200.492 320.04 201.092 320.34 201.092 321.06C201.092 321.78 200.572 322.2 199.452 322.2C198.172 322.2 197.752 321.66 197.612 320.72H194.912C195.012 322.98 196.652 324.22 199.472 324.22ZM209.579 313.54V324H212.479V317.96C212.479 316.42 213.399 315.66 214.659 315.66C215.939 315.66 216.499 316.32 216.499 317.76V324H219.399V317.34C219.399 315.96 219.039 314.92 218.419 314.26C217.779 313.62 216.919 313.3 215.879 313.3C214.119 313.3 213.019 314.16 212.479 315.2V313.54H209.579ZM226.538 324.22C229.418 324.22 231.198 322.96 231.538 320.7H228.798C228.618 321.58 227.978 322.16 226.618 322.16C225.018 322.16 224.098 321.18 224.018 319.42H231.558V318.62C231.558 316.76 230.958 315.42 230.018 314.56C229.078 313.7 227.818 313.3 226.458 313.3C224.938 313.3 223.598 313.84 222.638 314.78C221.658 315.74 221.078 317.08 221.078 318.74V318.9C221.078 320.58 221.658 321.9 222.638 322.8C223.598 323.74 224.958 324.22 226.538 324.22ZM228.738 317.64H224.058C224.278 316.14 225.158 315.3 226.458 315.3C227.838 315.3 228.638 316.04 228.738 317.64ZM238.111 324.22C240.991 324.22 242.771 322.96 243.111 320.7H240.371C240.191 321.58 239.551 322.16 238.191 322.16C236.591 322.16 235.671 321.18 235.591 319.42H243.131V318.62C243.131 316.76 242.531 315.42 241.591 314.56C240.651 313.7 239.391 313.3 238.031 313.3C236.511 313.3 235.171 313.84 234.211 314.78C233.231 315.74 232.651 317.08 232.651 318.74V318.9C232.651 320.58 233.231 321.9 234.211 322.8C235.171 323.74 236.531 324.22 238.111 324.22ZM240.311 317.64H235.631C235.851 316.14 236.731 315.3 238.031 315.3C239.411 315.3 240.211 316.04 240.311 317.64ZM248.783 324.22C250.323 324.22 251.603 323.32 252.143 322.26V324H255.023V308.8H252.143V315.1C251.563 314.04 250.523 313.3 248.843 313.3C247.543 313.3 246.383 313.8 245.563 314.74C244.743 315.68 244.243 317.06 244.243 318.76V318.92C244.243 320.66 244.743 321.98 245.563 322.86C246.383 323.76 247.503 324.22 248.783 324.22ZM249.643 321.96C248.203 321.96 247.203 320.94 247.203 318.86V318.7C247.203 316.62 248.103 315.52 249.723 315.52C251.323 315.52 252.223 316.58 252.223 318.66V318.82C252.223 320.96 251.163 321.96 249.643 321.96ZM261.252 324.22C264.032 324.22 265.652 323.04 265.652 320.78C265.652 319.66 265.272 318.94 264.612 318.44C263.912 317.96 262.892 317.68 261.592 317.5C260.072 317.28 259.572 317.02 259.572 316.36C259.572 315.72 260.112 315.28 261.052 315.28C262.072 315.28 262.532 315.68 262.692 316.54H265.352C265.212 315.34 264.712 314.52 263.972 314.02C263.192 313.52 262.172 313.3 261.032 313.3C259.972 313.3 258.912 313.56 258.172 314.1C257.392 314.66 256.892 315.46 256.892 316.56C256.892 317.58 257.152 318.3 257.792 318.8C258.412 319.3 259.372 319.6 260.752 319.82C262.272 320.04 262.872 320.34 262.872 321.06C262.872 321.78 262.352 322.2 261.232 322.2C259.952 322.2 259.532 321.66 259.392 320.72H256.692C256.792 322.98 258.432 324.22 261.252 324.22ZM130.599 349.22C132.259 349.22 133.139 348.6 133.759 347.74V349H136.579V342.18C136.579 340.76 136.139 339.8 135.359 339.18C134.559 338.56 133.479 338.3 132.199 338.3C130.919 338.3 129.779 338.58 128.959 339.16C128.139 339.74 127.579 340.66 127.499 341.88H130.239C130.379 340.98 130.879 340.4 132.019 340.4C133.359 340.4 133.719 341.06 133.719 342.32V342.74H132.539C130.939 342.74 129.579 342.96 128.619 343.5C127.659 344.04 127.099 344.88 127.099 346.1C127.099 347.2 127.499 347.98 128.139 348.48C128.779 348.98 129.639 349.22 130.599 349.22ZM131.459 347.2C130.399 347.2 129.939 346.72 129.939 345.94C129.939 344.82 130.919 344.46 132.599 344.46H133.719V345.34C133.719 346.52 132.739 347.2 131.459 347.2ZM138.902 338.54V349H141.802V342.96C141.802 341.42 142.722 340.66 143.982 340.66C145.262 340.66 145.822 341.32 145.822 342.76V349H148.722V342.34C148.722 340.96 148.362 339.92 147.742 339.26C147.102 338.62 146.242 338.3 145.202 338.3C143.442 338.3 142.342 339.16 141.802 340.2V338.54H138.902ZM154.961 349.22C156.501 349.22 157.781 348.32 158.321 347.26V349H161.201V333.8H158.321V340.1C157.741 339.04 156.701 338.3 155.021 338.3C153.721 338.3 152.561 338.8 151.741 339.74C150.921 340.68 150.421 342.06 150.421 343.76V343.92C150.421 345.66 150.921 346.98 151.741 347.86C152.561 348.76 153.681 349.22 154.961 349.22ZM155.821 346.96C154.381 346.96 153.381 345.94 153.381 343.86V343.7C153.381 341.62 154.281 340.52 155.901 340.52C157.501 340.52 158.401 341.58 158.401 343.66V343.82C158.401 345.96 157.341 346.96 155.821 346.96ZM171.583 349.22C173.123 349.22 174.403 348.32 174.943 347.26V349H177.823V333.8H174.943V340.1C174.363 339.04 173.323 338.3 171.643 338.3C170.343 338.3 169.183 338.8 168.363 339.74C167.543 340.68 167.043 342.06 167.043 343.76V343.92C167.043 345.66 167.543 346.98 168.363 347.86C169.183 348.76 170.303 349.22 171.583 349.22ZM172.443 346.96C171.003 346.96 170.003 345.94 170.003 343.86V343.7C170.003 341.62 170.903 340.52 172.523 340.52C174.123 340.52 175.023 341.58 175.023 343.66V343.82C175.023 345.96 173.963 346.96 172.443 346.96ZM185.072 349.22C187.952 349.22 189.732 347.96 190.072 345.7H187.332C187.152 346.58 186.512 347.16 185.152 347.16C183.552 347.16 182.632 346.18 182.552 344.42H190.092V343.62C190.092 341.76 189.492 340.42 188.552 339.56C187.612 338.7 186.352 338.3 184.992 338.3C183.472 338.3 182.132 338.84 181.172 339.78C180.192 340.74 179.612 342.08 179.612 343.74V343.9C179.612 345.58 180.192 346.9 181.172 347.8C182.132 348.74 183.492 349.22 185.072 349.22ZM187.272 342.64H182.592C182.812 341.14 183.692 340.3 184.992 340.3C186.372 340.3 187.172 341.04 187.272 342.64ZM195.722 349.22C198.502 349.22 200.122 348.04 200.122 345.78C200.122 344.66 199.742 343.94 199.082 343.44C198.382 342.96 197.362 342.68 196.062 342.5C194.542 342.28 194.042 342.02 194.042 341.36C194.042 340.72 194.582 340.28 195.522 340.28C196.542 340.28 197.002 340.68 197.162 341.54H199.822C199.682 340.34 199.182 339.52 198.442 339.02C197.662 338.52 196.642 338.3 195.502 338.3C194.442 338.3 193.382 338.56 192.642 339.1C191.862 339.66 191.362 340.46 191.362 341.56C191.362 342.58 191.622 343.3 192.262 343.8C192.882 344.3 193.842 344.6 195.222 344.82C196.742 345.04 197.342 345.34 197.342 346.06C197.342 346.78 196.822 347.2 195.702 347.2C194.422 347.2 194.002 346.66 193.862 345.72H191.162C191.262 347.98 192.902 349.22 195.722 349.22ZM203.295 337.12C204.235 337.12 204.955 336.44 204.955 335.54C204.955 334.64 204.235 333.96 203.295 333.96C202.355 333.96 201.655 334.64 201.655 335.54C201.655 336.44 202.355 337.12 203.295 337.12ZM201.875 338.54V349H204.755V338.54H201.875ZM207.255 338.54V349H210.155V343.76C210.155 341.76 211.375 341.06 213.535 341.08V338.38C211.835 338.4 210.815 339.12 210.155 340.54V338.54H207.255ZM219.897 349.22C222.777 349.22 224.557 347.96 224.897 345.7H222.157C221.977 346.58 221.337 347.16 219.977 347.16C218.377 347.16 217.457 346.18 217.377 344.42H224.917V343.62C224.917 341.76 224.317 340.42 223.377 339.56C222.437 338.7 221.177 338.3 219.817 338.3C218.297 338.3 216.957 338.84 215.997 339.78C215.017 340.74 214.437 342.08 214.437 343.74V343.9C214.437 345.58 215.017 346.9 215.997 347.8C216.957 348.74 218.317 349.22 219.897 349.22ZM222.097 342.64H217.417C217.637 341.14 218.517 340.3 219.817 340.3C221.197 340.3 221.997 341.04 222.097 342.64ZM230.548 349.22C233.328 349.22 234.948 348.04 234.948 345.78C234.948 344.66 234.568 343.94 233.908 343.44C233.208 342.96 232.188 342.68 230.888 342.5C229.368 342.28 228.868 342.02 228.868 341.36C228.868 340.72 229.408 340.28 230.348 340.28C231.368 340.28 231.828 340.68 231.988 341.54H234.648C234.508 340.34 234.008 339.52 233.268 339.02C232.488 338.52 231.468 338.3 230.328 338.3C229.268 338.3 228.208 338.56 227.468 339.1C226.688 339.66 226.188 340.46 226.188 341.56C226.188 342.58 226.448 343.3 227.088 343.8C227.708 344.3 228.668 344.6 230.048 344.82C231.568 345.04 232.168 345.34 232.168 346.06C232.168 346.78 231.648 347.2 230.528 347.2C229.248 347.2 228.828 346.66 228.688 345.72H225.988C226.088 347.98 227.728 349.22 230.548 349.22Z" fill="#191B1D"/>
<path d="M587.617 309.7V324H590.837V318.8H592.657C594.277 318.8 595.617 318.44 596.557 317.7C597.497 316.96 598.017 315.86 598.017 314.34V314.26C598.017 311.22 596.057 309.7 592.557 309.7H587.617ZM592.477 316.54H590.837V312.16H592.477C594.017 312.16 594.897 312.76 594.897 314.28V314.36C594.897 315.8 594.097 316.54 592.477 316.54ZM599.711 313.54V324H602.611V318.76C602.611 316.76 603.831 316.06 605.991 316.08V313.38C604.291 313.4 603.271 314.12 602.611 315.54V313.54H599.711ZM612.414 322.02C610.754 322.02 609.854 320.82 609.854 318.82V318.66C609.854 316.66 610.814 315.5 612.414 315.5C614.034 315.5 614.974 316.7 614.974 318.7V318.84C614.974 320.84 614.034 322.02 612.414 322.02ZM612.394 324.22C613.974 324.22 615.354 323.7 616.334 322.76C617.314 321.82 617.914 320.48 617.914 318.82V318.66C617.914 317.04 617.314 315.7 616.354 314.76C615.374 313.82 613.994 313.3 612.414 313.3C610.834 313.3 609.454 313.84 608.474 314.78C607.494 315.72 606.894 317.1 606.894 318.72V318.88C606.894 320.5 607.494 321.86 608.474 322.76C609.454 323.7 610.814 324.22 612.394 324.22ZM623.612 324.22C625.152 324.22 626.432 323.32 626.972 322.26V324H629.852V308.8H626.972V315.1C626.392 314.04 625.352 313.3 623.672 313.3C622.372 313.3 621.212 313.8 620.392 314.74C619.572 315.68 619.072 317.06 619.072 318.76V318.92C619.072 320.66 619.572 321.98 620.392 322.86C621.212 323.76 622.332 324.22 623.612 324.22ZM624.472 321.96C623.032 321.96 622.032 320.94 622.032 318.86V318.7C622.032 316.62 622.932 315.52 624.552 315.52C626.152 315.52 627.052 316.58 627.052 318.66V318.82C627.052 320.96 625.992 321.96 624.472 321.96ZM635.76 324.22C637.5 324.22 638.54 323.42 639.08 322.36V324H641.96V313.54H639.08V319.68C639.08 321.22 638.12 321.98 636.9 321.98C635.7 321.98 635.08 321.26 635.08 319.88V313.54H632.2V320.28C632.2 321.64 632.58 322.64 633.22 323.28C633.86 323.92 634.74 324.22 635.76 324.22ZM649.101 324.22C650.621 324.22 651.821 323.78 652.681 323.04C653.541 322.32 654.021 321.28 654.101 320.02H651.481C651.341 321.38 650.421 322.04 649.241 322.04C647.621 322.04 646.681 320.96 646.681 318.86V318.7C646.681 316.7 647.661 315.58 649.181 315.58C650.401 315.58 651.121 316.16 651.301 317.36H654.041C653.901 315.86 653.281 314.84 652.401 314.2C651.501 313.56 650.321 313.3 649.121 313.3C647.621 313.3 646.281 313.8 645.301 314.74C644.321 315.7 643.721 317.06 643.721 318.74V318.9C643.721 320.6 644.301 321.94 645.261 322.84C646.221 323.74 647.581 324.22 649.101 324.22ZM659.578 324.2C660.358 324.2 660.938 324.06 661.338 323.92V321.68C661.018 321.82 660.658 321.88 660.238 321.88C659.458 321.88 659.078 321.46 659.078 320.64V315.6H661.278V313.54H659.078V311.28H656.198V313.54H654.858V315.6H656.198V320.9C656.198 323.08 657.358 324.2 659.578 324.2ZM662.731 314.32L664.371 315L666.971 310.38L664.391 309.44L662.731 314.32ZM670.77 324.22C673.55 324.22 675.17 323.04 675.17 320.78C675.17 319.66 674.79 318.94 674.13 318.44C673.43 317.96 672.41 317.68 671.11 317.5C669.59 317.28 669.09 317.02 669.09 316.36C669.09 315.72 669.63 315.28 670.57 315.28C671.59 315.28 672.05 315.68 672.21 316.54H674.87C674.73 315.34 674.23 314.52 673.49 314.02C672.71 313.52 671.69 313.3 670.55 313.3C669.49 313.3 668.43 313.56 667.69 314.1C666.91 314.66 666.41 315.46 666.41 316.56C666.41 317.58 666.67 318.3 667.31 318.8C667.93 319.3 668.89 319.6 670.27 319.82C671.79 320.04 672.39 320.34 672.39 321.06C672.39 321.78 671.87 322.2 670.75 322.2C669.47 322.2 669.05 321.66 668.91 320.72H666.21C666.31 322.98 667.95 324.22 670.77 324.22ZM681.357 315.6V324H684.237V315.6H686.517V313.54H684.237V312.26C684.237 311.46 684.597 310.88 685.537 310.88C685.957 310.88 686.297 310.96 686.597 311.06V308.88C686.137 308.74 685.717 308.68 685.097 308.68C682.757 308.68 681.357 309.88 681.357 312.34V313.54H679.977V315.6H681.357ZM691.613 324.22C693.353 324.22 694.393 323.42 694.933 322.36V324H697.813V313.54H694.933V319.68C694.933 321.22 693.973 321.98 692.753 321.98C691.553 321.98 690.933 321.26 690.933 319.88V313.54H688.053V320.28C688.053 321.64 688.433 322.64 689.073 323.28C689.713 323.92 690.593 324.22 691.613 324.22ZM700.213 313.54V324H703.113V317.96C703.113 316.42 704.033 315.66 705.293 315.66C706.573 315.66 707.133 316.32 707.133 317.76V324H710.033V317.34C710.033 315.96 709.673 314.92 709.053 314.26C708.413 313.62 707.553 313.3 706.513 313.3C704.753 313.3 703.653 314.16 703.113 315.2V313.54H700.213ZM717.092 324.22C718.612 324.22 719.812 323.78 720.672 323.04C721.532 322.32 722.012 321.28 722.092 320.02H719.472C719.332 321.38 718.412 322.04 717.232 322.04C715.612 322.04 714.672 320.96 714.672 318.86V318.7C714.672 316.7 715.652 315.58 717.172 315.58C718.392 315.58 719.112 316.16 719.292 317.36H722.032C721.892 315.86 721.272 314.84 720.392 314.2C719.492 313.56 718.312 313.3 717.112 313.3C715.612 313.3 714.272 313.8 713.292 314.74C712.312 315.7 711.712 317.06 711.712 318.74V318.9C711.712 320.6 712.292 321.94 713.252 322.84C714.212 323.74 715.572 324.22 717.092 324.22ZM727.569 324.2C728.349 324.2 728.929 324.06 729.329 323.92V321.68C729.009 321.82 728.649 321.88 728.229 321.88C727.449 321.88 727.069 321.46 727.069 320.64V315.6H729.269V313.54H727.069V311.28H724.189V313.54H722.849V315.6H724.189V320.9C724.189 323.08 725.349 324.2 727.569 324.2ZM732.623 312.12C733.563 312.12 734.283 311.44 734.283 310.54C734.283 309.64 733.563 308.96 732.623 308.96C731.683 308.96 730.983 309.64 730.983 310.54C730.983 311.44 731.683 312.12 732.623 312.12ZM731.203 313.54V324H734.083V313.54H731.203ZM741.462 322.02C739.802 322.02 738.902 320.82 738.902 318.82V318.66C738.902 316.66 739.862 315.5 741.462 315.5C743.082 315.5 744.022 316.7 744.022 318.7V318.84C744.022 320.84 743.082 322.02 741.462 322.02ZM741.442 324.22C743.022 324.22 744.402 323.7 745.382 322.76C746.362 321.82 746.962 320.48 746.962 318.82V318.66C746.962 317.04 746.362 315.7 745.402 314.76C744.422 313.82 743.042 313.3 741.462 313.3C739.882 313.3 738.502 313.84 737.522 314.78C736.542 315.72 735.942 317.1 735.942 318.72V318.88C735.942 320.5 736.542 321.86 737.522 322.76C738.502 323.7 739.862 324.22 741.442 324.22ZM748.741 313.54V324H751.641V317.96C751.641 316.42 752.561 315.66 753.821 315.66C755.101 315.66 755.661 316.32 755.661 317.76V324H758.561V317.34C758.561 315.96 758.201 314.92 757.581 314.26C756.941 313.62 756.081 313.3 755.041 313.3C753.281 313.3 752.181 314.16 751.641 315.2V313.54H748.741ZM763.7 324.22C765.36 324.22 766.24 323.6 766.86 322.74V324H769.68V317.18C769.68 315.76 769.24 314.8 768.46 314.18C767.66 313.56 766.58 313.3 765.3 313.3C764.02 313.3 762.88 313.58 762.06 314.16C761.24 314.74 760.68 315.66 760.6 316.88H763.34C763.48 315.98 763.98 315.4 765.12 315.4C766.46 315.4 766.82 316.06 766.82 317.32V317.74H765.64C764.04 317.74 762.68 317.96 761.72 318.5C760.76 319.04 760.2 319.88 760.2 321.1C760.2 322.2 760.6 322.98 761.24 323.48C761.88 323.98 762.74 324.22 763.7 324.22ZM764.56 322.2C763.5 322.2 763.04 321.72 763.04 320.94C763.04 319.82 764.02 319.46 765.7 319.46H766.82V320.34C766.82 321.52 765.84 322.2 764.56 322.2ZM772.083 308.8V324H774.963V308.8H772.083ZM638.553 349.22C640.213 349.22 641.093 348.6 641.713 347.74V349H644.533V342.18C644.533 340.76 644.093 339.8 643.313 339.18C642.513 338.56 641.433 338.3 640.153 338.3C638.873 338.3 637.733 338.58 636.913 339.16C636.093 339.74 635.533 340.66 635.453 341.88H638.193C638.333 340.98 638.833 340.4 639.973 340.4C641.313 340.4 641.673 341.06 641.673 342.32V342.74H640.493C638.893 342.74 637.533 342.96 636.573 343.5C635.613 344.04 635.053 344.88 635.053 346.1C635.053 347.2 635.453 347.98 636.093 348.48C636.733 348.98 637.593 349.22 638.553 349.22ZM639.413 347.2C638.353 347.2 637.893 346.72 637.893 345.94C637.893 344.82 638.873 344.46 640.553 344.46H641.673V345.34C641.673 346.52 640.693 347.2 639.413 347.2ZM650.677 349.2C651.457 349.2 652.037 349.06 652.437 348.92V346.68C652.117 346.82 651.757 346.88 651.337 346.88C650.557 346.88 650.177 346.46 650.177 345.64V340.6H652.377V338.54H650.177V336.28H647.297V338.54H645.957V340.6H647.297V345.9C647.297 348.08 648.457 349.2 650.677 349.2ZM658.05 349.2C658.83 349.2 659.41 349.06 659.81 348.92V346.68C659.49 346.82 659.13 346.88 658.71 346.88C657.93 346.88 657.55 346.46 657.55 345.64V340.6H659.75V338.54H657.55V336.28H654.67V338.54H653.33V340.6H654.67V345.9C654.67 348.08 655.83 349.2 658.05 349.2ZM661.604 338.54V349H664.504V343.76C664.504 341.76 665.724 341.06 667.884 341.08V338.38C666.184 338.4 665.164 339.12 664.504 340.54V338.54H661.604ZM671.121 337.12C672.061 337.12 672.781 336.44 672.781 335.54C672.781 334.64 672.061 333.96 671.121 333.96C670.181 333.96 669.481 334.64 669.481 335.54C669.481 336.44 670.181 337.12 671.121 337.12ZM669.701 338.54V349H672.581V338.54H669.701ZM681.321 349.22C682.621 349.22 683.761 348.74 684.581 347.8C685.381 346.9 685.881 345.56 685.881 343.82V343.66C685.881 341.92 685.381 340.58 684.561 339.68C683.741 338.78 682.601 338.3 681.321 338.3C679.781 338.3 678.561 339.16 677.981 340.18V333.8H675.081V349H677.981V347.34C678.521 348.44 679.701 349.22 681.321 349.22ZM680.461 346.96C678.861 346.96 677.881 345.94 677.881 343.84V343.68C677.881 341.58 678.921 340.52 680.441 340.52C681.901 340.52 682.941 341.54 682.941 343.68V343.84C682.941 345.9 682.061 346.96 680.461 346.96ZM691.149 349.22C692.889 349.22 693.929 348.42 694.469 347.36V349H697.349V338.54H694.469V344.68C694.469 346.22 693.509 346.98 692.289 346.98C691.089 346.98 690.469 346.26 690.469 344.88V338.54H687.589V345.28C687.589 346.64 687.969 347.64 688.609 348.28C689.249 348.92 690.129 349.22 691.149 349.22ZM703.57 349.2C704.35 349.2 704.93 349.06 705.33 348.92V346.68C705.01 346.82 704.65 346.88 704.23 346.88C703.45 346.88 703.07 346.46 703.07 345.64V340.6H705.27V338.54H703.07V336.28H700.19V338.54H698.85V340.6H700.19V345.9C700.19 348.08 701.35 349.2 703.57 349.2ZM711.943 349.22C714.823 349.22 716.603 347.96 716.943 345.7H714.203C714.023 346.58 713.383 347.16 712.023 347.16C710.423 347.16 709.503 346.18 709.423 344.42H716.963V343.62C716.963 341.76 716.363 340.42 715.423 339.56C714.483 338.7 713.223 338.3 711.863 338.3C710.343 338.3 709.003 338.84 708.043 339.78C707.063 340.74 706.483 342.08 706.483 343.74V343.9C706.483 345.58 707.063 346.9 708.043 347.8C709.003 348.74 710.363 349.22 711.943 349.22ZM714.143 342.64H709.463C709.683 341.14 710.563 340.3 711.863 340.3C713.243 340.3 714.043 341.04 714.143 342.64ZM722.593 349.22C725.373 349.22 726.993 348.04 726.993 345.78C726.993 344.66 726.613 343.94 725.953 343.44C725.253 342.96 724.233 342.68 722.933 342.5C721.413 342.28 720.913 342.02 720.913 341.36C720.913 340.72 721.453 340.28 722.393 340.28C723.413 340.28 723.873 340.68 724.033 341.54H726.693C726.553 340.34 726.053 339.52 725.313 339.02C724.533 338.52 723.513 338.3 722.373 338.3C721.313 338.3 720.253 338.56 719.513 339.1C718.733 339.66 718.233 340.46 718.233 341.56C718.233 342.58 718.493 343.3 719.133 343.8C719.753 344.3 720.713 344.6 722.093 344.82C723.613 345.04 724.213 345.34 724.213 346.06C724.213 346.78 723.693 347.2 722.573 347.2C721.293 347.2 720.873 346.66 720.733 345.72H718.033C718.133 347.98 719.773 349.22 722.593 349.22Z" fill="#191B1D"/>
</svg>
