<svg xmlns="http://www.w3.org/2000/svg" viewBox="0 0 180 180"><rect fill="#191a1b" width="180" height="180"/><path fill="#fff" d="M61.39212,81.96261H55.36569L46.25787,59.66974H52.873L58.401,74.62253l5.30146-14.95279h6.34334Z"/><path class="cls-2" d="M76.23249,48.6136a3.71562,3.71562,0,1,1-3.71607,3.76121A3.71348,3.71348,0,0,1,76.23249,48.6136Zm-2.99109,33.349V59.66974h6.02644V81.96261Z"/><path class="cls-2" d="M106.42576,77.92964c0,1.496.09029,3.12652.18235,4.033h-5.75557a15.42485,15.42485,0,0,1-.22661-2.583,6.98777,6.98777,0,0,1-6.253,3.12652c-6.34334,0-10.87468-4.98367-10.87468-11.73509,0-6.52481,4.3959-11.6448,10.69409-11.6448,3.85062,0,5.66351,1.58539,6.29731,2.76359V49.15711h5.93615Zm-11.327-.81527c3.08049,0,5.48293-2.3564,5.48293-6.38848,0-3.98782-2.40243-6.2079-5.48293-6.2079-3.08226,0-5.529,2.26523-5.529,6.253C89.56979,74.758,91.92619,77.11437,95.09875,77.11437Z"/><path class="cls-2" d="M132.42761,75.57412c-1.13306,3.8515-4.66677,7.06832-10.1497,7.06832-6.11673,0-11.50936-4.395-11.50936-11.91656,0-7.11435,5.25631-11.736,10.96585-11.736,6.88685,0,11.01011,4.395,11.01011,11.55451,0,.86041-.09029,1.76686-.09029,1.85715H116.7047a5.42876,5.42876,0,0,0,5.61925,5.07485,4.92145,4.92145,0,0,0,5.074-3.39828Zm-5.61925-7.29581c-.09029-2.22008-1.54025-4.395-4.98367-4.395a4.82337,4.82337,0,0,0-4.98367,4.395Z"/><path class="cls-2" d="M48.71607,89.40359A3.71518,3.71518,0,1,1,45,93.16392,3.71328,3.71328,0,0,1,48.71607,89.40359ZM45.725,122.7526V100.45973h6.02644V122.7526Z"/><path class="cls-2" d="M63.5166,122.7526H57.49016V100.45973H63.336v2.76359a7.40594,7.40594,0,0,1,6.43363-3.35314c5.52807,0,8.06594,3.94268,8.06594,8.83606V122.7526H71.80915V109.749c0-2.49272-1.22335-4.44193-4.12326-4.44193-2.62816,0-4.16929,2.0395-4.16929,4.62251Z"/><path class="cls-2" d="M90.61433,98.013v2.44669H95.644v5.166h-5.0297V122.7526H84.54275V105.62576H80.82756v-5.166h3.71518v-2.537c0-5.0297,3.17167-8.29255,8.11108-8.29255a8.76535,8.76535,0,0,1,2.9902.45322v5.074a6.751,6.751,0,0,0-1.90318-.22661A2.83882,2.83882,0,0,0,90.61433,98.013Z"/><path class="cls-2" d="M112.52124,106.44014a9.031,9.031,0,0,0-1.81112-.18058c-3.08226,0-5.75557,1.49422-5.75557,6.29731V122.7526H98.92812V100.45973H104.774v3.30711c1.35967-2.94417,4.44016-3.48769,6.34334-3.48769a13.52811,13.52811,0,0,1,1.40393.09029Z"/><path class="cls-2" d="M121.67952,109.9296l5.48116-.81615c1.26938-.18058,1.67657-.81438,1.67657-1.58628,0-1.58451-1.22335-2.89991-3.76033-2.89991a3.95842,3.95842,0,0,0-4.25958,3.62578l-5.3466-1.13306c.36293-3.48946,3.57975-7.34007,9.56192-7.34007,7.06743,0,9.69648,3.98694,9.69648,8.47313v10.96585A24.92052,24.92052,0,0,0,135,122.7526h-5.52719a15.06844,15.06844,0,0,1-.22661-2.6733,7.45134,7.45134,0,0,1-6.57,3.30711c-4.75883,0-7.65875-3.21681-7.65875-6.70627C115.01751,112.69319,117.96345,110.47311,121.67952,109.9296Zm7.15772,3.80636v-.99673l-5.02793.77012c-1.542.22661-2.76536,1.087-2.76536,2.80962a2.61665,2.61665,0,0,0,2.89991,2.583C126.48261,118.902,128.83724,117.67863,128.83724,113.736Z"/></svg>
