<svg width="140" height="140" fill="none" xmlns="http://www.w3.org/2000/svg">
  <path fill-rule="evenodd" clip-rule="evenodd" d="M28.6 58.4H5v.1l.1.3.3.4v.4l.2.4.1.2.1.3.2.5.4.5v.2h21v.1h.2l.7.8.5.4.1.3.6.4.3.6.3.2.7 1 .3.5.1.3.6.8.4.9.3.3.2.6.2.4.3 1H11.5l-.7-.6-.3-.3L8.8 68l-.2-.4-.3-.3-.4-.4-.3-.4-.2-.3-.3-.5-.3-.3-.6-.8-.4-.6-1.7-3.4-.2-.3-.2-1-.2-.4-.2-.4.3-.5v-.2l.2-.4.2-.7h24.4l.8-.4.7-.7 1-.8 1.4-1.4H5.7l.2-.5.2-.2.4-.5.3-.6h26.9l.2-.1.2-.5.2-.3 1-1.6.5-.9h-26l1.1-1 .6-.5.2-.3h24.9v-.2l.3-.3.1-.3.1-.3.3-.6.2-.5v-.8l.2-.2V43h-27l-.4.4-1 .7-.5.3-.9.8-.9 1-.3.4-.4.3-.5.6-.8.7-.3.6-.7.9-.3.5-.3.5-.4.6-.3.4-.3.6-1 2-.3.6-.3.6-.1.5-.5 1.3v.5l-.3.6.2.5.1.7.5 1.1v.6l.4.5.3.5.2.7.8 1.5.3.5.3.5.7 1 .3.5.4.5.6 1 .5.4.3.4.9 1 .3.4.5.3.4.4 1 .8.5.4.4.4 1 .7h26.8v-.5l-.1-.2v-.7l-.2-.6-.4-1.4-.2-.4-.6-1.7-.3-.6-.3-.6-.2-.6-.5-.7-.3-.5-1.4-2-.5-.7-1.3-1.3-.6-.7-.7-.8-.8-.6m34-.7l-5 15-.2.6-.1.6-.2.4-.1.6-.3.4v.6l-.3.9-.1-.6-.2-.6V76l-.3-.9v-.3l-.2-.3V74l-.2-.2-.1-.4-.1-.4-.2-.7-.6-1.9-.5-1.2-.4-1.6-.6-1.7-.6-2.2-.7-2.3-.9-2.8v-.1h-7.6l10.3 30.8h6l10.6-30.8M109.5 76l.2.1h.2l.2.1.3.2.5.4.2.1.3.3.3.7.2.1v.3l.3.5v.2l.1.3v1.2l-.1.1v.2l-.1.1v.1l-.2.5v.1l-.5.4-.1.3h-.2l-.1.3-.1.1-.3.1v.1h-.4l-.1.1-.2.2-.3-.2-.3.2H105V76h4.4zM108 64.5h.4l.2.1h.5v.1h.4l.1.2h.3v.2h.4l.2.3.2.1.5.5.1.2.1.1.3.7v.2l.2.2v.1l-.2.3v.4l-.2.1v.2l-.3.3-.2.4-.4.3-.2.4h-.1l-.2.2-.1.1-.3.1h-.4l-.1.1h-4.3v-5.8h3zM98 89h14.1l2.2-.6.5-.2.4-.2.8-.3.3-.2 1.4-1.1.5-.7.5-.7.2-.4.2-.3.2-.5.7-2.7v-2l-.1-.3v-.2l-.2-.5v-.2l-.1-.2-.4-1v-.3h-.2l-.2-.5-.1-.1-.1-.2-.2-.2v-.2h-.2l-.1-.3-.1-.1-.2-.1-.1-.3h-.2l-.2-.2-.2-.2-.6-.5h-.2l-.2-.3-.3-.2-.3-.1-.3-.1-.2-.1.7-.4.5-.4.2-.2.3-.2 1.2-1.2V70l.3-.2.1-.3h.1l.2-.3v-.1l.2-.2v-.2l.2-.3h.1V68l.1-.2v-.3l.1-.2.1-.3V65l-.2-.3V64.1l-.2-.1-.2-.6-.1-.1-.1-.2-.2-.1-.2-.5-.2-.2-.1-.2-.1-.1-.1-.3-1-.9h-.2l-.2-.3v-.2l-1.1-.7-1.8-.9h-.2l-.9-.4h-.2l-.2-.1h-.3l-.2-.1h-1.1l-.6-.2H98v31zM71.5 58.4v5.9H78l.6.1h1.5v24.7H87V64.4h7.6l1.9-6" fill="#fff"/>
</svg>
