<svg width="60" height="50" fill="none" xmlns="http://www.w3.org/2000/svg"><path d="M19.672 48.688V36.516h2.336c3.074 0 4.55 1.107 4.55 3.443 0 .738-.37 1.721-.984 2.213 1.23.369 2.09 1.721 2.09 3.074 0 2.582-2.213 3.442-4.303 3.442h-3.689zm3.566-1.598c1.721 0 2.582-.615 2.582-1.967 0-1.598-1.722-1.844-2.828-1.844h-1.476v3.688h1.722v.123zm-.738-5.287c1.475 0 2.336-.246 2.336-1.844 0-1.475-.86-1.721-2.336-1.721h-.984v3.565h.984zM49.303 36.516h1.968L54.712 45l3.32-8.484H60l-5.287 13.156-5.41-13.156zM36.64 48.688V36.516h1.844v10.451h5.532l-.123.37-.614 1.351h-6.64zM9.836 48.688h1.967l-5.901-12.91L0 48.689h1.967l1.353-2.95h4.303l.492-.984 1.721 3.934zm-5.779-4.672l1.845-4.18 1.844 4.18H4.057zM30.246 16.107l.615 4.795h11.065l-11.68-6.27-11.68 6.27H29.63l-.615 5.164-10.696-5.041 11.926 6.885 11.926-6.885-11.926 5.532v-10.45zM32.09 12.787l3.935-2.95L30.492.245l.369 13.279 11.188 7.008-5.41-9.59 4.672-1.968.984 11.68V6.886L30.37 0l10.82 7.5-9.099 5.287zM28.279 12.787l-4.427-1.844-5.532 9.59 11.311-7.008L30 .245l-5.533 9.591-4.18-3.074L30 0 18.074 6.885v13.77L19.18 7.5l9.099 5.287z" fill="#191B1D"/></svg>
