<svg width="59" height="40" fill="none" xmlns="http://www.w3.org/2000/svg"><path d="M57.615 27.523a8.014 8.014 0 0 0 .611-3.058 5.626 5.626 0 0 0-2.08-4.404l-1.1-.734h-.123l.123-.122c.856-.734 1.712-1.957 1.712-4.281 0-2.08-.733-3.67-2.08-4.649-1.222-.856-2.813-1.223-5.014-1.223h-6.361c-.367 0-.612.245-.612.612v20.795c0 .367.245.611.612.611h7.217c2.324 0 4.159-.489 5.382-1.468.734-.489 1.223-1.223 1.713-2.08zM44.526 11.009h4.893c1.713 0 3.058.245 3.914.856.49.367 1.224 1.101 1.224 2.936 0 3.303-2.57 3.548-3.425 3.548h-6.606v-7.34zm5.872 17.982h-5.872v-8.563h6.605c2.936 0 4.894 1.59 4.894 3.915.122 1.223.122 4.648-5.627 4.648zM36.82 31.193h.244c.245-.123.49-.367.49-.612V0h-2.08v26.422l-13.7-17.37c-.123-.122-.367-.245-.49-.245h-.244c-.245.123-.49.367-.49.612V40h2.08V13.578l13.578 17.37c.245.122.49.245.612.245zM14.067 27.768c2.08-2.57 2.447-5.872 2.447-7.585 0-1.467-.245-5.137-2.447-7.95-.978-1.101-2.08-1.958-3.547-2.57-1.223-.489-2.447-.733-3.914-.733H.612c-.367 0-.612.367-.612.734v20.795c0 .367.245.611.612.611h5.994c1.345 0 2.69-.244 3.914-.734 1.468-.489 2.569-1.467 3.547-2.568zm-7.34 1.223H2.08V11.009h4.648c1.712 0 4.037.49 5.75 2.569 1.834 2.202 1.956 5.627 1.956 6.605 0 1.468-.244 4.282-1.957 6.361-1.713 2.08-4.037 2.447-5.75 2.447z" fill="#191B1D"/></svg>
