<svg width="50" height="50" fill="none" xmlns="http://www.w3.org/2000/svg"><path d="M25 50A24.93 24.93 0 0 1 0 25C0 11.232 11.165 0 25 0s25 11.232 25 25c0 13.889-11.286 25-25 25zm0-48.792C11.893 1.208 1.214 11.836 1.214 25c0 13.164 10.68 23.792 23.786 23.792 13.107 0 23.786-10.628 23.786-23.792 0-13.043-10.68-23.792-23.786-23.792zm21.117 30.918h-.122s-.121 0-.121-.121c0 0 .85-2.536.85-5.314 0-3.02-1.214-4.952-2.792-4.952-.97 0-1.699.725-1.699 1.691 0 1.932 2.306 2.053 2.306 6.16 0 1.69-.364 3.26-.85 4.951C41.141 43.237 33.01 47.222 25 47.222c-3.64 0-6.31-.724-7.039-1.087v-.12l.122-.121c.364.12 2.548.845 5.34.845 3.033 0 4.854-1.208 4.854-2.778 0-.966-.729-1.69-1.7-1.69-1.82 0-2.062 2.294-6.067 2.294-1.7 0-3.277-.362-5.097-.845C6.796 41.184 2.67 33.092 2.67 25c0-3.865 1.092-7.005 1.092-7.126h.122l.12.121c-.12.363-.849 2.536-.849 5.314 0 3.02 1.214 4.831 2.792 4.831.85 0 1.699-.724 1.699-1.69 0-1.933-2.306-2.054-2.306-6.16 0-1.691.364-3.261.85-5.073C8.98 6.763 16.99 2.777 25 2.657c3.64 0 6.918 1.087 7.039 1.208v.12c0 .121-.122.121-.122.121s-2.184-.845-5.34-.845c-3.033 0-4.854 1.208-4.854 2.898 0 .846.729 1.691 1.7 1.691 1.82 0 2.062-2.294 6.067-2.294 1.7 0 3.277.362 5.097.845 8.617 2.657 12.622 10.87 12.622 18.72.121 3.985-1.093 7.005-1.093 7.005zm-11.894-5.918c-2.305 0-4.126 1.69-4.126 3.865 0 1.69 1.092 3.14 2.427 3.14.486 0 .971-.242.971-.846 0-.845-1.213-1.087-1.092-2.415 0-.846.85-1.45 1.699-1.45 1.699 0 2.427 1.57 2.427 3.261-.121 2.537-1.942 4.348-4.126 4.348-2.913 0-4.733-2.778-4.733-5.797 0-4.469 2.912-6.16 4.369-6.642 0 0 4.005.724 3.883-1.088 0-.724-1.213-1.086-2.063-1.086-.97 0-1.82.241-1.82.241-.486-.241-.85-.724-.971-1.328 2.791-2.174 4.854-4.227 4.854-6.643 0-1.208-.85-2.415-2.427-2.415-2.791 0-4.976 3.623-4.976 6.884 0 .604 0 1.087.122 1.57-1.82 1.328-3.156 2.174-5.583 3.623 0-.362.122-1.087.243-2.053.85-.846 1.942-2.295 1.942-3.261 0-.483-.243-.846-.85-.846-1.335 0-2.427 2.054-2.67 3.503-.607.725-1.82 1.69-2.912 1.69-.85 0-1.093-.724-1.214-1.086 2.67-.846 5.825-4.469 5.825-7.73 0-.724-.242-2.174-2.306-2.174-3.155 0-5.703 4.59-5.703 8.213-1.093 0-1.578-1.208-1.578-2.053 0-.846.364-1.812.364-2.053 0-.242-.121-.604-.607-.604-1.092 0-1.699 1.328-1.699 3.02.122 2.173 1.578 3.622 3.52 3.743.242 1.329 1.456 2.536 2.912 2.536.85 0 2.063-.241 2.791-.966-.12.483-.12.846-.242 1.329-3.034 1.57-5.219 2.657-7.282 4.468-1.577 1.45-2.548 3.382-2.548 4.952 0 2.053 1.335 3.986 4.005 3.986 3.155 0 5.582-2.537 6.796-6.16.607-1.69.728-4.106.97-6.28 3.156-1.812 4.733-2.899 6.311-3.986.243.363.364.604.728.846-1.456.724-4.975 2.898-4.975 7.97 0 3.624 2.427 7.61 7.16 7.61 4.005 0 6.675-3.261 6.675-6.401.242-2.778-1.457-5.435-4.49-5.435zM15.17 35.87c-1.092 0-1.7-.604-1.7-1.691 0-3.02 4.127-5.797 7.282-7.367-.606 4.227-1.941 8.937-5.582 9.058zm2.306-16.305c0-2.295 2.306-6.642 3.64-6.16 1.7.484-1.334 4.953-3.64 6.16zm13.107-1.087c0-2.898 1.941-5.555 2.912-5.072 1.214.604-.85 3.26-2.912 5.072z" fill="#191B1D"/></svg>
