<svg width="200" height="200" viewBox="0 0 200 200" fill="none" xmlns="http://www.w3.org/2000/svg"><path d="M124.862 101.629c.472-.314.629-.786.629-1.258v-5.033c-.943-.157-1.887-.157-2.83-.157-.944 0-2.045 0-2.989.157v5.033c0 .472.158.944.629 1.258h-3.931c.471-.314.629-.786.629-1.258V89.205c0-.472-.315-.944-.629-1.259h3.931c-.314.315-.629.787-.629 1.258v4.719c.787 0 1.73.157 2.989.157 1.258 0 2.201-.157 2.83-.157v-4.719c0-.471-.314-.943-.629-1.258h3.932c-.472.315-.629.787-.629 1.258v11.167c0 .472.157.944.629 1.258h-3.932zm-13.053-3.145c0-2.517-6.134-3.146-6.134-7.235 0-2.516 2.359-3.46 4.561-3.46 1.101 0 2.202.157 3.303.472l.157 2.674c-.629-1.259-1.73-1.888-3.146-2.045-.943 0-2.044.472-2.044 1.573 0 2.673 6.291 3.46 6.291 7.234 0 2.831-2.517 3.932-5.033 3.932-1.415 0-2.988-.314-4.246-.944 0-.471-.158-.943-.158-1.415 0-.63.158-1.258.315-1.73.629 1.73 2.045 2.831 3.932 2.831 1.101.157 2.202-.63 2.359-1.73-.157 0-.157-.157-.157-.157zm-12.425 3.145c.472-.157.786-.786.786-1.258V89.205c0-.472-.314-.944-.786-1.259h4.246c-.471.315-.786.787-.786 1.258v11.167c0 .472.315 1.101.786 1.258h-4.246zm-9.28 0c.473-.314.63-.786.63-1.258V89.519h-2.988c-.787 0-1.416.157-2.202.315l.944-2.045h9.908c.786 0 1.573 0 2.359-.157-.315.943-1.258 1.572-2.202 1.73H93.25v10.852c0 .471.315.943.787 1.258h-3.932v.157zm-9.121 0c.472-.157.786-.786.786-1.258V89.205c0-.472-.314-.944-.786-1.259h4.246c-.472.315-.786.787-.786 1.258v11.167c0 .472.314 1.101.786 1.258h-4.246zm-2.831.157c-.63 0-1.1 0-1.573-.314-.943-.315-2.201-2.202-2.673-3.146-.944-1.258-1.573-3.145-3.303-3.145v5.19c0 .472.157.944.629 1.258h-4.09c.473-.314.63-.786.63-1.258V89.205c0-.472-.157-.944-.63-1.259h5.034c2.201 0 4.718.944 4.718 3.46 0 2.202-1.73 3.303-3.775 3.303 2.831 0 4.561 6.606 7.55 6.606a6.53 6.53 0 0 1-2.517.471zm-6.92-12.582h-.63v4.719h.63c1.258.157 2.516-.787 2.674-2.202v-.315c0-1.572-1.101-2.202-2.674-2.202zm-11.638 5.977h-1.258v5.033c.629.157 1.258.157 1.887.157 1.415 0 2.83-.472 2.83-2.674s-1.73-2.516-3.46-2.516zm-.472-5.977h-.786v4.719h.629c1.572 0 3.145-.472 3.145-2.36-.157-1.887-1.258-2.359-2.988-2.359zm-4.246 12.425c.471-.314.629-.786.629-1.258V89.205c0-.472-.158-.944-.63-1.259h5.19c2.36 0 4.719.944 4.719 3.775-.158 1.415-1.258 2.516-2.674 2.83 2.045 0 3.775 1.102 3.775 3.303 0 3.146-3.146 3.932-5.348 3.932l-5.661-.157zM127.536 116.098c0-2.516-5.976-3.145-5.976-7.234 0-2.517 2.359-3.46 4.561-3.46 1.1 0 2.201.157 3.302.471l.158 2.674c-.63-1.258-1.73-1.887-3.146-2.044-.944 0-2.044.471-2.044 1.572 0 2.674 6.133 3.46 6.133 7.235 0 2.831-2.359 3.932-4.875 3.932-1.416 0-2.988-.315-4.247-.944 0-.472-.157-.944-.157-1.415 0-.472.157-1.101.157-1.573.629 1.573 2.202 2.674 3.932 2.831 1.258.157 2.202-.472 2.202-2.045zm-7.549-8.964l-3.146 5.662v5.19c0 .471.158.943.472 1.258h-3.932c.315-.315.629-.787.472-1.258v-5.19l-2.516-4.561c-.315-.315-1.416-2.36-2.831-2.36.786-.157 1.573-.314 2.359-.314 1.415 0 2.045.157 2.831 1.415l2.674 4.09c.314-.315 2.201-3.932 2.201-3.932.158-.315.315-.629.315-.944 0-.157 0-.315-.315-.315h2.831c-.471.158-.943.63-1.415 1.259zm-12.267 12.11c.314-.157.314-.315.314-.472 0-.157 0-.315-.157-.472 0 0-.944-2.988-1.258-3.46h-4.876c-.157.315-1.415 3.46-1.415 3.46-.158.315-.315.472-.315.629 0 .157.315.315.315.315h-2.831c.314-.157.629-.629.943-.944l4.561-11.638.158-.157a.866.866 0 0 0-.472-.787h3.46l4.561 12.582c.157.472.629.787.943.944h-3.931zm-3.461-11.009l-2.044 5.19c.629.157 1.258.157 1.887.157s1.416 0 2.045-.157l-1.888-5.19zm-4.875-1.259l-4.09 12.268c-.314 0-.628 0-.943-.315-.472-.786-.943-1.73-1.258-2.673l-1.887-4.719-2.831 7.549h-1.258l-4.719-12.267a2.442 2.442 0 0 0-.943-1.258h4.089c-.157.157-.315.314-.315.472 0 .157 0 .314.158.472l2.988 8.178 3.145-9.122 3.46 8.807 2.831-8.021c0-.157.157-.314.157-.314a.338.338 0 0 0-.314-.315h2.674a2.45 2.45 0 0 0-.944 1.258zm-16.986 12.425c-.471 0-1.1 0-1.572-.157-.944-.315-2.202-2.359-2.831-3.303-.787-1.258-1.73-3.145-3.46-3.145v5.19c0 .471.157.943.629 1.258h-4.09c.472-.315.63-.787.63-1.258v-11.167c0-.314-.157-.944-.63-1.101h5.034c2.201 0 4.718.787 4.718 3.46 0 1.888-1.573 3.303-3.46 3.303 2.83.157 4.718 6.605 7.549 6.605-.787.315-1.573.315-2.517.315zm-7.234-12.582h-.63v4.718h.63c1.258.158 2.516-.786 2.674-2.044v-.472c0-1.573-1.101-2.202-2.674-2.202zm-10.538 12.425c.472-.157.787-.787.787-1.258v-11.167c0-.472-.315-.944-.787-1.101h4.247a1.182 1.182 0 0 0-.787 1.101v11.167c0 .471.315 1.101.787 1.258h-4.247zm-8.178-11.009l-2.044 5.19c.629.157 1.258.157 1.887.157.786 0 1.415 0 2.202-.157l-2.045-5.19zm3.775 11.009c.157-.157.314-.315.314-.472 0-.157-.157-.315-.157-.472 0 0-1.1-2.988-1.258-3.46h-5.19c-.157.315-1.416 3.46-1.416 3.46-.157.315-.314.472-.314.629 0 .157.314.315.314.315H50c.472-.315.786-.629.944-.944l4.403-11.638s.158 0 .158-.157a.865.865 0 0 0-.472-.787h3.46l4.56 12.582c.158.472.63.787.944.944h-3.774zM163.394 79.768c-2.359 2.202-7.391 4.246-9.75 5.19a219.156 219.156 0 0 1-6.763 2.36c-2.202.628-6.448 2.044-6.448 2.044 4.875 1.573 9.908 2.673 15.098 3.46 2.673-.944 5.19-2.045 7.549-3.46 1.573-.63 3.145-1.73 4.561-2.831.786-.472 1.258-1.416 1.415-2.202 0-.157.158-.315.158-.472v-.472s-.158-.157-.158-.314 0-.315-.157-.472c-.157-.472-.314-.786-.786-1.101-.787-.63-1.73-1.258-2.831-1.573-.629-.157-1.101-.314-1.73-.471l-.158.314z" fill="#fff"/><path d="M170 82.284c0-.157 0-.314-.157-.314 0-.315-.158-.315-.315-.63-.157-.157-.472-.471-.629-.786-.314-.157-.472-.314-.786-.629-1.258-.629-2.674-1.1-4.089-1.415-1.573-.157-3.303-.315-4.876-.315-.786 0-5.819 0-7.077.158-5.819.157-12.897.157-14.784.157-19.187 0-27.68-.315-36.959-2.202-4.09-.786-8.179-1.73-12.268-2.988 7.078-.315 47.812-2.045 55.203-2.202 3.618-.157 7.392-.157 11.01 0 1.415 0 2.988.157 4.403.472 1.258.157 2.517.472 3.618.943 1.415.472 2.831 1.259 3.774 2.517l.472.472c.157.314.472.786.786 1.1.629.944 1.101 1.888 1.573 2.832.157.314.315.629.472 1.1.157.158.314.472.314.63.158.314.158.786.315.943v.157z" fill="#fff"/></svg>
