<svg width="200" height="200" viewBox="0 0 200 200" fill="none" xmlns="http://www.w3.org/2000/svg"><path d="M142.422 111.284c.55-1.284.917-2.935.917-4.587 0-2.569-1.1-4.954-3.119-6.605l-1.651-1.101h-.184l.184-.184c1.284-1.1 2.569-2.935 2.569-6.422 0-3.119-1.101-5.504-3.12-6.972-1.835-1.285-4.22-1.835-7.523-1.835h-9.541c-.55 0-.917.367-.917.917v31.193c0 .551.367.918.917.918h10.826c3.486 0 6.238-.734 8.073-2.202 1.101-.734 1.835-1.835 2.569-3.12zm-19.633-24.77h7.339c2.569 0 4.588.367 5.872 1.284.734.55 1.835 1.651 1.835 4.404 0 4.954-3.853 5.32-5.138 5.32h-9.908V86.515zm8.807 26.972h-8.807v-12.844h9.908c4.404 0 7.34 2.386 7.34 5.872.183 1.835.183 6.972-8.441 6.972zM111.229 116.789h.367c.367-.183.734-.55.734-.917V70h-3.119v39.633l-20.55-26.055c-.184-.184-.55-.367-.734-.367h-.367c-.367.183-.734.55-.734.917V130h3.119V90.367l20.367 26.055c.367.184.734.367.917.367zM77.1 111.651c3.12-3.853 3.67-8.807 3.67-11.376 0-2.202-.366-7.706-3.67-11.926-1.467-1.652-3.118-2.936-5.32-3.854-1.835-.734-3.67-1.1-5.872-1.1h-8.99c-.551 0-.918.55-.918 1.1v31.193c0 .551.367.917.917.917h8.991c2.019 0 4.037-.366 5.872-1.1 2.202-.734 3.853-2.202 5.32-3.854zm-11.008 1.835h-6.973V86.514h6.973c2.569 0 6.055.734 8.624 3.853 2.752 3.303 2.935 8.44 2.935 9.908 0 2.202-.367 6.422-2.935 9.542-2.57 3.119-6.055 3.669-8.624 3.669z" fill="#fff"/></svg>
