<svg width="200" height="200" viewBox="0 0 200 200" fill="none" xmlns="http://www.w3.org/2000/svg"><path d="M100 140c-22.136 0-40-17.778-40-40 0-22.029 17.864-40 40-40s40 17.971 40 40c0 22.222-18.058 40-40 40zm0-78.068c-20.97 0-38.058 17.005-38.058 38.068S79.029 138.068 100 138.068s38.058-17.005 38.058-38.068c0-20.87-17.087-38.068-38.058-38.068zm33.786 49.469h-.194s-.194 0-.194-.193c0 0 1.359-4.058 1.359-8.503 0-4.83-1.941-7.922-4.466-7.922-1.553 0-2.718 1.159-2.718 2.705 0 3.092 3.689 3.285 3.689 9.855 0 2.705-.582 5.217-1.359 7.923-4.078 13.913-17.087 20.29-29.903 20.29-5.825 0-10.097-1.16-11.262-1.74v-.193l.194-.193c.583.193 4.078 1.353 8.544 1.353 4.854 0 7.767-1.933 7.767-4.445 0-1.546-1.165-2.705-2.719-2.705-2.912 0-3.3 3.671-9.709 3.671-2.718 0-5.242-.579-8.155-1.352-13.786-4.058-20.388-17.005-20.388-29.952 0-6.184 1.747-11.208 1.747-11.401h.195l.194.193c-.194.58-1.36 4.058-1.36 8.503 0 4.831 1.942 7.729 4.467 7.729 1.359 0 2.718-1.159 2.718-2.705 0-3.092-3.69-3.285-3.69-9.855 0-2.706.583-5.218 1.36-8.116C74.369 70.82 87.184 64.444 100 64.25c5.825 0 11.068 1.74 11.262 1.933v.193c0 .193-.194.193-.194.193s-3.495-1.353-8.544-1.353c-4.854 0-7.767 1.933-7.767 4.638 0 1.353 1.165 2.705 2.719 2.705 2.912 0 3.301-3.671 9.708-3.671 2.719 0 5.243.58 8.156 1.353 13.786 4.25 20.194 17.39 20.194 29.951.194 6.377-1.748 11.208-1.748 11.208zm-19.029-9.469c-3.689 0-6.602 2.706-6.602 6.184 0 2.705 1.748 5.024 3.884 5.024.777 0 1.553-.386 1.553-1.353 0-1.352-1.942-1.739-1.747-3.864 0-1.353 1.359-2.319 2.718-2.319 2.719 0 3.884 2.512 3.884 5.217-.195 4.058-3.107 6.957-6.602 6.957-4.661 0-7.573-4.445-7.573-9.276 0-7.149 4.66-9.855 6.99-10.628 0 0 6.408 1.16 6.214-1.739 0-1.16-1.942-1.739-3.301-1.739-1.554 0-2.913.387-2.913.387-.777-.387-1.359-1.16-1.553-2.126 4.466-3.478 7.767-6.763 7.767-10.628 0-1.932-1.359-3.865-3.884-3.865-4.466 0-7.961 5.797-7.961 11.015 0 .966 0 1.739.194 2.512-2.912 2.125-5.048 3.478-8.932 5.797 0-.58.194-1.74.389-3.285 1.359-1.353 3.106-3.672 3.106-5.218 0-.772-.388-1.352-1.359-1.352-2.136 0-3.883 3.285-4.272 5.604-.97 1.16-2.912 2.705-4.66 2.705-1.36 0-1.747-1.16-1.942-1.74 4.272-1.352 9.32-7.149 9.32-12.366 0-1.16-.388-3.478-3.689-3.478-5.048 0-9.126 7.343-9.126 13.14-1.747 0-2.524-1.933-2.524-3.285 0-1.353.582-2.899.582-3.285 0-.387-.194-.967-.97-.967-1.748 0-2.719 2.126-2.719 4.831.194 3.478 2.524 5.797 5.631 5.99.389 2.126 2.33 4.059 4.66 4.059 1.36 0 3.301-.387 4.466-1.546-.194.773-.194 1.352-.388 2.125-4.854 2.512-8.35 4.251-11.65 7.15-2.525 2.319-4.078 5.411-4.078 7.923 0 3.285 2.136 6.377 6.408 6.377 5.048 0 8.932-4.058 10.873-9.856.971-2.705 1.166-6.57 1.554-10.048 5.048-2.898 7.573-4.637 10.097-6.377.388.58.582.967 1.165 1.353-2.33 1.16-7.961 4.638-7.961 12.754 0 5.797 3.883 12.174 11.456 12.174 6.408 0 10.68-5.218 10.68-10.242.388-4.444-2.33-8.696-7.185-8.696zm-30.485 15.459c-1.748 0-2.719-.966-2.719-2.705 0-4.831 6.602-9.275 11.65-11.787-.97 6.763-3.106 14.299-8.931 14.492zm3.69-26.087c0-3.671 3.688-10.628 5.824-9.855 2.719.773-2.136 7.923-5.825 9.855zm20.97-1.739c0-4.638 3.107-8.889 4.66-8.116 1.942.966-1.359 5.218-4.66 8.116z" fill="#fff"/></svg>
