<?xml version="1.0" encoding="UTF-8"?><!DOCTYPE svg PUBLIC "-//W3C//DTD SVG 1.1//EN" "http://www.w3.org/Graphics/SVG/1.1/DTD/svg11.dtd"><svg xmlns="http://www.w3.org/2000/svg" xmlns:xlink="http://www.w3.org/1999/xlink"><symbol id="accordion" viewBox="0 0 24 24">
    <path d="M17 13L12 18M12 18L7 13M12 18L12 6" fill="none" stroke="currentColor" stroke-width="1.2" display="var(--is-visible--non-mobile)"/>
    <path d="M16 12.8333L12 17M12 17L8 12.8333M12 17L12 7" fill="none" stroke="currentColor" stroke-width="1.2" display="var(--is-visible--mobile)"/>
</symbol><symbol id="arrow-down-large" viewBox="0 0 24 24">
    <path d="M17 13L12 18M12 18L7 13M12 18L12 6" fill="none" stroke="currentColor" stroke-width="1.2"/>
</symbol><symbol id="arrow-down-small" viewBox="0 0 24 24">
    <path d="M17 13L12 18M12 18L7 13M12 18L12 6" fill="none" stroke="currentColor" stroke-width="1.2" display="var(--is-visible--non-mobile)"/>
    <path d="M16.0005 12.8333L12.0005 17M12.0005 17L8.00049 12.8333M12.0005 17L12.0005 7" fill="none" stroke="currentColor" stroke-width="1.2" display="var(--is-visible--mobile)"/>
</symbol><symbol id="arrow-down" viewBox="0 0 22 22">
    <path d="M19 13L11 21M11 21L3 13M11 21L11 1" fill="none" stroke="currentColor" stroke-width="1.2" display="var(--is-visible--non-mobile)"/>
    <path d="M17 13L11 19M11 19L5 13M11 19L11 3" fill="none" stroke="currentColor" stroke-width="1.2" display="var(--is-visible--mobile)"/>
</symbol><symbol id="arrow-right" viewBox="0 0 60 60">
    <path d="M32 22L40 30M40 30L32 38M40 30H20" fill="none" stroke="currentColor" stroke-width="1.2" display="var(--is-visible--non-mobile)"/>
    <path d="M32 24L38 30M38 30L32 36M38 30H22" fill="none" stroke="currentColor" stroke-width="1.2" display="var(--is-visible--mobile)"/>
</symbol><symbol id="award-awwwards" viewBox="0 0 60 60"><path d="M37.681 22L34.93 33.694c-.23.917-.306 1.758-.306 1.758h-.076s-.077-.84-.306-1.758L31.262 22h-2.676l-3.057 11.694c-.23.994-.306 1.758-.306 1.758s-.076-.84-.306-1.758l-1.987-8.713L21.4 31.4l1.911 7.567h3.516l2.675-10.089c.306-1.07.459-2.217.459-2.217h.076s.153 1.147.459 2.217l2.599 10.013h3.516L40.892 22h-3.21zM56.79 22l-2.752 11.694c-.23.917-.305 1.758-.305 1.758h-.077s-.076-.84-.306-1.758L50.37 22h-2.676l-3.057 11.694c-.23.994-.306 1.758-.306 1.758s-.076-.84-.306-1.758l-2.063-8.79-1.529 6.42 1.911 7.644h3.516l2.675-10.089a17.89 17.89 0 0 0 .459-2.217h.076s.153 1.147.459 2.217l2.598 10.013h3.516L60 22h-3.21zM15.21 33.694c.23.994.306 1.758.306 1.758h.076s.077-.84.306-1.758L18.65 22h3.133l-4.356 16.892H13.91l-2.599-10.013c-.306-1.07-.458-2.217-.458-2.217h-.077s-.153 1.147-.458 2.217l-2.6 10.013H4.205L0 22h3.134l2.675 11.694c.23.994.306 1.758.306 1.758h.076s.077-.84.306-1.758L9.554 22h2.675l2.981 11.694z" fill="currentColor"/></symbol><symbol id="award-behance"><path d="M26.143 28.325s3.785-.28 3.785-4.72c0-4.439-3.096-6.605-7.02-6.605H10v24.807h12.909s7.88.249 7.88-7.322c0 0 .344-6.16-4.646-6.16zM22.91 21.41s1.754 0 1.754 2.581c0 2.58-1.032 2.955-2.202 2.955h-6.773v-5.536h7.22zm-.365 15.989h-6.856v-6.63h7.22s2.616-.034 2.616 3.407c0 2.902-1.953 3.2-2.98 3.223zM41.299 23.31c-9.54 0-9.532 9.532-9.532 9.532s-.654 9.483 9.532 9.483c0 0 8.488.484 8.488-6.597h-4.365s.145 2.667-3.978 2.667c0 0-4.366.292-4.366-4.316h12.855s1.406-10.768-8.634-10.768zm-4.269 7.457s.533-3.823 4.366-3.823c3.831 0 3.783 3.823 3.783 3.823H37.03zm9.166-9.252H35.962v-3.055h10.234v3.055z" fill="currentColor"/></symbol><symbol id="award-ca" viewBox="0 0 60 60"><path d="M24.477 32.674l2.942-.031.016 1.883c0 8.53-2.195 13.152-8.265 12.826-6.226-.343-9.261-5.308-9.168-17.262.031-5.479.53-9.728 2.32-12.856C14.048 14.214 16.787 13 19.994 13c2.381 0 4.155.934 5.619 2.553 1.463 1.68 2.288 4.124 1.432 6.708-.56 1.681-.779 2.381-1.822 3.284-.544.467-1.51.67-2.054.623-.763-.062-2.895-.763-3.035-3.424-.062-1.121.03-1.62.56-2.475.56-.903 1.479-1.074 2.257-1.074.171 0 1.09.078 1.65.81 0 0 .233.217.482.73.063.125.14.374.296.421-.031 0 .11.125.125-.514.015-.404-.125-.902-.125-.965-.591-2.521-2.412-3.704-4.514-3.626-1.587.046-3.486 1.152-4.171 2.895-.638 1.805-.98 5.634-.98 10.117 0 5.105-.016 9.074.513 10.942.482 1.868 1.416 4.11 4.016 4.156 2.475.047 4.187-1.883 4.202-9.635l.031-1.852z" fill="currentColor"/><path d="M32.135 16.564c-1.618.623-2.365 2.506-2.459 2.74-.093.218-.187.747-.187.934 0 .482.187.669.171.716.374-.825 1.012-1.697 2.164-1.884.887-.14 1.385-.015 1.915.39.264.202.529.435.716.731.326.545.45.918.45 1.774 0 1.183-.202 1.977-.933 2.849-.778.871-1.479 1.214-2.49 1.183-1.168-.032-1.79-.42-2.709-1.355-.918-.933-1.307-2.163-1.37-3.673-.108-2.568.826-4.498 2.631-6.07 1.837-1.603 4.031-1.852 6.74-1.868 3.16-.015 5.276.903 6.973 3.3.513.731.778 1.432 1.09 2.381.264.779.326 2.008.326 4l-.047 16.873c0 1.805-.373 4.42 1.215 4.436.529 0 1.556 0 1.525-2.568l-.031-5.308 2.132.047.031 3.253c.11 4.84-.451 7.891-5.338 7.938-2.444.03-4.452-1.074-5.168-4.265-1.681 3.19-3.673 4.28-6.195 4.28-1.945 0-4.233-1.027-5.494-2.583-1.261-1.557-1.214-3.783-1.152-6.149.093-3.953 1.961-6.35 5.027-8.28l3.596-2.288c2.724-1.557 4.28-4.047 4.28-6.6 0-1.494-.404-2.739-1.183-3.673-.778-.934-2.801-2.428-6.054-1.307l-.172.046zm7.238 11.565c-2.132 2.32-4.56 4.607-5.448 5.634-.902 1.043-1.899 2.958-2.07 4.203-.7 4.84 1.339 6.07 2.802 6.07 3.953 0 4.887-5.292 4.825-10.07l-.109-5.837z" fill="currentColor"/></symbol><symbol id="award-cssda" viewBox="0 0 60 60"><path d="M37.982 22.773l-6.148-6.061-6.029 6.061h-3.448L35.163 10H21.728L8.858 22.773H4v.89h52.578v-.89H37.982zM4 37.335h18.466l6.007 5.996 6.115-5.996h3.286L25.134 50h13.444l6.701-6.625 6.094-6.04h5.216v-.9H4v.9zM14.182 28.336c.249 0 .488.032.704.108.217.076.445.163.662.26l.488-1.268a4.21 4.21 0 0 0-1.844-.423c-.585 0-1.106.13-1.54.38-.433.249-.77.607-.997 1.073-.227.466-.347 1.008-.347 1.626 0 .987.239 1.746.716 2.266s1.17.781 2.07.781c.63 0 1.194-.108 1.692-.336v-1.366a5.11 5.11 0 0 1-.748.26c-.25.076-.499.108-.77.108-.867 0-1.312-.574-1.312-1.724 0-.553.109-.986.326-1.3.216-.315.52-.445.9-.445zM21.316 31.827c-.282 0-.585-.043-.91-.13a4.451 4.451 0 0 1-.955-.369v1.442c.293.141.575.239.835.293.271.054.597.087.998.087.477 0 .889-.076 1.247-.239.358-.162.618-.38.813-.672.184-.282.282-.618.282-.987 0-.4-.098-.737-.304-.997s-.553-.51-1.073-.748c-.531-.239-.868-.412-.987-.51-.12-.087-.184-.195-.184-.314 0-.109.043-.196.14-.271.098-.076.25-.109.456-.109.401 0 .89.13 1.442.38l.488-1.247c-.64-.282-1.268-.423-1.886-.423-.694 0-1.247.151-1.649.455-.4.304-.596.738-.596 1.28 0 .292.043.553.141.759.098.216.238.4.434.574.195.163.488.337.878.51.434.195.694.325.792.38.097.064.173.13.216.184.044.065.066.13.066.217 0 .13-.055.238-.163.314-.109.108-.282.141-.52.141zM28.907 31.827c-.282 0-.586-.043-.911-.13a4.451 4.451 0 0 1-.954-.369v1.442c.292.141.574.239.834.293.271.054.597.087.998.087.477 0 .89-.076 1.247-.239.358-.162.618-.38.813-.672.184-.282.282-.618.282-.987 0-.4-.098-.737-.304-.997s-.553-.51-1.073-.748c-.531-.239-.867-.412-.987-.51-.119-.087-.184-.195-.184-.314 0-.109.043-.196.14-.271.099-.076.25-.109.456-.109.402 0 .89.13 1.442.38l.488-1.247c-.64-.282-1.268-.423-1.886-.423-.694 0-1.247.151-1.648.455-.402.304-.597.738-.597 1.28 0 .292.044.553.141.759.098.216.239.4.434.574.195.163.488.337.878.51.434.195.694.325.792.38a.99.99 0 0 1 .216.184c.044.065.066.13.066.217 0 .13-.055.238-.163.314-.098.108-.282.141-.52.141zM39.966 29.951c0-.922-.26-1.626-.78-2.114s-1.258-.738-2.212-.738h-2.06v5.953h1.93c.997 0 1.756-.27 2.31-.802.541-.531.812-1.301.812-2.299zm-2.006 1.366c-.227.282-.585.423-1.073.423h-.358V28.4h.466c.445 0 .77.13.987.391.217.26.325.672.325 1.214-.01.586-.119 1.02-.347 1.312zM47.177 31.946l.293 1.117h1.756l-1.973-5.985h-2.147l-1.94 5.985h1.767l.303-1.117h1.941zm-1.117-3.198a8.6 8.6 0 0 0 .141-.684c.022.152.087.402.174.738.086.347.162.629.217.846l.26.976h-1.269c.239-.933.401-1.562.477-1.876z" fill="currentColor"/></symbol><symbol id="award-fwa" viewBox="0 0 60 60"><path d="M49.816 31.183h-7.43v2.478h7.43v-2.478z" fill="currentColor"/><path d="M56.01 25.954h-.964v-.963A3.994 3.994 0 0051.055 21H38.67c-1.583 0-2.925.929-3.578 2.202l-1.376 2.752-1.377-2.787A4.008 4.008 0 0028.762 21c-1.583 0-2.925.929-3.579 2.202l-1.376 2.752-1.376-2.787A4.008 4.008 0 0018.853 21H8.945a3.994 3.994 0 00-3.99 3.99v.964H3.99A3.994 3.994 0 000 29.945a3.994 3.994 0 003.99 3.99h.964v.964a3.994 3.994 0 003.991 3.99 3.994 3.994 0 003.99-3.99v-.963h3.441c.791 0 1.548-.241 2.168-.654l1.685 3.406a3.975 3.975 0 003.578 2.202 3.975 3.975 0 003.578-2.202l1.377-2.787 1.376 2.787a3.976 3.976 0 003.578 2.202 3.976 3.976 0 003.578-2.202l.137-.31a3.984 3.984 0 003.716 2.512h9.908a3.994 3.994 0 003.99-3.99v-.964h.964A3.994 3.994 0 0060 29.945a3.994 3.994 0 00-3.99-3.99zm0 5.23h-3.716v3.715c0 .688-.55 1.239-1.239 1.239h-9.908c-.688 0-1.239-.55-1.239-1.239v-4.954c0-.688.55-1.239 1.239-1.239h8.67V26.23h-10.39l-4.61 9.22a1.226 1.226 0 01-2.202 0l-3.854-7.671-3.853 7.672a1.226 1.226 0 01-2.202 0l-4.61-9.22h-7.912v2.476h6.192c.688 0 1.239.55 1.239 1.239 0 .688-.55 1.238-1.239 1.238h-6.193V34.9c0 .688-.55 1.239-1.238 1.239s-1.239-.55-1.239-1.239v-3.716H3.991c-.688 0-1.239-.55-1.239-1.238s.55-1.239 1.239-1.239h3.715v-3.715c0-.688.55-1.239 1.239-1.239h9.908c.482 0 .895.276 1.101.688l3.853 7.707 3.854-7.707a1.226 1.226 0 012.201 0l3.854 7.707 3.853-7.707c.206-.413.62-.688 1.1-.688h12.386c.688 0 1.239.55 1.239 1.239v3.715h3.715c.688 0 1.239.55 1.239 1.239 0 .688-.55 1.238-1.239 1.238z" fill="currentColor"/></symbol><symbol id="award-golden-site" viewBox="0 0 60 60"><path d="M32.265 24.332c1.699.776 3.767-.037 4.542-1.884a3.508 3.508 0 0 0-1.81-4.616c-1.698-.775-3.766.037-4.542 1.884-.701 1.772.074 3.84 1.81 4.616zM11.252 41.91c-.444-.22-.998 0-1.182.518-.185.517 0 1.034.517 1.218.443.222.997 0 1.219-.517.11-.443-.111-.997-.554-1.218zM24.251 8.821c.443.222.997 0 1.219-.517.184-.517 0-1.034-.517-1.218-.517-.222-.997 0-1.219.517-.185.48.037 1.034.517 1.218zM33.853 51.919c-.443-.222-.997 0-1.219.517-.184.517 0 1.034.517 1.218.443.222.997 0 1.219-.517.11-.443-.074-1.034-.517-1.218zM49.437 17.906c-.443-.221-.997 0-1.218.517-.185.517 0 1.034.517 1.219.443.221.997 0 1.218-.517.148-.406-.073-.96-.517-1.219z" fill="currentColor"/><path d="M46.926 18.534c-.812-.406-1.773.037-2.068.85-.148.442-.185.812-.037 1.181-.295-.554-.812-1.145-1.44-1.366-1.477-.628-3.25.037-3.84 1.55-.222.518-.296 1.183-.185 1.7-1.7 1.994-3.694 3.25-5.466 3.47a5.177 5.177 0 0 1-1.071 0 3.275 3.275 0 0 1-1.071-.294c-1.699-.776-2.733-2.807-2.955-5.466-.037-.517-.11-1.182-.037-1.699 0-.259.037-.517.037-.739.518-.295.85-.775 1.145-1.329.628-1.514-.037-3.287-1.514-3.915a2.662 2.662 0 0 0-1.994-.11c.406-.148.628-.444.812-.85.407-.812-.037-1.81-.849-2.105-.813-.406-1.773.037-2.068.85-.406.812.037 1.81.85 2.105.332.147.7.184 1.033.11a2.911 2.911 0 0 0-1.588 1.588c-.517 1.293-.147 2.77.924 3.583-.037.221-.037.443-.037.627-.037.739-.037 1.478.037 2.142.221 2.733 1.181 5.097 2.77 6.722-1.7.11-3.472.923-5.17 2.29-1.995 1.587-3.915 4.062-5.467 7.053-.997.148-1.883.776-2.29 1.773-.332.738-.295 1.588-.036 2.29-.185-.296-.443-.518-.776-.702-.812-.407-1.772.037-2.068.849-.406.813.037 1.81.85 2.105.812.406 1.772-.037 2.068-.85.147-.443.184-.812.037-1.181.295.554.812 1.145 1.44 1.366 1.477.628 3.25-.037 3.84-1.55a3.128 3.128 0 0 0 .148-1.921c1.256-2.733 2.88-4.875 4.617-6.278 1.477-1.219 2.88-1.773 3.877-1.293.517.222.924.739 1.219 1.367.148.332.258.738.406 1.181.517 2.327.111 5.577-1.218 8.938a3.02 3.02 0 0 0-1.256 1.44c-.628 1.514.037 3.287 1.514 3.914.628.296 1.33.333 1.994.111-.406.148-.627.443-.812.85-.406.812.037 1.81.85 2.105.812.406 1.772-.037 2.067-.85.406-.812-.037-1.81-.85-2.105a1.678 1.678 0 0 0-1.033-.11 2.912 2.912 0 0 0 1.588-1.589c.443-.997.258-2.068-.296-2.954 1.367-3.84 1.773-7.718 1.182-10.636a13.096 13.096 0 0 0-.554-1.92c-.295-.628-.628-1.256-1.034-1.773.443 0 .85 0 1.256-.11 2.585-.333 5.244-1.921 7.46-4.432 1.292.221 2.659-.517 3.176-1.773.332-.739.295-1.588.037-2.29.147.296.443.517.775.702.813.406 1.773-.037 2.068-.85.148-.406-.221-1.403-.997-1.772z" fill="currentColor"/></symbol><symbol id="award-runeta" viewBox="0 0 60 60"><path d="M44.519 25.556h-1.112v-1.482h-1.481v-1.852h-2.963v-1.481h-4.444v-1.482h-3.704v-8.148h-1.482V10H24.89v1.111h-1.482v17.407h-1.481v-1.11H16V33.703h1.852v1.852h1.852v3.333h1.481v3.333h1.852v2.963h1.852V50h16.667v-7.037h1.481v-5.185h1.482V25.556zM27.11 47.778v-3.704H25.26v-2.963h-1.852v-3.333h-1.481v-3.334h-1.852v-1.851h-1.852V29.63h2.963v1.852h2.222v4.444h2.223V12.222h2.963V28.89h2.222v-7.407h2.592v7.407h2.223v-5.926h2.222v1.481h2.963v1.852h1.481v10.37h-1.481v5.556h-1.482v5.556H27.111z" fill="currentColor"/></symbol><symbol id="award-tagline"><path fill-rule="evenodd" clip-rule="evenodd" d="M26.576 10L12 37.458 16.678 50l16-.95 15.864-24.406L26.576 10zm-4.745 35.729h-.272c-.407 0-.813-.136-1.22-.34-1.356-.542-2.305-1.898-2.305-3.457a3.79 3.79 0 0 1 3.797-3.796 3.79 3.79 0 0 1 3.796 3.796 3.79 3.79 0 0 1-3.796 3.797z" fill="currentColor"/></symbol><symbol id="checkbox" viewBox="0 0 20 20">
    <path d="M5 11L9 15L15 5" fill="none" stroke="currentColor" stroke-width="1.2" display="var(--is-visible--non-tablet)"/>
    <path d="M6 10.8L9.2 14L14 6" fill="none" stroke="currentColor" stroke-width="1.2" display="var(--is-visible--tablet)"/>
    <path d="M7 10.2L9.8 13L14 6" fill="none" stroke="currentColor" stroke-width="1.2" display="var(--is-visible--mobile)"/>
</symbol><symbol id="close" viewBox="0 0 40 40">
    <path d="M27.2132 12.9289L13.0711 27.0711M27.2132 27.0711L13.0711 12.9289" fill="none" stroke="currentColor" stroke-width="1.2" display="var(--is-visible--non-mobile)"/>
    <path d="M25.9706 14.3431L14.6569 25.6569M25.9706 25.6569L14.6569 14.3431" fill="none" stroke="currentColor" stroke-width="1.2" display="var(--is-visible--mobile)"/>
</symbol><symbol id="delete" viewBox="0 0 10 10">
    <path d="M0.5 9L9 0.5" stroke="currentColor" stroke-width="1.2"/>
    <path d="M9 9L0.5 0.5" stroke="currentColor" stroke-width="1.2"/>
</symbol><symbol id="download" viewBox="0 0 40 40">
    <path d="M26 18L20 24M20 24L14 18M20 24L20 12" fill="none" stroke="currentColor" stroke-width="1.2"/>
    <path d="M14 27H26V28H14V27Z" fill="currentColor"/>
</symbol><symbol id="dropdown-small" viewBox="0 0 8 5">
    <path d="M7 1L4 4L1 1" fill="none" stroke="currentColor" stroke-width="1.2"/>
</symbol><symbol id="dropdown" viewBox="0 0 11 13">
    <path d="M10.5 7L5.5 12M5.5 12L0.5 7M5.5 12L5.5 -2.18557e-07" fill="none" stroke="currentColor" stroke-width="1.2"/>
</symbol><symbol id="example-arrow" viewBox="0 0 20 20">
<path d="M8 4L14 10L8 16" stroke="currentColor" stroke-width="2" stroke-linecap="round" stroke-linejoin="round" fill="none"/>
</symbol><symbol id="file" viewBox="0 0 16 18">
<path d="M4.5 12.5H11.5" stroke="white" stroke-width="1.2" stroke-miterlimit="10"/>
<path d="M4.5 9.5H11.5" stroke="white" stroke-width="1.2" stroke-miterlimit="10"/>
<path d="M4.5 6.5H6.5" stroke="white" stroke-width="1.2" stroke-miterlimit="10"/>
<path fill-rule="evenodd" clip-rule="evenodd" d="M3.50039 0.899902C2.06445 0.899902 0.900391 2.06396 0.900391 3.4999V14.9999C0.900391 16.4358 2.06445 17.5999 3.50039 17.5999H12.5004C13.9363 17.5999 15.1004 16.4358 15.1004 14.9999V7.47585C15.1004 6.80105 14.838 6.15268 14.3688 5.66776L10.5211 1.69181C10.0312 1.18566 9.35704 0.899902 8.65269 0.899902H3.50039ZM2.10039 3.4999C2.10039 2.7267 2.72719 2.0999 3.50039 2.0999H8.65269C8.73635 2.0999 8.81921 2.10739 8.90039 2.12198V6.4999C8.90039 6.83127 9.16902 7.0999 9.50039 7.0999H13.849C13.8828 7.22129 13.9004 7.34769 13.9004 7.47585V14.9999C13.9004 15.7731 13.2736 16.3999 12.5004 16.3999H3.50039C2.72719 16.3999 2.10039 15.7731 2.10039 14.9999V3.4999ZM12.9235 5.8999L10.1004 2.98269V5.8999H12.9235Z" fill="white"/>
</symbol><symbol id="info" viewBox="0 0 30 30">
    <circle cx="15" cy="15" r="15" fill="currentColor"/>
    <path d="M20 10L15 15M15 15L10 20M15 15L20 20M15 15L10 10" fill="none" stroke="white" stroke-width="1.2"/>
</symbol><symbol id="link" viewBox="0 0 16 16">
    <path d="M5.17218 5.17157H10.829M10.829 5.17157V10.8284M10.829 5.17157L5.17218 10.8284" fill="none" stroke="currentColor" stroke-width="1.2" display="var(--is-visible--non-mobile)"/>
    <path d="M7 5L10 8L7 11" fill="none" stroke="currentColor" stroke-width="1.2" display="var(--is-visible--mobile)"/>
</symbol><symbol id="logo"><path d="M12.84 7.192H9.48l-2.808 7.92-2.928-7.92H.24L5.064 19h3.192L12.84 7.192zM17.014 19V7.192h-3.192V19h3.192zM13.438 3.328c0 1.056.888 1.944 1.968 1.944a1.956 1.956 0 0 0 1.968-1.944c0-1.104-.864-1.992-1.968-1.992-1.08 0-1.968.888-1.968 1.992zm17.29-1.704h-3.145v6.744c-.335-.624-1.295-1.464-3.335-1.464-3.337 0-5.665 2.712-5.665 6.168 0 3.576 2.4 6.216 5.76 6.216 1.584 0 2.785-.72 3.313-1.656 0 .552.072 1.128.12 1.368h3.047a24.317 24.317 0 0 1-.096-2.136V1.624zm-8.929 11.448c0-2.112 1.297-3.312 2.928-3.312 1.633 0 2.904 1.176 2.904 3.288 0 2.136-1.271 3.384-2.904 3.384-1.68 0-2.928-1.248-2.928-3.36zm13.76-1.32c.071-1.08.983-2.328 2.64-2.328 1.823 0 2.591 1.152 2.64 2.328h-5.28zm5.591 3.072c-.384 1.056-1.2 1.8-2.688 1.8-1.584 0-2.904-1.128-2.976-2.688h8.448c0-.048.048-.528.048-.984 0-3.792-2.184-6.12-5.832-6.12-3.024 0-5.808 2.448-5.808 6.216 0 3.984 2.856 6.312 6.096 6.312 2.904 0 4.776-1.704 5.376-3.744l-2.664-.792zM53.698 19V7.192h-3.192V19h3.192zM50.122 3.328c0 1.056.888 1.944 1.968 1.944a1.956 1.956 0 0 0 1.968-1.944c0-1.104-.864-1.992-1.968-1.992-1.08 0-1.968.888-1.968 1.992zm9.225 8.88c0-1.368.816-2.448 2.208-2.448 1.536 0 2.184 1.032 2.184 2.352V19h3.192v-7.44c0-2.592-1.344-4.68-4.272-4.68-1.272 0-2.688.552-3.408 1.776V7.192h-3.096V19h3.192v-6.792zm15.336-7.944c.528 0 .84.072 1.008.12V1.696c-.264-.12-.912-.24-1.584-.24-2.616 0-4.296 1.728-4.296 4.392v1.344h-1.968v2.736h1.968V19h3.216V9.928h2.664V7.192h-2.664V5.896c0-1.32.936-1.632 1.656-1.632zm9.322 2.88a7.27 7.27 0 0 0-.744-.048c-1.008 0-2.64.288-3.36 1.848V7.192h-3.096V19h3.192v-5.4c0-2.544 1.416-3.336 3.048-3.336.288 0 .6.024.96.096V7.144zm.636 8.64c0 1.848 1.536 3.552 4.056 3.552 1.752 0 2.88-.816 3.48-1.752 0 .456.048 1.104.12 1.416h2.928a13.223 13.223 0 0 1-.144-1.872V11.32c0-2.376-1.392-4.488-5.136-4.488-3.168 0-4.872 2.04-5.064 3.888l2.832.6c.096-1.032.864-1.92 2.256-1.92 1.344 0 1.992.696 1.992 1.536 0 .408-.216.744-.888.84l-2.904.432c-1.968.288-3.528 1.464-3.528 3.576zm4.728 1.176c-1.032 0-1.536-.672-1.536-1.368 0-.912.648-1.368 1.464-1.488l2.664-.408v.528c0 2.088-1.248 2.736-2.592 2.736z" fill="currentColor"/></symbol><symbol id="menu" viewBox="0 0 40 40">
    <path d="M12 17H28V18H12V17Z" fill="currentColor" display="var(--is-visible--mobile)"/>
    <path d="M12 22H28V23H12V22Z" fill="currentColor" display="var(--is-visible--mobile)"/>

    <path d="M10 17H30V18H10V17Z" fill="currentColor" display="var(--is-visible--non-mobile)"/>
    <path d="M10 22H30V23H10V22Z" fill="currentColor" display="var(--is-visible--non-mobile)"/>
</symbol><symbol id="nav-next" viewBox="0 0 20 20">
    <path d="M12 4L18 10M18 10L12 16M18 10H2" fill="none" stroke="currentColor" stroke-width="1.2" display="var(--is-visible--mobile)"/>
    <path d="M11 5L16 10M16 10L11 15M16 10H4" fill="none" stroke="currentColor" stroke-width="1.2" display="var(--is-visible--non-mobile)"/>
</symbol><symbol id="nav-prev" viewBox="0 0 20 20">
    <path d="M8 4L2 10M2 10L8 16M2 10H18" fill="none" stroke="currentColor" stroke-width="1.2" display="var(--is-visible--mobile)"/>
    <path d="M9 5L4 10M4 10L9 15M4 10H16" fill="none" stroke="currentColor" stroke-width="1.2" display="var(--is-visible--non-mobile)"/>
</symbol><symbol id="nav-reload" viewBox="0 0 40 40">
    <path d="M30 19C30 21.3136 29.1978 23.5555 27.7301 25.3439C26.2624 27.1323 24.22 28.3565 21.9509 28.8079C19.6818 29.2592 17.3264 28.9098 15.286 27.8192C13.2457 26.7286 11.6466 24.9643 10.7612 22.8268C9.87585 20.6894 9.75901 18.3111 10.4306 16.0972C11.1022 13.8832 12.5207 11.9706 14.4443 10.6853C16.3679 9.39996 18.6778 8.82139 20.9802 9.04815C23.2826 9.27492 25.4351 10.293 27.0711 11.9289M27.0711 11.9289L21.5 13.5M27.0711 11.9289L25.0711 6" fill="none" stroke="currentColor" stroke-width="1.2"/>
</symbol><symbol id="open" viewBox="0 0 22 22">
    <path d="M13 5L19 11M19 11L13 17M19 11L3 11" fill="none" stroke="currentColor" stroke-width="1.2" display="var(--is-visible--mobile)"/>
    <path d="M13 3L21 11M21 11L13 19M21 11L1 11" fill="none" stroke="currentColor" stroke-width="1.2" display="var(--is-visible--non-mobile)"/>
</symbol><symbol id="play" viewBox="0 0 60 60">
    <path d="M41 30L25 20L25 40L41 30Z" fill="none" stroke="currentColor" stroke-width="1.2" display="var(--is-visible--non-mobile)"/>
    <path d="M38 30L26 22L26 38L38 30Z" fill="none" stroke="currentColor" stroke-width="1.2" display="var(--is-visible--mobile)"/>
</symbol><symbol id="quote" viewBox="0 0 22 22">
    <path d="M16.7002 19C15.8718 19 15.1486 18.8616 14.5306 18.5847C13.9257 18.2946 13.426 17.9122 13.0316 17.4376C12.6371 16.9629 12.3412 16.4091 12.144 15.7763C11.9467 15.1434 11.8481 14.471 11.8481 13.759C11.8481 12.335 12.0585 11.0494 12.4793 9.90235C12.9132 8.74207 13.4721 7.72023 14.1558 6.83684C14.8396 5.94026 15.5957 5.17553 16.4241 4.54265C17.2656 3.89658 18.094 3.38237 18.9093 3L19.4813 3.77132C18.3241 4.86568 17.4037 5.84137 16.7199 6.69839C16.0362 7.54223 15.6943 8.24763 15.6943 8.81459C15.6943 9.1574 15.8389 9.43428 16.1282 9.64524C16.4175 9.8562 16.7725 10.0474 17.1933 10.2188C17.6009 10.377 18.0283 10.555 18.4753 10.7528C18.9224 10.9506 19.33 11.2143 19.6982 11.5439C20.0796 11.8603 20.3886 12.2625 20.6252 12.7503C20.8751 13.2382 21 13.8578 21 14.6094C21 15.0577 20.908 15.5389 20.7239 16.0532C20.5529 16.5674 20.2834 17.042 19.9152 17.4771C19.5602 17.9122 19.1131 18.2748 18.574 18.5649C18.0348 18.855 17.4103 19 16.7002 19ZM5.85207 19C5.02367 19 4.30046 18.8616 3.68245 18.5847C3.07758 18.2946 2.57791 17.9122 2.18343 17.4376C1.78895 16.9629 1.4931 16.4091 1.29586 15.7763C1.09862 15.1434 1 14.471 1 13.759C1 12.335 1.21039 11.0494 1.63116 9.90235C2.06509 8.74207 2.62393 7.72023 3.30769 6.83684C3.99145 5.94026 4.74753 5.17553 5.57594 4.54265C6.41749 3.89658 7.24589 3.38237 8.06114 3L8.63314 3.77132C7.476 4.86568 6.55556 5.84137 5.8718 6.69839C5.18803 7.54223 4.84615 8.24763 4.84615 8.81459C4.84615 9.1574 4.9908 9.43428 5.28008 9.64524C5.56936 9.8562 5.92439 10.0474 6.34517 10.2188C6.75279 10.377 7.18014 10.555 7.62722 10.7528C8.07429 10.9506 8.48192 11.2143 8.8501 11.5439C9.23143 11.8603 9.54043 12.2625 9.77712 12.7503C10.027 13.2382 10.1519 13.8578 10.1519 14.6094C10.1519 15.0577 10.0598 15.5389 9.87574 16.0532C9.7048 16.5674 9.43524 17.042 9.06706 17.4771C8.71203 17.9122 8.26496 18.2748 7.72584 18.5649C7.18672 18.855 6.56213 19 5.85207 19Z" fill="currentColor" display="var(--is-visible--non-mobile)"/>
    <path d="M14.7751 17.0005C14.1538 17.0005 13.6114 16.8967 13.1479 16.689C12.6943 16.4714 12.3195 16.1847 12.0237 15.8287C11.7278 15.4727 11.5059 15.0573 11.358 14.5827C11.2101 14.108 11.1361 13.6037 11.1361 13.0697C11.1361 12.0017 11.2939 11.0376 11.6095 10.1772C11.9349 9.30704 12.354 8.54066 12.8669 7.87811C13.3797 7.20568 13.9467 6.63213 14.568 6.15747C15.1992 5.67292 15.8205 5.28726 16.432 5.00049L16.8609 5.57898C15.9931 6.39975 15.3028 7.13151 14.7899 7.77428C14.2771 8.40716 14.0207 8.93621 14.0207 9.36143C14.0207 9.61854 14.1292 9.8262 14.3462 9.98442C14.5631 10.1426 14.8294 10.286 15.145 10.4146C15.4507 10.5332 15.7712 10.6667 16.1065 10.8151C16.4418 10.9634 16.7475 11.1612 17.0237 11.4084C17.3097 11.6457 17.5414 11.9473 17.7189 12.3132C17.9063 12.6791 18 13.1439 18 13.7075C18 14.0438 17.931 14.4047 17.7929 14.7904C17.6647 15.176 17.4625 15.532 17.1864 15.8583C16.9201 16.1847 16.5848 16.4566 16.1805 16.6742C15.7761 16.8917 15.3077 17.0005 14.7751 17.0005ZM6.63905 17.0005C6.01775 17.0005 5.47535 16.8967 5.01183 16.689C4.55819 16.4714 4.18343 16.1847 3.88757 15.8287C3.59172 15.4727 3.36982 15.0573 3.22189 14.5827C3.07396 14.108 3 13.6037 3 13.0697C3 12.0017 3.15779 11.0376 3.47337 10.1772C3.79882 9.30704 4.21795 8.54066 4.73077 7.87811C5.24359 7.20568 5.81065 6.63213 6.43195 6.15747C7.06312 5.67292 7.68442 5.28726 8.29586 5.00049L8.72485 5.57898C7.857 6.39975 7.16667 7.13151 6.65385 7.77428C6.14103 8.40716 5.88462 8.93621 5.88462 9.36143C5.88462 9.61854 5.9931 9.8262 6.21006 9.98442C6.42702 10.1426 6.69329 10.286 7.00888 10.4146C7.3146 10.5332 7.63511 10.6667 7.97041 10.8151C8.30572 10.9634 8.61144 11.1612 8.88757 11.4084C9.17357 11.6457 9.40533 11.9473 9.58284 12.3132C9.77022 12.6791 9.86391 13.1439 9.86391 13.7075C9.86391 14.0438 9.79487 14.4047 9.65681 14.7904C9.5286 15.176 9.32643 15.532 9.0503 15.8583C8.78402 16.1847 8.44872 16.4566 8.04438 16.6742C7.64004 16.8917 7.1716 17.0005 6.63905 17.0005Z" fill="currentColor" display="var(--is-visible--mobile)"/>
</symbol><symbol id="reset" viewBox="0 0 40 40">
    <path d="M27 20.0435C27 21.6529 26.4385 23.2125 25.4111 24.4566C24.3837 25.7007 22.954 26.5523 21.3656 26.8663C19.7773 27.1803 18.1285 26.9373 16.7002 26.1786C15.272 25.4199 14.1526 24.1925 13.5328 22.7056C12.9131 21.2187 12.8313 19.5642 13.3014 18.0241C13.7715 16.484 14.7645 15.1535 16.111 14.2593C17.4576 13.3652 19.0744 12.9627 20.6861 13.1205C22.2978 13.2782 23.8046 13.9864 24.9497 15.1245M24.9497 15.1245L21.05 16.2174M24.9497 15.1245L23.5497 11" fill="none" stroke="currentColor" stroke-width="1.2"/>
</symbol><symbol id="upload" viewBox="0 0 14 17">
<path d="M13 6L7 12M7 12L1 6M7 12L7 -2.62268e-07" fill="none" stroke="currentColor" stroke-width="1.2"/>
<path d="M1 12V12C1 14.2091 2.79086 16 5 16H9C11.2091 16 13 14.2091 13 12V12" fill="none" stroke="currentColor" stroke-width="1.2"/>
</symbol></svg>