<svg xmlns="http://www.w3.org/2000/svg" viewBox="110 -1395 3020 1269">
  <path d="M 543 -1395 c -11 8 -23 25 -27 38 c -4 18 -20 30 -62 45 c -49 19 -57 20 -70 7 c -21 -21 -60 -19 -84 5 c -22 22 -25 42 -11 68 c 14 26 -76 148 -106 144 c -27 -4 -73 38 -73 68 c 0 32 37 63 71 58 c 26 -4 38 5 113 86 c 74 81 83 95 79 123 c -4 22 1 37 16 52 c 28 28 56 27 87 -4 l 25 -25 l 172 2 l 172 3 l -150 92 c -93 57 -154 88 -159 82 c -16 -15 -62 -10 -79 9 c -54 59 34 141 93 87 c 17 -16 24 -16 102 0 c 114 22 112 22 137 55 c 20 29 21 34 10 90 c -9 47 -16 60 -30 60 c -22 0 -49 37 -49 66 c 0 30 47 66 74 58 c 52 -15 70 -80 30 -111 c -13 -10 -14 -20 -4 -71 c 18 -91 35 -90 140 11 c 74 72 84 86 82 112 c -6 64 79 93 114 40 c 14 -21 14 -30 4 -55 c -7 -16 -21 -32 -31 -35 c -17 -6 -19 -17 -19 -104 c 0 -85 3 -100 20 -116 c 12 -11 20 -31 20 -51 c 0 -28 11 -42 72 -98 c 62 -56 76 -64 101 -59 c 21 4 34 0 52 -17 c 31 -29 31 -51 3 -85 c -21 -24 -23 -34 -18 -107 c 3 -53 9 -83 18 -86 c 23 -7 42 -33 42 -58 c 0 -34 -35 -66 -68 -62 c -20 2 -36 -8 -74 -48 c -41 -44 -48 -56 -42 -78 c 7 -31 -15 -71 -45 -79 c -11 -2 -31 1 -45 8 c -23 12 -33 10 -96 -18 c -47 -21 -70 -36 -70 -48 c 0 -54 -77 -82 -111 -40 c -16 19 -27 21 -123 21 c -99 0 -107 -1 -130 -25 c -29 -29 -43 -31 -73 -10 z m 63 41 c 8 31 -6 47 -37 42 c -27 -3 -37 -32 -19 -53 c 20 -24 49 -18 56 11 z m 328 -20 c 22 8 20 51 -2 63 c -37 20 -70 -27 -40 -57 c 14 -14 20 -14 42 -6 z m -84 53 c 0 18 -99 93 -112 85 c -29 -17 -98 -77 -98 -85 c 0 -5 47 -9 105 -9 c 58 0 105 4 105 9 z m -290 117 c 0 67 -2 74 -19 74 c -11 0 -47 -22 -80 -50 c -73 -60 -72 -79 2 -108 c 47 -17 54 -18 74 -4 c 20 13 23 23 23 88 z m -180 -57 c 0 29 -25 45 -49 31 c -25 -13 -27 -45 -4 -59 c 23 -12 53 4 53 28 z m 660 -8 c 58 27 69 35 78 67 c 10 33 8 41 -31 110 l -42 74 l -13 -31 c -7 -18 -23 -36 -35 -40 c -20 -8 -26 -22 -40 -102 c -13 -73 -14 -95 -4 -101 c 17 -11 13 -12 87 23 z m -370 16 c 27 21 48 41 47 44 c -5 16 -108 89 -117 84 c -11 -7 -14 -148 -3 -158 c 12 -13 24 -7 73 30 z m 260 72 c 9 51 13 94 9 97 c -10 6 -159 -113 -159 -126 c 0 -5 21 -25 46 -44 c 69 -53 84 -43 104 73 z m 268 -67 c 30 30 -4 77 -41 57 c -29 -17 -15 -69 18 -69 c 6 0 16 5 23 12 z m -689 155 c 1 13 -15 16 -142 33 c -107 14 -137 13 -137 -4 c 0 -20 89 -138 99 -131 c 5 3 20 1 32 -4 c 20 -7 34 0 86 43 c 34 28 62 56 62 63 z m 335 -22 c 52 40 65 56 66 78 c 0 24 -9 31 -85 69 l -85 42 l -55 -54 c -44 -44 -55 -61 -55 -87 c 0 -28 8 -39 57 -78 c 49 -38 60 -43 75 -32 c 9 6 46 34 82 62 z m 367 45 c 15 47 28 90 28 96 c 1 7 -64 50 -144 97 c -80 47 -145 83 -145 80 c 0 -3 46 -86 103 -184 c 66 -116 107 -178 117 -176 c 9 1 25 35 41 87 z m 89 36 c 0 27 -24 66 -33 53 c -2 -3 -14 -38 -54 -169 c -3 -8 16 7 41 35 c 33 37 45 58 46 81 z m -699 -55 c 9 18 8 25 -8 41 c -33 32 -75 -1 -53 -43 c 14 -25 46 -24 61 2 z m 390 29 c 23 13 25 43 3 61 c -31 26 -70 -25 -44 -56 c 15 -18 16 -18 41 -5 z m -788 21 c 15 24 1 49 -27 49 c -31 0 -40 -14 -32 -46 c 8 -29 42 -30 59 -3 z m 316 8 c 8 14 1 42 -30 119 c -56 137 -63 138 -174 19 c -47 -49 -85 -92 -85 -96 c 1 -22 28 -31 130 -44 c 155 -19 148 -19 159 2 z m 876 1 c 4 12 1 27 -5 35 c -27 33 -78 5 -65 -35 c 4 -14 15 -20 35 -20 c 20 0 31 6 35 20 z m -685 120 c 0 8 -229 124 -235 118 c -3 -3 14 -52 38 -109 c 55 -133 69 -139 145 -65 c 28 27 52 53 52 56 z m 215 16 c -26 104 -42 111 -106 48 c -27 -27 -49 -51 -49 -55 c 0 -14 155 -88 165 -78 c 5 6 2 37 -10 85 z m 70 -39 c -46 80 -54 82 -34 10 c 9 -32 28 -51 57 -56 c 2 -1 -8 20 -23 46 z m 333 -28 c 11 7 12 26 6 87 l -7 79 l -26 -78 c -22 -67 -23 -79 -11 -87 c 18 -12 22 -12 38 -1 z m -49 108 c 15 51 19 79 12 81 c -6 2 -11 10 -11 18 c 0 12 -21 13 -127 9 c -221 -10 -217 -3 -57 -100 c 77 -46 144 -84 149 -85 c 6 0 21 35 34 77 z m -439 80 c 0 10 -39 13 -172 13 c -103 0 -167 -4 -158 -9 c 8 -5 62 -34 120 -65 l 105 -55 l 53 51 c 28 29 52 58 52 65 z m -380 8 c 20 24 3 57 -28 53 c -27 -3 -39 -26 -28 -54 c 7 -18 40 -18 56 1 z m 469 2 c 21 38 -31 72 -58 39 c -9 -11 -10 -20 -1 -35 c 13 -25 45 -27 59 -4 z m 437 29 c 8 31 -6 47 -37 42 c -27 -3 -37 -32 -19 -53 c 20 -24 49 -18 56 11 z m -132 18 c 5 1 -44 16 -110 34 c -65 18 -202 55 -304 82 c -102 28 -188 49 -192 48 c -4 -2 44 -36 108 -76 c 93 -58 119 -70 134 -62 c 31 16 58 11 77 -14 c 18 -23 20 -23 148 -19 c 71 3 134 6 139 7 z m -28 90 c -65 59 -73 63 -107 59 c -30 -4 -39 -1 -53 18 c -24 34 -21 76 8 94 c 21 14 24 26 30 112 c 6 73 4 98 -5 104 c -9 5 -42 -20 -98 -73 c -71 -67 -85 -86 -83 -108 c 7 -59 -64 -95 -108 -55 c -19 17 -24 17 -110 0 c -50 -10 -92 -20 -94 -24 c -4 -6 644 -189 674 -190 c 8 0 -16 28 -54 63 z m -671 117 c 9 26 -13 51 -39 47 c -29 -4 -36 -64 -9 -70 c 26 -6 41 1 48 23 z m 585 -16 c 18 22 3 55 -25 55 c -29 0 -47 -27 -34 -52 c 12 -22 42 -23 59 -3 z m -266 61 c 20 8 21 48 2 63 c -33 28 -74 -27 -44 -57 c 14 -14 20 -14 42 -6 z m -34 273 c 0 26 -25 44 -50 36 c -25 -8 -27 -50 -3 -64 c 23 -12 53 4 53 28 z m 318 13 c -4 26 -30 43 -52 35 c -21 -8 -21 -53 1 -66 c 25 -13 55 5 51 31 z M 1630 -980 l 0 40 l 50 0 l 50 0 l 0 -40 l 0 -40 l -50 0 l -50 0 l 0 40 z M 1872 -973 c -38 19 -62 58 -62 104 c 0 43 50 90 125 118 c 68 26 95 46 95 72 c 0 23 -29 39 -72 39 c -44 0 -78 -25 -78 -56 c 0 -21 -4 -24 -40 -24 l -40 0 l 0 55 l 0 56 l 43 19 c 51 24 171 27 222 6 c 38 -16 65 -60 65 -105 c 0 -39 -38 -83 -92 -106 c -118 -50 -128 -56 -128 -81 c 0 -30 40 -48 88 -39 c 25 5 36 13 44 36 c 8 24 15 29 44 29 l 34 0 l 0 -50 c 0 -50 -1 -51 -42 -70 c -54 -25 -159 -26 -206 -3 M 1590 -861 c 0 21 6 32 20 36 c 18 6 20 15 20 96 c 0 70 -3 91 -15 95 c -9 4 -15 19 -15 35 l 0 29 l 85 0 l 85 0 l 0 -29 c 0 -21 -6 -32 -20 -36 c -19 -6 -20 -15 -20 -131 l 0 -124 l -70 0 l -70 0 l 0 29 z M 2225 -876 c -39 11 -40 13 -40 56 c 0 42 2 45 27 48 c 22 3 30 -2 40 -22 c 19 -43 88 -31 88 15 c 0 12 -13 18 -54 22 c -66 7 -102 28 -116 71 c -20 63 22 116 92 116 c 21 0 48 -6 59 -13 c 17 -10 23 -10 26 0 c 3 9 26 13 64 13 c 59 0 59 0 59 -30 c 0 -20 -5 -30 -15 -30 c -12 0 -15 -16 -15 -80 c 0 -106 -15 -142 -69 -163 c -48 -20 -90 -20 -146 -3 z m 113 203 c -2 23 -8 29 -36 31 c -22 2 -34 -2 -38 -12 c -9 -24 14 -46 48 -46 c 26 0 29 3 26 27 z M 2500 -859 c 0 22 5 32 20 36 c 18 5 20 14 20 99 c 0 77 -3 94 -15 94 c -10 0 -15 10 -15 30 l 0 30 l 85 0 l 85 0 l 0 -29 c 0 -20 -6 -30 -20 -34 c -17 -4 -20 -14 -20 -69 c 0 -73 10 -88 57 -88 c 31 0 33 -2 35 -35 c 0 -19 1 -41 2 -48 c 2 -22 -45 -20 -70 4 l -24 22 l 0 -21 c 0 -21 -5 -22 -70 -22 l -70 0 l 0 31 z M 2750 -860 c 0 23 5 31 24 36 c 19 4 32 28 73 134 c 53 136 54 160 8 160 c -26 0 -45 25 -45 59 c 0 18 6 21 50 21 c 76 0 96 -25 170 -212 c 44 -112 67 -159 81 -163 c 13 -4 19 -16 19 -36 l 0 -29 l -85 0 l -85 0 l 0 26 c 0 15 8 32 17 39 c 16 12 16 16 -1 61 c -10 27 -22 53 -26 57 c -4 5 -17 -19 -28 -52 c -20 -59 -20 -60 -1 -66 c 13 -4 19 -16 19 -36 l 0 -29 l -95 0 l -95 0 l 0 30 z" fill="#000000"/>
</svg>