<svg width="760" height="650" fill="none" xmlns="http://www.w3.org/2000/svg"><path d="M513.721 325c0 74.076-59.871 134.127-133.726 134.127-73.855 0-133.726-60.051-133.726-134.127 0-74.076 59.871-134.127 133.726-134.127 73.855 0 133.726 60.051 133.726 134.127z" fill="#191B1D"/><path d="M323.672 313.959l5.369 22.131h4.814l4.043-15.29 3.981 15.29h5.092l5.369-22.131h-4.629l-3.579 15.384-3.919-15.384h-4.259l-3.765 15.291-3.456-15.291h-5.061zM360.163 336.431c4.444 0 7.19-1.95 7.715-5.448h-4.228c-.278 1.362-1.265 2.26-3.364 2.26-2.469 0-3.888-1.517-4.012-4.241h11.635v-1.238c0-2.879-.926-4.952-2.377-6.283-1.45-1.331-3.394-1.95-5.493-1.95-2.345 0-4.413.835-5.894 2.29-1.512 1.486-2.407 3.56-2.407 6.129v.247c0 2.6.895 4.643 2.407 6.036 1.481 1.455 3.58 2.198 6.018 2.198zm3.394-10.184h-7.221c.34-2.321 1.697-3.621 3.703-3.621 2.13 0 3.364 1.145 3.518 3.621zM379.593 336.431c2.006 0 3.765-.743 5.03-2.198 1.235-1.393 2.006-3.467 2.006-6.159v-.248c0-2.693-.771-4.767-2.037-6.16-1.265-1.392-3.024-2.135-4.999-2.135-2.376 0-4.259 1.331-5.154 2.909v-9.874h-4.474v23.524h4.474v-2.569c.834 1.703 2.654 2.91 5.154 2.91zm-1.327-3.498c-2.469 0-3.981-1.578-3.981-4.828v-.248c0-3.25 1.605-4.891 3.95-4.891 2.253 0 3.858 1.579 3.858 4.891v.248c0 3.188-1.358 4.828-3.827 4.828zM394.635 336.431c4.289 0 6.789-1.826 6.789-5.324 0-1.733-.587-2.848-1.605-3.622-1.08-.742-2.654-1.176-4.66-1.454-2.345-.341-3.117-.743-3.117-1.765 0-.99.834-1.671 2.284-1.671 1.574 0 2.284.619 2.531 1.95h4.104c-.216-1.857-.988-3.126-2.129-3.9-1.204-.774-2.778-1.114-4.537-1.114-1.635 0-3.271.402-4.413 1.238-1.203.866-1.975 2.105-1.975 3.807 0 1.579.401 2.693 1.389 3.467.956.773 2.438 1.238 4.567 1.578 2.345.341 3.271.805 3.271 1.919 0 1.115-.802 1.765-2.53 1.765-1.975 0-2.623-.836-2.839-2.291h-4.166c.154 3.498 2.684 5.417 7.036 5.417zM405.703 317.705c1.451 0 2.562-1.053 2.562-2.446 0-1.393-1.111-2.445-2.562-2.445-1.45 0-2.53 1.052-2.53 2.445 0 1.393 1.08 2.446 2.53 2.446zm-2.191 2.197v16.188h4.444v-16.188h-4.444zM417.089 336.4c1.204 0 2.099-.217 2.716-.434V332.5c-.494.216-1.049.309-1.697.309-1.204 0-1.79-.65-1.79-1.919v-7.8h3.395v-3.188h-3.395v-3.497h-4.444v3.497h-2.067v3.188h2.067v8.203c0 3.373 1.79 5.107 5.215 5.107zM429.392 336.431c4.444 0 7.191-1.95 7.715-5.448h-4.227c-.278 1.362-1.266 2.26-3.364 2.26-2.469 0-3.888-1.517-4.012-4.241h11.634v-1.238c0-2.879-.926-4.952-2.376-6.283-1.45-1.331-3.395-1.95-5.493-1.95-2.345 0-4.413.835-5.894 2.29-1.512 1.486-2.407 3.56-2.407 6.129v.247c0 2.6.895 4.643 2.407 6.036 1.481 1.455 3.58 2.198 6.017 2.198zm3.395-10.184h-7.221c.339-2.321 1.697-3.621 3.703-3.621 2.129 0 3.364 1.145 3.518 3.621z" fill="#fff"/><path fill-rule="evenodd" clip-rule="evenodd" d="M133.726 458.095c73.287 0 132.697-59.588 132.697-133.095 0-73.506-59.41-133.095-132.697-133.095S1.029 251.494 1.029 325c0 73.507 59.41 133.095 132.697 133.095zm0 1.032c73.855 0 133.726-60.051 133.726-134.127 0-74.076-59.871-134.127-133.726-134.127C59.871 190.873 0 250.924 0 325c0 74.076 59.871 134.127 133.726 134.127z" fill="#191B1D"/><path d="M88.9 333.479c1.81 0 3.374-.475 4.527-1.403 1.152-.908 1.892-2.311 2.077-4.127h-3.27c-.268 1.898-1.544 2.827-3.375 2.827-2.448 0-3.826-1.754-3.826-4.829v-.165c0-3.074 1.48-4.87 3.806-4.87 1.872 0 2.839.929 3.086 2.724h3.415c-.165-1.816-.926-3.157-2.058-4.044-1.152-.888-2.715-1.321-4.464-1.321-2.078 0-3.909.763-5.205 2.084-1.317 1.321-2.098 3.219-2.098 5.448v.165c0 2.29.637 4.147 1.892 5.447 1.235 1.321 3.086 2.064 5.493 2.064zM100.808 333.479c1.789 0 2.859-.825 3.415-1.919v1.692h2.962V322.46h-2.962v6.335c0 1.589-.988 2.373-2.243 2.373-1.234 0-1.872-.743-1.872-2.167v-6.541h-2.963v6.954c0 1.403.391 2.435 1.05 3.095.658.66 1.563.97 2.613.97zM113.563 333.479c2.86 0 4.527-1.218 4.527-3.549 0-1.156-.391-1.899-1.07-2.415-.72-.495-1.77-.784-3.107-.969-1.563-.227-2.078-.496-2.078-1.177 0-.66.556-1.114 1.523-1.114 1.049 0 1.522.413 1.687 1.3h2.736c-.144-1.238-.658-2.084-1.42-2.6-.802-.516-1.851-.743-3.024-.743-1.09 0-2.181.269-2.942.826-.802.577-1.317 1.403-1.317 2.538 0 1.052.268 1.795.926 2.311.638.516 1.626.825 3.045 1.052 1.564.227 2.181.537 2.181 1.28 0 .742-.535 1.176-1.687 1.176-1.317 0-1.749-.557-1.893-1.527h-2.777c.103 2.332 1.79 3.611 4.69 3.611zM123.74 333.458c.803 0 1.399-.144 1.811-.289v-2.311c-.329.145-.7.207-1.132.207-.802 0-1.193-.434-1.193-1.28v-5.2h2.263v-2.125h-2.263v-2.332h-2.962v2.332h-1.379v2.125h1.379v5.469c0 2.249 1.193 3.404 3.476 3.404zM132.416 331.209c-1.708 0-2.634-1.238-2.634-3.301v-.166c0-2.063.988-3.26 2.634-3.26 1.666 0 2.633 1.238 2.633 3.302v.144c0 2.064-.967 3.281-2.633 3.281zm-.021 2.27c1.625 0 3.045-.537 4.053-1.506 1.008-.97 1.625-2.353 1.625-4.065v-.166c0-1.671-.617-3.054-1.604-4.023-1.009-.97-2.428-1.507-4.053-1.507-1.626 0-3.045.557-4.053 1.527-1.008.97-1.626 2.394-1.626 4.065v.165c0 1.672.618 3.075 1.626 4.004 1.008.969 2.407 1.506 4.032 1.506zM139.903 322.46v10.792h2.983v-6.376c0-1.486.926-2.208 2.078-2.208 1.049 0 1.687.598 1.687 2.001v6.583h2.962v-6.376c0-1.486.926-2.208 2.078-2.208 1.07 0 1.687.598 1.687 2.001v6.583h2.963v-6.913c0-1.424-.371-2.476-1.008-3.157-.659-.66-1.543-.97-2.531-.97-1.378 0-2.736.557-3.621 1.878-.514-1.3-1.584-1.878-3.003-1.878-1.626 0-2.737.888-3.292 1.899v-1.651h-2.983zM163.677 333.479c2.962 0 4.793-1.3 5.143-3.632h-2.819c-.185.908-.843 1.507-2.242 1.507-1.646 0-2.592-1.012-2.675-2.827h7.756v-.826c0-1.919-.617-3.301-1.584-4.189-.967-.887-2.263-1.3-3.662-1.3-1.563 0-2.942.557-3.929 1.527-1.008.991-1.605 2.373-1.605 4.086v.165c0 1.733.597 3.095 1.605 4.024.987.97 2.386 1.465 4.012 1.465zm2.263-6.789h-4.814c.226-1.548 1.131-2.414 2.468-2.414 1.42 0 2.243.763 2.346 2.414zM170.623 322.46v10.792h2.983v-5.406c0-2.064 1.255-2.786 3.477-2.765v-2.786c-1.749.02-2.798.763-3.477 2.228v-2.063h-2.983zM182.78 333.479c2.859 0 4.526-1.218 4.526-3.549 0-1.156-.391-1.899-1.07-2.415-.72-.495-1.769-.784-3.107-.969-1.563-.227-2.078-.496-2.078-1.177 0-.66.556-1.114 1.523-1.114 1.049 0 1.522.413 1.687 1.3h2.736c-.144-1.238-.658-2.084-1.42-2.6-.802-.516-1.851-.743-3.024-.743-1.09 0-2.181.269-2.942.826-.802.577-1.316 1.403-1.316 2.538 0 1.052.267 1.795.925 2.311.638.516 1.626.825 3.045 1.052 1.564.227 2.181.537 2.181 1.28 0 .742-.535 1.176-1.687 1.176-1.317 0-1.749-.557-1.893-1.527h-2.777c.103 2.332 1.79 3.611 4.691 3.611z" fill="#191B1D"/><path fill-rule="evenodd" clip-rule="evenodd" d="M262.461 267.222c73.287 0 132.698-59.588 132.698-133.095S335.748 1.032 262.461 1.032 129.764 60.62 129.764 134.127s59.41 133.095 132.697 133.095zm0 1.032c73.855 0 133.726-60.051 133.726-134.127C396.187 60.051 336.316 0 262.461 0c-73.855 0-133.726 60.05-133.726 134.127 0 74.076 59.871 134.127 133.726 134.127z" fill="#191B1D"/><path d="M219.825 115.163l-4.834 14.754h3.127l1.008-3.281h5.328l1.009 3.281h3.476l-4.773-14.754h-4.341zm.021 9.1l1.954-6.376 1.934 6.376h-3.888zM234.949 115.163v14.754h3.312v-5.365h1.872c1.667 0 3.045-.372 4.012-1.135.967-.764 1.502-1.898 1.502-3.467v-.082c0-3.137-2.016-4.705-5.617-4.705h-5.081zm4.999 7.057h-1.687v-4.519h1.687c1.584 0 2.49.619 2.49 2.187v.083c0 1.486-.823 2.249-2.49 2.249zM247.389 119.125v10.792h2.984v-5.406c0-2.064 1.255-2.786 3.476-2.766v-2.785c-1.748.02-2.798.763-3.476 2.228v-2.063h-2.984zM260.456 127.874c-1.707 0-2.633-1.238-2.633-3.302v-.165c0-2.063.987-3.26 2.633-3.26 1.667 0 2.634 1.238 2.634 3.302v.144c0 2.064-.967 3.281-2.634 3.281zm-.02 2.27c1.625 0 3.044-.537 4.053-1.506 1.008-.97 1.625-2.353 1.625-4.066v-.165c0-1.671-.617-3.054-1.605-4.023-1.008-.97-2.428-1.507-4.053-1.507s-3.045.557-4.053 1.527c-1.008.97-1.625 2.394-1.625 4.065v.165c0 1.672.617 3.075 1.625 4.004 1.008.969 2.407 1.506 4.033 1.506zM271.976 130.144c1.584 0 2.901-.929 3.456-2.022v1.795h2.963v-15.683h-2.963v6.5c-.597-1.093-1.666-1.857-3.395-1.857-1.337 0-2.53.516-3.374 1.486-.843.97-1.357 2.394-1.357 4.148v.165c0 1.795.514 3.157 1.357 4.065.844.928 1.996 1.403 3.313 1.403zm.884-2.332c-1.481 0-2.51-1.052-2.51-3.198v-.165c0-2.146.926-3.281 2.593-3.281 1.646 0 2.571 1.093 2.571 3.239v.165c0 2.208-1.09 3.24-2.654 3.24zM284.472 130.144c1.79 0 2.86-.825 3.415-1.919v1.692h2.963v-10.792h-2.963v6.335c0 1.589-.987 2.373-2.242 2.373-1.235 0-1.872-.743-1.872-2.167v-6.541h-2.963v6.954c0 1.403.391 2.435 1.049 3.095.659.66 1.564.97 2.613.97zM298.195 130.144c1.564 0 2.798-.454 3.683-1.218.884-.742 1.378-1.815 1.46-3.115h-2.695c-.144 1.403-1.09 2.084-2.304 2.084-1.666 0-2.633-1.115-2.633-3.281v-.165c0-2.064 1.008-3.219 2.571-3.219 1.255 0 1.996.598 2.181 1.836h2.819c-.144-1.547-.782-2.6-1.687-3.26-.926-.661-2.14-.929-3.374-.929-1.543 0-2.922.516-3.93 1.486-1.008.99-1.625 2.394-1.625 4.127v.165c0 1.754.596 3.137 1.584 4.065.987.929 2.386 1.424 3.95 1.424zM308.972 130.123c.803 0 1.399-.144 1.811-.289v-2.311c-.33.145-.7.207-1.132.207-.802 0-1.193-.434-1.193-1.28v-5.2h2.263v-2.125h-2.263v-2.332h-2.963v2.332h-1.378v2.125h1.378v5.469c0 2.249 1.194 3.404 3.477 3.404zM219.765 153.668c-1.708 0-2.633-1.238-2.633-3.302v-.165c0-2.063.987-3.26 2.633-3.26 1.666 0 2.633 1.238 2.633 3.301v.145c0 2.063-.967 3.281-2.633 3.281zm-.021 2.27c1.626 0 3.045-.537 4.053-1.507 1.008-.97 1.626-2.352 1.626-4.065v-.165c0-1.671-.618-3.054-1.605-4.024-1.008-.97-2.428-1.506-4.053-1.506s-3.045.557-4.053 1.527c-1.008.97-1.625 2.394-1.625 4.065v.165c0 1.671.617 3.075 1.625 4.003 1.008.97 2.407 1.507 4.032 1.507zM227.252 144.919v10.792h2.983v-5.407c0-2.063 1.255-2.785 3.477-2.765v-2.786c-1.749.021-2.798.764-3.477 2.229v-2.063h-2.983zM245.06 155.938c1.728 0 3.148-.537 4.115-1.383.966-.825 1.501-2.002 1.501-3.322 0-1.507-.452-2.538-1.357-3.219-.906-.661-2.243-1.032-4.033-1.259-1.131-.165-1.81-.371-2.201-.681-.412-.268-.535-.681-.535-1.197 0-.99.72-1.671 2.201-1.671 1.42 0 2.263.639 2.449 1.96h3.065c-.268-2.951-2.201-4.416-5.514-4.416-1.625 0-2.962.475-3.888 1.238-.926.805-1.461 1.899-1.461 3.157 0 1.424.371 2.435 1.255 3.116.844.723 2.16 1.115 4.053 1.362 1.07.165 1.769.372 2.201.64.412.309.577.702.577 1.279 0 1.156-.947 1.961-2.428 1.961-1.09 0-1.769-.289-2.201-.723-.432-.412-.597-1.031-.679-1.692h-3.189c.082 1.486.596 2.683 1.584 3.529.987.846 2.448 1.321 4.485 1.321zM257.617 155.938c2.962 0 4.793-1.3 5.143-3.632h-2.819c-.185.908-.843 1.506-2.242 1.506-1.646 0-2.592-1.011-2.675-2.827h7.757v-.825c0-1.919-.618-3.302-1.585-4.189s-2.263-1.3-3.662-1.3c-1.563 0-2.942.557-3.929 1.527-1.008.99-1.605 2.373-1.605 4.086v.165c0 1.733.597 3.095 1.605 4.023.987.97 2.386 1.466 4.012 1.466zm2.263-6.789h-4.814c.226-1.548 1.131-2.415 2.468-2.415 1.42 0 2.243.764 2.346 2.415zM264.563 144.919v10.792h2.983v-5.407c0-2.063 1.255-2.785 3.477-2.765v-2.786c-1.749.021-2.798.764-3.477 2.229v-2.063h-2.983zM271.882 144.919l3.93 10.792h3.353l3.909-10.792h-2.88l-2.551 7.717-2.572-7.717h-3.189zM286.057 143.453c.967 0 1.708-.701 1.708-1.63 0-.928-.741-1.63-1.708-1.63s-1.687.702-1.687 1.63c0 .929.72 1.63 1.687 1.63zm-1.461 1.466v10.792h2.963v-10.792h-2.963zM295.006 155.938c1.563 0 2.798-.454 3.682-1.218.885-.743 1.379-1.816 1.461-3.116h-2.695c-.144 1.403-1.09 2.084-2.304 2.084-1.667 0-2.634-1.114-2.634-3.281v-.165c0-2.063 1.009-3.219 2.572-3.219 1.255 0 1.996.599 2.181 1.837h2.818c-.144-1.548-.781-2.6-1.687-3.261-.925-.66-2.139-.928-3.374-.928-1.543 0-2.921.516-3.929 1.486-1.008.99-1.625 2.393-1.625 4.127v.165c0 1.754.596 3.136 1.584 4.065.987.928 2.386 1.424 3.95 1.424zM306.812 155.938c2.962 0 4.793-1.3 5.143-3.632h-2.819c-.185.908-.843 1.506-2.242 1.506-1.646 0-2.592-1.011-2.675-2.827h7.756v-.825c0-1.919-.617-3.302-1.584-4.189-.967-.887-2.263-1.3-3.662-1.3-1.563 0-2.942.557-3.929 1.527-1.008.99-1.605 2.373-1.605 4.086v.165c0 1.733.597 3.095 1.605 4.023.987.97 2.386 1.466 4.012 1.466zm2.263-6.789h-4.814c.226-1.548 1.131-2.415 2.468-2.415 1.42 0 2.243.764 2.346 2.415z" fill="#191B1D"/><path fill-rule="evenodd" clip-rule="evenodd" d="M262.461 648.968c73.287 0 132.698-59.588 132.698-133.095 0-73.506-59.411-133.095-132.698-133.095s-132.697 59.589-132.697 133.095c0 73.507 59.41 133.095 132.697 133.095zm0 1.032c73.855 0 133.726-60.051 133.726-134.127 0-74.076-59.871-134.127-133.726-134.127-73.855 0-133.726 60.051-133.726 134.127 0 74.076 59.871 134.127 133.726 134.127z" fill="#191B1D"/><path d="M235.23 509.061h-1.358v-9.554h1.317c3.106 0 4.403 1.63 4.403 4.663v.165c0 3.075-1.379 4.726-4.362 4.726zm-4.691-12.154v14.754h4.794c2.572 0 4.505-.723 5.802-2.023 1.296-1.3 1.933-3.136 1.933-5.344v-.165c0-2.208-.658-4.024-1.913-5.283-1.296-1.238-3.23-1.939-5.802-1.939h-4.814zM250.007 511.888c2.963 0 4.794-1.3 5.144-3.632h-2.819c-.185.908-.843 1.506-2.242 1.506-1.646 0-2.593-1.011-2.675-2.827h7.756v-.825c0-1.919-.617-3.302-1.584-4.189-.967-.887-2.263-1.3-3.662-1.3-1.563 0-2.942.557-3.929 1.527-1.008.99-1.605 2.373-1.605 4.086v.165c0 1.733.597 3.095 1.605 4.023.987.97 2.386 1.466 4.011 1.466zm2.263-6.789h-4.814c.227-1.548 1.132-2.415 2.469-2.415 1.42 0 2.243.764 2.345 2.415zM260.963 511.888c2.86 0 4.526-1.218 4.526-3.55 0-1.155-.391-1.898-1.07-2.414-.72-.495-1.769-.784-3.106-.97-1.564-.227-2.078-.495-2.078-1.176 0-.66.555-1.114 1.522-1.114 1.049 0 1.523.412 1.687 1.3h2.736c-.144-1.238-.658-2.084-1.419-2.6-.802-.516-1.852-.743-3.024-.743-1.091 0-2.181.268-2.942.825-.803.578-1.317 1.403-1.317 2.538 0 1.053.267 1.796.926 2.311.638.516 1.625.826 3.045 1.053 1.563.227 2.18.536 2.18 1.279 0 .743-.535 1.176-1.687 1.176-1.316 0-1.748-.557-1.892-1.527h-2.778c.103 2.332 1.79 3.612 4.691 3.612zM268.753 499.403c.967 0 1.708-.701 1.708-1.63 0-.928-.741-1.63-1.708-1.63-.966 0-1.687.702-1.687 1.63 0 .929.721 1.63 1.687 1.63zm-1.46 1.465v10.793h2.962v-10.793h-2.962zM277.599 515.643c3.559 0 5.658-1.609 5.679-4.828v-9.947h-2.963v1.61c-.638-1.094-1.666-1.857-3.415-1.857a4.572 4.572 0 00-3.374 1.465c-.844.928-1.358 2.249-1.358 3.797v.144c0 1.589.535 2.889 1.378 3.776.823.888 1.996 1.383 3.313 1.383.802 0 1.502-.227 2.098-.619.597-.351 1.049-.867 1.358-1.383v1.631c0 1.712-.905 2.641-2.716 2.641-1.543 0-2.201-.599-2.386-1.568h-2.963c.144 1.134.597 2.063 1.482 2.723.843.661 2.139 1.032 3.867 1.032zm.144-6.706c-1.481 0-2.53-1.094-2.53-2.91v-.165c0-1.795.926-2.971 2.592-2.971 1.646 0 2.592 1.114 2.592 2.95v.145c0 1.836-1.09 2.951-2.654 2.951zM285.755 500.868v10.793h2.983v-6.232c0-1.589.947-2.373 2.243-2.373 1.317 0 1.893.681 1.893 2.166v6.439h2.983v-6.872c0-1.424-.371-2.497-1.008-3.178-.659-.66-1.543-.99-2.613-.99-1.811 0-2.942.887-3.498 1.96v-1.713h-2.983zM198.286 526.662v10.792h2.983v-5.406c0-2.064 1.255-2.786 3.477-2.765v-2.786c-1.749.021-2.798.764-3.477 2.229v-2.064h-2.983zM211.291 537.681c2.962 0 4.793-1.3 5.143-3.632h-2.818c-.186.908-.844 1.507-2.243 1.507-1.646 0-2.592-1.011-2.675-2.827h7.757v-.826c0-1.919-.618-3.301-1.585-4.188-.966-.888-2.263-1.3-3.662-1.3-1.563 0-2.942.557-3.929 1.526-1.008.991-1.605 2.374-1.605 4.086v.165c0 1.734.597 3.096 1.605 4.024.987.97 2.386 1.465 4.012 1.465zm2.263-6.789h-4.814c.226-1.547 1.131-2.414 2.468-2.414 1.42 0 2.243.763 2.346 2.414zM225.726 535.721v5.406h2.962v-14.465h-2.962v1.61c-.597-1.094-1.667-1.857-3.395-1.857-1.337 0-2.531.515-3.374 1.485-.844.97-1.358 2.394-1.358 4.148v.165c0 1.795.514 3.157 1.358 4.065.843.929 1.996 1.403 3.312 1.403a4.17 4.17 0 002.119-.598c.576-.351 1.07-.846 1.338-1.362zm-2.572-.372c-1.481 0-2.51-1.052-2.51-3.198v-.165c0-2.146.926-3.281 2.592-3.281 1.646 0 2.572 1.094 2.572 3.24v.165c0 2.208-1.091 3.239-2.654 3.239zM234.766 537.681c1.79 0 2.859-.825 3.415-1.919v1.692h2.962v-10.792h-2.962v6.335c0 1.589-.988 2.373-2.243 2.373-1.234 0-1.872-.743-1.872-2.167v-6.541h-2.962v6.954c0 1.403.391 2.435 1.049 3.095.658.661 1.564.97 2.613.97zM245.156 525.197c.967 0 1.707-.702 1.707-1.63 0-.929-.74-1.63-1.707-1.63-.967 0-1.687.701-1.687 1.63 0 .928.72 1.63 1.687 1.63zm-1.461 1.465v10.792h2.963v-10.792h-2.963zM249.229 526.662v10.792h2.983v-5.406c0-2.064 1.255-2.786 3.477-2.765v-2.786c-1.749.021-2.798.764-3.477 2.229v-2.064h-2.983zM262.234 537.681c2.962 0 4.793-1.3 5.143-3.632h-2.819c-.185.908-.843 1.507-2.242 1.507-1.646 0-2.592-1.011-2.675-2.827h7.756v-.826c0-1.919-.617-3.301-1.584-4.188-.967-.888-2.263-1.3-3.662-1.3-1.563 0-2.942.557-3.929 1.526-1.008.991-1.605 2.374-1.605 4.086v.165c0 1.734.597 3.096 1.605 4.024.987.97 2.386 1.465 4.012 1.465zm2.263-6.789h-4.814c.226-1.547 1.131-2.414 2.468-2.414 1.42 0 2.243.763 2.346 2.414zM269.18 526.662v10.792h2.983v-6.376c0-1.486.926-2.208 2.078-2.208 1.049 0 1.687.598 1.687 2.002v6.582h2.962v-6.376c0-1.486.926-2.208 2.078-2.208 1.07 0 1.687.598 1.687 2.002v6.582h2.963v-6.913c0-1.423-.371-2.476-1.008-3.157-.659-.66-1.543-.969-2.531-.969-1.378 0-2.736.557-3.621 1.877-.514-1.3-1.584-1.877-3.003-1.877-1.626 0-2.737.887-3.292 1.898v-1.651h-2.983zM292.954 537.681c2.962 0 4.793-1.3 5.143-3.632h-2.819c-.185.908-.843 1.507-2.242 1.507-1.646 0-2.592-1.011-2.675-2.827h7.757v-.826c0-1.919-.618-3.301-1.585-4.188-.967-.888-2.263-1.3-3.662-1.3-1.563 0-2.942.557-3.929 1.526-1.008.991-1.605 2.374-1.605 4.086v.165c0 1.734.597 3.096 1.605 4.024.987.97 2.386 1.465 4.012 1.465zm2.263-6.789h-4.814c.226-1.547 1.131-2.414 2.468-2.414 1.42 0 2.243.763 2.346 2.414zM299.9 526.662v10.792h2.983v-6.232c0-1.588.946-2.373 2.242-2.373 1.317 0 1.893.681 1.893 2.167v6.438h2.983v-6.871c0-1.424-.37-2.497-1.008-3.178-.658-.66-1.543-.99-2.613-.99-1.81 0-2.942.887-3.497 1.96v-1.713H299.9zM316.316 537.661c.803 0 1.399-.145 1.811-.289v-2.311c-.329.144-.7.206-1.132.206-.802 0-1.193-.433-1.193-1.279v-5.2h2.263v-2.126h-2.263v-2.332h-2.963v2.332h-1.378v2.126h1.378v5.468c0 2.249 1.194 3.405 3.477 3.405zM323.981 537.681c2.86 0 4.526-1.217 4.526-3.549 0-1.156-.391-1.898-1.07-2.414-.72-.496-1.769-.784-3.106-.97-1.564-.227-2.078-.495-2.078-1.176 0-.661.555-1.115 1.522-1.115 1.049 0 1.523.413 1.687 1.3h2.736c-.144-1.238-.658-2.084-1.419-2.6-.802-.516-1.852-.742-3.024-.742-1.091 0-2.181.268-2.942.825-.803.578-1.317 1.403-1.317 2.538 0 1.052.267 1.795.926 2.311.638.516 1.625.826 3.045 1.052 1.563.227 2.18.537 2.18 1.28s-.535 1.176-1.687 1.176c-1.316 0-1.748-.557-1.892-1.527h-2.778c.103 2.332 1.79 3.611 4.691 3.611z" fill="#191B1D"/><path fill-rule="evenodd" clip-rule="evenodd" d="M497.539 267.222c73.287 0 132.697-59.588 132.697-133.095S570.826 1.032 497.539 1.032 364.841 60.62 364.841 134.127s59.411 133.095 132.698 133.095zm0 1.032c73.855 0 133.726-60.051 133.726-134.127C631.265 60.051 571.394 0 497.539 0c-73.855 0-133.726 60.05-133.726 134.127 0 74.076 59.871 134.127 133.726 134.127z" fill="#191B1D"/><path d="M446.562 127.625l-4.835 14.754h3.127l1.008-3.281h5.329l1.008 3.281h3.477l-4.773-14.754h-4.341zm.02 9.1l1.955-6.376 1.934 6.376h-3.889zM468.31 142.606c1.81 0 3.374-.475 4.526-1.403 1.152-.908 1.893-2.311 2.078-4.127h-3.271c-.268 1.898-1.543 2.827-3.374 2.827-2.449 0-3.827-1.754-3.827-4.829v-.165c0-3.075 1.481-4.87 3.806-4.87 1.872 0 2.839.929 3.086 2.724h3.415c-.164-1.816-.926-3.157-2.057-4.044-1.152-.888-2.716-1.321-4.465-1.321-2.077 0-3.908.763-5.205 2.084-1.316 1.321-2.098 3.219-2.098 5.448v.165c0 2.29.638 4.147 1.893 5.447 1.234 1.321 3.086 2.064 5.493 2.064zM481.657 140.336c-1.708 0-2.633-1.238-2.633-3.302v-.165c0-2.063.987-3.26 2.633-3.26 1.666 0 2.633 1.238 2.633 3.302v.144c0 2.064-.967 3.281-2.633 3.281zm-.021 2.27c1.626 0 3.045-.537 4.053-1.506 1.008-.97 1.626-2.353 1.626-4.066v-.165c0-1.671-.618-3.054-1.605-4.023-1.008-.97-2.428-1.507-4.053-1.507s-3.045.557-4.053 1.527c-1.008.97-1.625 2.394-1.625 4.065v.165c0 1.672.617 3.075 1.625 4.004 1.008.969 2.407 1.506 4.032 1.506zM489.144 131.587v10.792h2.983v-6.376c0-1.486.926-2.208 2.078-2.208 1.049 0 1.687.598 1.687 2.001v6.583h2.963v-6.376c0-1.486.926-2.208 2.078-2.208 1.069 0 1.687.598 1.687 2.001v6.583h2.962v-6.913c0-1.424-.37-2.476-1.008-3.157-.658-.66-1.543-.97-2.53-.97-1.379 0-2.737.557-3.621 1.878-.515-1.3-1.584-1.878-3.004-1.878-1.625 0-2.736.888-3.292 1.899v-1.651h-2.983zM507.96 131.587v14.465h2.983v-5.324c.555 1.052 1.769 1.878 3.436 1.878 1.337 0 2.51-.495 3.353-1.465.823-.929 1.337-2.311 1.337-4.107v-.165c0-1.795-.514-3.177-1.357-4.106-.844-.929-2.017-1.424-3.333-1.424-1.584 0-2.839.888-3.436 1.94v-1.692h-2.983zm5.534 8.687c-1.646 0-2.654-1.052-2.654-3.219v-.165c0-2.167 1.07-3.26 2.633-3.26 1.502 0 2.572 1.052 2.572 3.26v.165c0 2.125-.905 3.219-2.551 3.219zM523.81 142.606c1.707 0 2.613-.64 3.25-1.527v1.3h2.901v-7.037c0-1.465-.452-2.455-1.255-3.095-.823-.64-1.934-.908-3.25-.908-1.317 0-2.49.289-3.333.888-.844.598-1.42 1.547-1.502 2.806h2.818c.144-.929.659-1.527 1.831-1.527 1.379 0 1.749.681 1.749 1.981v.433h-1.214c-1.645 0-3.044.227-4.032.784-.987.557-1.564 1.424-1.564 2.683 0 1.135.412 1.94 1.07 2.455.659.516 1.543.764 2.531.764zm.884-2.084c-1.09 0-1.563-.495-1.563-1.3 0-1.156 1.008-1.527 2.736-1.527h1.152v.908c0 1.217-1.008 1.919-2.325 1.919zM532.351 131.587v10.792h2.983v-6.232c0-1.589.947-2.373 2.243-2.373 1.316 0 1.893.681 1.893 2.167v6.438h2.983v-6.872c0-1.423-.371-2.496-1.008-3.177-.659-.661-1.543-.991-2.613-.991-1.811 0-2.942.888-3.498 1.961v-1.713h-2.983zM547.787 141.285l-1.892 4.767h2.88l5.822-14.465h-2.86l-2.407 6.479-2.612-6.479h-3.21l4.279 9.698z" fill="#191B1D"/><path fill-rule="evenodd" clip-rule="evenodd" d="M497.539 648.968c73.287 0 132.697-59.588 132.697-133.095 0-73.506-59.41-133.095-132.697-133.095s-132.698 59.589-132.698 133.095c0 73.507 59.411 133.095 132.698 133.095zm0 1.032c73.855 0 133.726-60.051 133.726-134.127 0-74.076-59.871-134.127-133.726-134.127-73.855 0-133.726 60.051-133.726 134.127 0 74.076 59.871 134.127 133.726 134.127z" fill="#191B1D"/><path d="M448.117 496.907v14.754h3.333v-5.716h4.834v-2.518h-4.834v-3.9h6.11v-2.62h-9.443zM462.53 511.888c1.79 0 2.859-.826 3.415-1.919v1.692h2.962v-10.792h-2.962v6.334c0 1.589-.988 2.373-2.243 2.373-1.234 0-1.872-.742-1.872-2.166v-6.541h-2.962v6.953c0 1.404.391 2.435 1.049 3.096.658.66 1.564.97 2.613.97zM471.377 500.869v10.792h2.983v-6.232c0-1.589.946-2.373 2.242-2.373 1.317 0 1.893.681 1.893 2.166v6.439h2.983v-6.872c0-1.424-.37-2.497-1.008-3.178-.658-.66-1.543-.99-2.613-.99-1.81 0-2.942.887-3.497 1.96v-1.712h-2.983zM488.74 511.888c1.563 0 2.798-.454 3.682-1.218.885-.743 1.379-1.816 1.461-3.116h-2.695c-.144 1.403-1.091 2.084-2.304 2.084-1.667 0-2.634-1.114-2.634-3.281v-.165c0-2.063 1.008-3.219 2.572-3.219 1.255 0 1.996.599 2.181 1.837h2.818c-.144-1.548-.782-2.6-1.687-3.261-.926-.66-2.139-.928-3.374-.928-1.543 0-2.921.516-3.929 1.486-1.008.99-1.626 2.393-1.626 4.127v.165c0 1.754.597 3.136 1.585 4.065.987.928 2.386 1.424 3.95 1.424zM499.517 511.867c.802 0 1.399-.145 1.81-.289v-2.311c-.329.144-.699.206-1.131.206-.803 0-1.194-.433-1.194-1.279v-5.2h2.264v-2.125h-2.264v-2.332h-2.962v2.332h-1.379v2.125h1.379v5.468c0 2.249 1.193 3.405 3.477 3.405zM504.715 499.403c.967 0 1.708-.701 1.708-1.63 0-.928-.741-1.63-1.708-1.63s-1.687.702-1.687 1.63c0 .929.72 1.63 1.687 1.63zm-1.461 1.466v10.792h2.963v-10.792h-2.963zM513.808 509.618c-1.708 0-2.634-1.238-2.634-3.302v-.165c0-2.063.988-3.26 2.634-3.26 1.666 0 2.633 1.238 2.633 3.301v.145c0 2.063-.967 3.281-2.633 3.281zm-.021 2.27c1.625 0 3.045-.537 4.053-1.507 1.008-.97 1.625-2.352 1.625-4.065v-.165c0-1.671-.617-3.054-1.604-4.024-1.008-.97-2.428-1.506-4.053-1.506-1.626 0-3.045.557-4.053 1.527-1.008.97-1.625 2.394-1.625 4.065v.165c0 1.671.617 3.075 1.625 4.003 1.008.97 2.407 1.507 4.032 1.507zM521.295 500.869v10.792h2.983v-6.232c0-1.589.946-2.373 2.243-2.373 1.316 0 1.892.681 1.892 2.166v6.439h2.983v-6.872c0-1.424-.37-2.497-1.008-3.178-.658-.66-1.543-.99-2.612-.99-1.811 0-2.942.887-3.498 1.96v-1.712h-2.983zM536.683 511.888c1.707 0 2.613-.64 3.25-1.527v1.3h2.901v-7.037c0-1.465-.452-2.455-1.255-3.095-.823-.64-1.934-.908-3.25-.908-1.317 0-2.49.289-3.333.887-.844.599-1.42 1.548-1.502 2.807h2.818c.145-.929.659-1.527 1.832-1.527 1.378 0 1.748.681 1.748 1.981v.433h-1.214c-1.645 0-3.044.227-4.032.784-.987.557-1.564 1.424-1.564 2.683 0 1.134.412 1.939 1.07 2.455.659.516 1.543.764 2.531.764zm.884-2.085c-1.09 0-1.563-.495-1.563-1.3 0-1.155 1.008-1.527 2.736-1.527h1.152v.908c0 1.218-1.008 1.919-2.325 1.919zM545.307 495.978v15.683h2.962v-15.683h-2.962zM433.363 526.662v10.792h2.983v-5.406c0-2.064 1.255-2.786 3.477-2.765v-2.786c-1.748.021-2.798.764-3.477 2.229v-2.064h-2.983zM446.368 537.681c2.963 0 4.794-1.3 5.144-3.632h-2.819c-.185.908-.843 1.507-2.242 1.507-1.646 0-2.593-1.011-2.675-2.827h7.756v-.826c0-1.919-.617-3.301-1.584-4.188-.967-.888-2.263-1.3-3.662-1.3-1.564 0-2.942.557-3.929 1.527-1.009.99-1.605 2.373-1.605 4.085v.165c0 1.734.596 3.096 1.605 4.024.987.97 2.386 1.465 4.011 1.465zm2.263-6.789h-4.814c.227-1.547 1.132-2.414 2.469-2.414 1.42 0 2.242.764 2.345 2.414zM460.803 535.721v5.406h2.963v-14.465h-2.963v1.61c-.596-1.094-1.666-1.857-3.394-1.857-1.338 0-2.531.515-3.374 1.485-.844.97-1.358 2.394-1.358 4.148v.165c0 1.795.514 3.157 1.358 4.065.843.929 1.995 1.403 3.312 1.403.802 0 1.522-.247 2.119-.598.576-.351 1.07-.846 1.337-1.362zm-2.571-.372c-1.482 0-2.51-1.052-2.51-3.198v-.165c0-2.146.925-3.281 2.592-3.281 1.646 0 2.571 1.094 2.571 3.24v.165c0 2.208-1.09 3.239-2.653 3.239zM469.843 537.681c1.79 0 2.86-.825 3.415-1.919v1.692h2.963v-10.792h-2.963v6.335c0 1.589-.987 2.373-2.242 2.373-1.234 0-1.872-.743-1.872-2.167v-6.541h-2.963v6.954c0 1.403.391 2.435 1.05 3.095.658.661 1.563.97 2.612.97zM480.233 525.197c.967 0 1.708-.701 1.708-1.63 0-.929-.741-1.63-1.708-1.63s-1.687.701-1.687 1.63c0 .929.72 1.63 1.687 1.63zm-1.46 1.465v10.792h2.962v-10.792h-2.962zM484.306 526.662v10.792h2.983v-5.406c0-2.064 1.255-2.786 3.477-2.765v-2.786c-1.749.021-2.798.764-3.477 2.229v-2.064h-2.983zM497.311 537.681c2.963 0 4.794-1.3 5.143-3.632h-2.818c-.185.908-.844 1.507-2.243 1.507-1.645 0-2.592-1.011-2.674-2.827h7.756v-.826c0-1.919-.617-3.301-1.584-4.188-.967-.888-2.263-1.3-3.662-1.3-1.564 0-2.942.557-3.93 1.527-1.008.99-1.604 2.373-1.604 4.085v.165c0 1.734.596 3.096 1.604 4.024.988.97 2.387 1.465 4.012 1.465zm2.263-6.789h-4.814c.226-1.547 1.132-2.414 2.469-2.414 1.419 0 2.242.764 2.345 2.414zM504.257 526.662v10.792h2.983v-6.376c0-1.486.926-2.208 2.078-2.208 1.05 0 1.687.599 1.687 2.002v6.582h2.963v-6.376c0-1.486.926-2.208 2.078-2.208 1.07 0 1.687.599 1.687 2.002v6.582h2.962v-6.912c0-1.424-.37-2.477-1.008-3.158-.658-.66-1.543-.969-2.53-.969-1.379 0-2.736.557-3.621 1.877-.514-1.3-1.584-1.877-3.004-1.877-1.625 0-2.736.887-3.292 1.898v-1.651h-2.983zM528.031 537.681c2.963 0 4.794-1.3 5.144-3.632h-2.819c-.185.908-.844 1.507-2.242 1.507-1.646 0-2.593-1.011-2.675-2.827h7.756v-.826c0-1.919-.617-3.301-1.584-4.188-.967-.888-2.263-1.3-3.662-1.3-1.564 0-2.942.557-3.93 1.527-1.008.99-1.604 2.373-1.604 4.085v.165c0 1.734.596 3.096 1.604 4.024.988.97 2.387 1.465 4.012 1.465zm2.263-6.789h-4.814c.226-1.547 1.132-2.414 2.469-2.414 1.419 0 2.242.764 2.345 2.414zM534.977 526.662v10.792h2.984v-6.232c0-1.588.946-2.373 2.242-2.373 1.317 0 1.893.681 1.893 2.167v6.438h2.983v-6.871c0-1.424-.37-2.497-1.008-3.178-.659-.66-1.543-.99-2.613-.99-1.81 0-2.942.887-3.497 1.96v-1.713h-2.984zM551.394 537.661c.802 0 1.399-.145 1.81-.289v-2.311c-.329.144-.699.206-1.131.206-.803 0-1.193-.433-1.193-1.279v-5.2h2.263v-2.126h-2.263v-2.332h-2.963v2.332h-1.378v2.126h1.378v5.468c0 2.249 1.193 3.405 3.477 3.405zM559.059 537.681c2.859 0 4.526-1.217 4.526-3.549 0-1.156-.391-1.898-1.07-2.414-.72-.496-1.769-.784-3.107-.97-1.563-.227-2.078-.495-2.078-1.176 0-.661.556-1.115 1.523-1.115 1.049 0 1.522.413 1.687 1.3h2.736c-.144-1.238-.658-2.084-1.42-2.6-.802-.515-1.851-.742-3.024-.742-1.09 0-2.181.268-2.942.825-.802.578-1.316 1.403-1.316 2.538 0 1.052.267 1.795.925 2.311.638.516 1.626.826 3.045 1.053 1.564.227 2.181.536 2.181 1.279 0 .743-.535 1.176-1.687 1.176-1.317 0-1.749-.557-1.893-1.527h-2.777c.103 2.332 1.79 3.611 4.691 3.611z" fill="#191B1D"/><path fill-rule="evenodd" clip-rule="evenodd" d="M626.274 458.095c73.287 0 132.697-59.588 132.697-133.095 0-73.506-59.41-133.095-132.697-133.095S493.577 251.494 493.577 325c0 73.507 59.41 133.095 132.697 133.095zm0 1.032C700.129 459.127 760 399.076 760 325c0-74.076-59.871-134.127-133.726-134.127-73.855 0-133.726 60.051-133.726 134.127 0 74.076 59.871 134.127 133.726 134.127z" fill="#191B1D"/><path d="M573.414 333.479c1.811 0 3.374-.475 4.526-1.403 1.153-.908 1.893-2.311 2.078-4.127h-3.271c-.267 1.898-1.543 2.827-3.374 2.827-2.448 0-3.826-1.754-3.826-4.829v-.165c0-3.074 1.481-4.87 3.806-4.87 1.872 0 2.839.929 3.086 2.724h3.415c-.165-1.816-.926-3.157-2.058-4.044-1.152-.888-2.715-1.321-4.464-1.321-2.078 0-3.909.764-5.205 2.084-1.317 1.321-2.098 3.219-2.098 5.448v.165c0 2.29.637 4.148 1.892 5.448 1.235 1.32 3.086 2.063 5.493 2.063zM586.762 331.209c-1.708 0-2.634-1.238-2.634-3.301v-.165c0-2.064.988-3.261 2.634-3.261 1.666 0 2.633 1.238 2.633 3.302v.144c0 2.064-.967 3.281-2.633 3.281zm-.021 2.27c1.625 0 3.045-.536 4.053-1.506s1.625-2.353 1.625-4.065v-.165c0-1.672-.617-3.054-1.605-4.024-1.008-.97-2.427-1.507-4.052-1.507-1.626 0-3.045.558-4.053 1.527-1.008.97-1.626 2.394-1.626 4.065v.166c0 1.671.618 3.074 1.626 4.003 1.008.97 2.407 1.506 4.032 1.506zM594.249 322.46v10.792h2.983v-6.376c0-1.486.926-2.208 2.078-2.208 1.049 0 1.687.598 1.687 2.002v6.582h2.962v-6.376c0-1.486.926-2.208 2.078-2.208 1.07 0 1.687.598 1.687 2.002v6.582h2.963v-6.913c0-1.423-.371-2.476-1.008-3.157-.659-.66-1.543-.97-2.531-.97-1.378 0-2.736.558-3.621 1.878-.514-1.3-1.584-1.878-3.003-1.878-1.626 0-2.737.888-3.292 1.899v-1.651h-2.983zM613.064 322.46v14.465h2.984v-5.324c.555 1.053 1.769 1.878 3.435 1.878 1.338 0 2.51-.495 3.354-1.465.823-.929 1.337-2.311 1.337-4.106v-.165c0-1.796-.514-3.178-1.358-4.107-.843-.928-2.016-1.424-3.333-1.424-1.584 0-2.839.888-3.435 1.94v-1.692h-2.984zm5.535 8.687c-1.646 0-2.654-1.052-2.654-3.219v-.165c0-2.166 1.07-3.26 2.633-3.26 1.502 0 2.572 1.052 2.572 3.26v.165c0 2.126-.905 3.219-2.551 3.219zM630.972 333.479c2.962 0 4.793-1.3 5.143-3.632h-2.819c-.185.908-.843 1.507-2.242 1.507-1.646 0-2.592-1.011-2.675-2.827h7.757v-.826c0-1.919-.618-3.301-1.585-4.189-.967-.887-2.263-1.3-3.662-1.3-1.563 0-2.942.558-3.929 1.527-1.008.991-1.605 2.373-1.605 4.086v.165c0 1.734.597 3.095 1.605 4.024.987.97 2.386 1.465 4.012 1.465zm2.263-6.789h-4.814c.226-1.547 1.131-2.414 2.468-2.414 1.42 0 2.243.763 2.346 2.414zM641.847 333.458c.803 0 1.399-.144 1.811-.288v-2.312c-.329.145-.7.207-1.132.207-.802 0-1.193-.434-1.193-1.28v-5.2h2.263v-2.125h-2.263v-2.332h-2.963v2.332h-1.378v2.125h1.378v5.469c0 2.249 1.194 3.404 3.477 3.404zM647.046 320.995c.967 0 1.707-.702 1.707-1.63 0-.929-.74-1.63-1.707-1.63-.967 0-1.687.701-1.687 1.63 0 .928.72 1.63 1.687 1.63zm-1.461 1.465v10.792h2.963V322.46h-2.963zM655.048 333.458c.802 0 1.399-.144 1.81-.288v-2.312c-.329.145-.699.207-1.131.207-.802 0-1.193-.434-1.193-1.28v-5.2h2.263v-2.125h-2.263v-2.332h-2.963v2.332h-1.378v2.125h1.378v5.469c0 2.249 1.193 3.404 3.477 3.404zM663.723 331.209c-1.707 0-2.633-1.238-2.633-3.301v-.165c0-2.064.987-3.261 2.633-3.261 1.667 0 2.634 1.238 2.634 3.302v.144c0 2.064-.967 3.281-2.634 3.281zm-.02 2.27c1.625 0 3.044-.536 4.053-1.506 1.008-.97 1.625-2.353 1.625-4.065v-.165c0-1.672-.617-3.054-1.605-4.024-1.008-.97-2.428-1.507-4.053-1.507s-3.045.558-4.053 1.527c-1.008.97-1.625 2.394-1.625 4.065v.166c0 1.671.617 3.074 1.625 4.003 1.008.97 2.407 1.506 4.033 1.506zM671.21 322.46v10.792h2.984v-5.406c0-2.064 1.254-2.786 3.476-2.765v-2.786c-1.748.021-2.798.763-3.476 2.229v-2.064h-2.984zM683.367 333.479c2.86 0 4.526-1.217 4.526-3.549 0-1.156-.391-1.899-1.07-2.414-.72-.496-1.769-.785-3.106-.97-1.564-.227-2.078-.496-2.078-1.176 0-.661.555-1.115 1.522-1.115 1.05 0 1.523.413 1.687 1.3h2.737c-.144-1.238-.659-2.084-1.42-2.6-.802-.516-1.852-.743-3.024-.743-1.091 0-2.181.269-2.942.826-.803.578-1.317 1.403-1.317 2.538 0 1.052.268 1.795.926 2.311.638.516 1.625.825 3.045 1.052 1.563.227 2.181.537 2.181 1.28s-.535 1.176-1.688 1.176c-1.316 0-1.748-.557-1.892-1.527h-2.778c.103 2.332 1.79 3.611 4.691 3.611z" fill="#191B1D"/></svg>
